<mxfile host="app.diagrams.net" agent="Mozilla/5.0 (Windows NT 10.0; Win64; x64) AppleWebKit/537.36 (KHTML, like Gecko) Chrome/139.0.0.0 Safari/537.36" version="28.1.0">
  <diagram name="PÃ¡gina-1" id="B6MdtAeK3aNNwOVqZ7ww">
    <mxGraphModel dx="1213" dy="643" grid="1" gridSize="10" guides="1" tooltips="1" connect="1" arrows="1" fold="1" page="1" pageScale="1" pageWidth="1169" pageHeight="827" background="light-dark(#FFFFFF,#FFFFFF)" math="0" shadow="0">
      <root>
        <mxCell id="0" />
        <mxCell id="1" parent="0" />
        <mxCell id="g8OfchhErnNZp_5HsY3C-3" value="&lt;h1&gt;&lt;span style=&quot;background-color: light-dark(#ffffff, var(--ge-dark-color, #121212));&quot;&gt;&lt;u&gt;&lt;font style=&quot;color: rgb(0, 0, 255);&quot; face=&quot;Comic Sans MS&quot;&gt;Stack: Bootcamp Engenharia de Dados v1.1&lt;/font&gt;&lt;/u&gt;&lt;/span&gt;&lt;/h1&gt;" style="points=[[0,0],[0.25,0],[0.5,0],[0.75,0],[1,0],[1,0.25],[1,0.5],[1,0.75],[1,1],[0.75,1],[0.5,1],[0.25,1],[0,1],[0,0.75],[0,0.5],[0,0.25]];outlineConnect=0;gradientColor=none;html=1;whiteSpace=wrap;fontSize=12;fontStyle=1;container=1;pointerEvents=0;collapsible=0;recursiveResize=0;shape=mxgraph.aws4.group;grIcon=mxgraph.aws4.group_account;strokeColor=#CD2264;fillColor=none;verticalAlign=top;align=left;spacingLeft=30;fontColor=#CD2264;dashed=0;" vertex="1" parent="1">
          <mxGeometry x="40" y="40" width="1000" height="600" as="geometry" />
        </mxCell>
        <mxCell id="g8OfchhErnNZp_5HsY3C-5" value="" style="html=1;align=center;verticalAlign=top;rounded=1;absoluteArcSize=1;arcSize=20;dashed=1;whiteSpace=wrap;" vertex="1" parent="g8OfchhErnNZp_5HsY3C-3">
          <mxGeometry x="40" y="110" width="200" height="370" as="geometry" />
        </mxCell>
        <mxCell id="g8OfchhErnNZp_5HsY3C-8" value="" style="html=1;align=center;verticalAlign=top;rounded=1;absoluteArcSize=1;arcSize=20;dashed=1;whiteSpace=wrap;" vertex="1" parent="g8OfchhErnNZp_5HsY3C-3">
          <mxGeometry x="280" y="110" width="200" height="370" as="geometry" />
        </mxCell>
        <mxCell id="g8OfchhErnNZp_5HsY3C-9" value="" style="html=1;align=center;verticalAlign=top;rounded=1;absoluteArcSize=1;arcSize=20;dashed=1;whiteSpace=wrap;" vertex="1" parent="g8OfchhErnNZp_5HsY3C-3">
          <mxGeometry x="520" y="110" width="200" height="370" as="geometry" />
        </mxCell>
        <mxCell id="g8OfchhErnNZp_5HsY3C-10" value="" style="html=1;align=center;verticalAlign=top;rounded=1;absoluteArcSize=1;arcSize=20;dashed=1;whiteSpace=wrap;gradientColor=none;" vertex="1" parent="g8OfchhErnNZp_5HsY3C-3">
          <mxGeometry x="750" y="110" width="200" height="370" as="geometry" />
        </mxCell>
        <mxCell id="g8OfchhErnNZp_5HsY3C-13" value="" style="verticalLabelPosition=bottom;html=1;verticalAlign=top;align=center;strokeColor=none;fillColor=#00BEF2;shape=mxgraph.azure.visual_studio_online;" vertex="1" parent="g8OfchhErnNZp_5HsY3C-3">
          <mxGeometry x="900" width="92.5" height="60" as="geometry" />
        </mxCell>
        <mxCell id="g8OfchhErnNZp_5HsY3C-14" value="" style="image;aspect=fixed;html=1;points=[];align=center;fontSize=12;image=img/lib/mscae/Docker.svg;" vertex="1" parent="g8OfchhErnNZp_5HsY3C-3">
          <mxGeometry x="700" y="10" width="73.17" height="60" as="geometry" />
        </mxCell>
        <mxCell id="g8OfchhErnNZp_5HsY3C-15" value="" style="image;aspect=fixed;html=1;points=[];align=center;fontSize=12;image=img/lib/azure2/databases/Azure_Database_PostgreSQL_Server.svg;" vertex="1" parent="g8OfchhErnNZp_5HsY3C-3">
          <mxGeometry x="104" y="150" width="75" height="100" as="geometry" />
        </mxCell>
        <mxCell id="g8OfchhErnNZp_5HsY3C-16" value="" style="outlineConnect=0;fontColor=#ffffff;fillColor=#0050ef;strokeColor=#001DBC;dashed=0;verticalLabelPosition=bottom;verticalAlign=top;align=center;html=1;fontSize=12;fontStyle=0;aspect=fixed;pointerEvents=1;shape=mxgraph.aws4.rds_postgresql_instance;" vertex="1" parent="g8OfchhErnNZp_5HsY3C-3">
          <mxGeometry x="101" y="300" width="78" height="78" as="geometry" />
        </mxCell>
        <mxCell id="g8OfchhErnNZp_5HsY3C-29" value="" style="edgeStyle=orthogonalEdgeStyle;rounded=0;orthogonalLoop=1;jettySize=auto;html=1;" edge="1" parent="g8OfchhErnNZp_5HsY3C-3" source="g8OfchhErnNZp_5HsY3C-17" target="g8OfchhErnNZp_5HsY3C-24">
          <mxGeometry relative="1" as="geometry" />
        </mxCell>
        <mxCell id="g8OfchhErnNZp_5HsY3C-17" value="" style="outlineConnect=0;dashed=0;verticalLabelPosition=bottom;verticalAlign=top;align=center;html=1;shape=mxgraph.aws3.ec2;fillColor=#F58534;gradientColor=none;" vertex="1" parent="g8OfchhErnNZp_5HsY3C-3">
          <mxGeometry x="380" y="200" width="80" height="45" as="geometry" />
        </mxCell>
        <mxCell id="g8OfchhErnNZp_5HsY3C-18" value="" style="outlineConnect=0;dashed=0;verticalLabelPosition=bottom;verticalAlign=top;align=center;html=1;shape=mxgraph.aws3.cloud_2;fillColor=#F58534;gradientColor=none;" vertex="1" parent="g8OfchhErnNZp_5HsY3C-3">
          <mxGeometry x="332.5" y="130" width="95" height="45" as="geometry" />
        </mxCell>
        <mxCell id="g8OfchhErnNZp_5HsY3C-19" value="" style="shape=image;html=1;verticalAlign=top;verticalLabelPosition=bottom;labelBackgroundColor=#ffffff;imageAspect=0;aspect=fixed;image=https://icons.diagrams.net/icon-cache1/Operating_System__Flat_-2035/ubuntu-750.svg;" vertex="1" parent="g8OfchhErnNZp_5HsY3C-3">
          <mxGeometry x="305" y="195" width="50" height="50" as="geometry" />
        </mxCell>
        <mxCell id="g8OfchhErnNZp_5HsY3C-21" value="" style="outlineConnect=0;fontColor=#ffffff;fillColor=#0050ef;strokeColor=#001DBC;dashed=0;verticalLabelPosition=bottom;verticalAlign=top;align=center;html=1;fontSize=12;fontStyle=0;aspect=fixed;pointerEvents=1;shape=mxgraph.aws4.rds_postgresql_instance;" vertex="1" parent="g8OfchhErnNZp_5HsY3C-3">
          <mxGeometry x="581" y="261" width="78" height="78" as="geometry" />
        </mxCell>
        <mxCell id="g8OfchhErnNZp_5HsY3C-22" value="" style="outlineConnect=0;fontColor=#ffffff;fillColor=#0050ef;strokeColor=#001DBC;dashed=0;verticalLabelPosition=bottom;verticalAlign=top;align=center;html=1;fontSize=12;fontStyle=0;aspect=fixed;pointerEvents=1;shape=mxgraph.aws4.rds_postgresql_instance;" vertex="1" parent="g8OfchhErnNZp_5HsY3C-3">
          <mxGeometry x="581" y="377.65" width="78" height="78" as="geometry" />
        </mxCell>
        <mxCell id="g8OfchhErnNZp_5HsY3C-23" value="" style="shape=image;imageAspect=0;aspect=fixed;verticalLabelPosition=bottom;verticalAlign=top;image=data:image/png,iVBORw0KGgoAAAANSUhEUgAAARgAAAEYCAYAAACHjumMAAAQAElEQVR4Aex9CXwTZfr/80x6QIGmSQtIRaRNEV2PFdGVdRVpyyXgurqLNz1Q8fjLriBCy2VAaMshoP52EQR64MGKNyBXmyLqegPqepKUKre0OUppoU3m/T8D1EVom6OZzEz6zmcmmbzv8z7H9535znvMTATgC0eAI8ARkAkBTjAyAcvVcgQ4AgCcYPhRwBHgCMiGACcY2aDlipVGgNtXHgFOMMrXAfeAIxC2CHCCCduq5YFxBJRHgBOM8nXAPeAIhC0CnGBkqtqgqR03LjJ+zORL4rJy/2LMyLnfmDl1giErN8eQMeVBQ9aUu+PG5N7YfcykTkGzpxZFFLcxI/ePxoycO2i735CRM8WYmTtJituYkfu3uIycfmEZt1rwD5IfnGCCBGTQ1by7O9pU7lxgumthjWHs9G8TMnPfNGZPfcGYlbMoPjM3Pz572vPxmdNeShibu61z9swak6XmA9qeSLzZHBN0X0KlcPRoXVK58z6TxbVeituYnfsfinkNbS/EZ08tMGblLoinuI3ZuWsTsqfukOJOttSsSFx3ICFULnI7/iHACcY/vEIhjSaLK8PUoduPCMIkBOgAXhZEEGj7E23zO0587DU64bRHMmazYHpoxQodCCsQcaSvcQsI98V06mQjMp4G1OoBvqgKAUFV3nBnIKXUmU8nWDFtvQKBA0G4qWPnzlZTWU0WaGRJ2eoYZBo4cScKGJjPiLEIwpzkOxauAr7Ij4AfFjjB+AGWjKJIXaA/m8pdG5kgTG6rHQTogQIU9thw6HkYp+IuE3WJEp9eP5vpdGWIcEVb4xYEuNe07egXxtcr74P+/SPbqo+XbzsCnGDajmGbNcS9viczLiv3bQQcTicatlnhaQWdYmIeTLlrwn+TSg93P52knq9ln0eaHlmxKeaqgTMo5qAdh8jYVUajcUXSvM1PqCfY9utJ0Cq2/ULY9sjjDfH/r+1aWtKASYLQ4Q2g1kJLEkqkm/pc9BwCDpbLtiBEPgQ0UC6Xfq7XNwQ4wfiGkyxSxnsm90wpd62jK/jVshg4rRQRr0sckPnk6Z+Kf53/9IYHEeHBgBzxsRAiXpDcsdvH+jGTZcXWR3farRgnGAWr3nj/tLUAOApCsMT0u+Hx5K12fQhMeTXR8aobpnsVCoKAAHhl1+xpm9QSdxBC0pwKQXMeh4nDyRbHbQA4AEK1IMYIERE5oTLXkp1TcUPPlvKDno4Yr4a4gx6XRhRyglGgojpnj++KICyHEC8M4PELyxy3htjsr+aMlm8uRYXijs/KvRj4EnIEOMH4A3mQZCM8na6nMYL4IKnzWQ0CREYKujyfCwRZ0AA9pygVNzBMD3I4XJ0PCAg+yHCRICOAmdl9g6zSH3UXd8nIDTm5gdksEMGN9MfRYMrGZeQqiXkwQ9GULk4wClSXEbpfq4DZX01GgPiHX3+EaCfOWn85IBpDZO4cM4iiopif41A7SeAEo0RFoxC6Qc5m4qNuygXNJMuahIIQcptnBkTjT4raP9MXde7L4xUnGHlwbV0rsi6tC8idK4TevtIxI4Y+ZrmrUQP6OcEoU0mKdRWkcKPvGquAfaaATSna0xuDzglvf8BJ5jQcofriBBMqpM+wgwy9voLhDPGg73aIiI8OulIvCpEJIbd5pktII8wdO/blBHMmKCHY5wQTApC5CW8I8PxwRYATTLjWLI+LI6ACBDjBqKASuAscgXBFgBNMuNYsj4sjoAIEOMGACmqBu8ARCFMEOMGEacXysDgCakCAE4waaoH7wBEIUwQ4wYRpxfKwOAIAoDgInGAUrwLuAEcgfBHgBBO+dcsj4wgojgAnGMWrgDvAEQhfBDjBhG/dKh0Zt88RAE4w/CDgCHAEZEOAE4xs0HLFHAGOQPgRjNkcfjHx47R9IBCGx67mT0bTZvtlyZaavJRy10cpFpcr5caJnpTymkbarzVZXB/Q9vfkLc6rpZdOt4+jlEepdgR6Z5k7mEpdw+nYnE3bf03lNfUmS43n9LG7l9I20e/JvdY7DWqPxZt/miWY3lsdg6giPseoiK8FhFyQ/sQMMRZOLRGA2AkR/0TbM0Kk8FnKjRPWmzYf6nYqm39yBJRBoLfFda0uY+JnqMONdGzOoO1SBOiA+Ot4aE9EHIYI86JihIMp5TWvJmz8TLP/iKApgkkYO73vhRuPPNGnvOb9CJ2uDBH7g88L3gRRMftNlqOfm8qOLuly72TNVprPIXNBVSBgyMq9oU+Z8xXTtqM/RSB+jAiX+eQYgvQWwNH66It2SeUNmTl3xWU9FudTWZUICSrxw6sbxvX7RseNmfx9ZIfo+QzgesBfGR98XehKQfXL+qPA/tH9/hk7TBbnON518hU9LucvAlKLOcVSs8KYkfseE4Q7kbFe/uqQ5BGxg1Q+Pmvqy/EZs/Ybxkz1jaCkwgpvmiCY7psPdTLGdMkPKlaMxSAKy1IGTtwRl5XTO6i6ubJ2j4DhnZ+ux8iOuwHhPkT6DBIiiBhjHDulIEjqZFejeoLpucll7BLVsRQQTbKggfD7hMyp63tvdHCSkQXg9qc02eIaaewS9xYds01jgkEFgfhqJNmYGVSlMilTNcF0GPtwcoco/BIAB4C8y6W6Drrdyduc73Vb+PZt8pri2sMSAZoZSly07lGavbQKiOuJBGT9e16yMctkcW2ASwd1VjOeqiaY8+8pmAEIIfkXRASIEJgwMLZ/6usp5a6PkspcIf97VTUfKE2+8e9zEMDkMufDKRkT9sX0u/E5kKulfY5ZIFM44oJFax8AFS+CWn1L3mrXI6JCrQkcIAj4cVKZY4xa8eF+qQOBJItzniAI/6KzXdYWS0vRRkVG391SnhrS1UkwZrOAEUIhIMjSh/UFeGrRoE4QCvtYXKXGLQcmduk/KMGXclwm/BGIvTcnJcnietpUVvOtDoUnFI64v6nUeYfCPrRoXpUEYxo44V4E4VZQfEEdQ0w3RnZ+uuvCdz5NKrVfobhL3AElEUAa98joet/UHTrEiSjAJUo6I9lGBEQdviC1+KXfattUSTAE2mPNAaVkGgGVJAgRO0zlrqWJN5tjlPSF2w49AsZ7Jvekuv8EEYsRoEvoPWjNInbBiIj7W5NQKo/OG6VMN2834d7HegBgP1Dhggg6BHyo42MTPo/f9t14feYT8kydA19UgcAgc0Rc5pSBvcvs+Yb7p31GdX+NKvxqxglkbGwzyYonqY5gmNDhUsVR8eIACniJgZ3/bNesGVaacVrXJSNXkQE+L27y7DYgYLwn93emmROsCVnT3osQInKIXM5rgzr5iyL+rtNdU7vLb8g/C6ojGA/iBf6FoLQ0juqWlfOWWvvASqOjRfu9tziuNNyXuwERLwyZ/0EwFBElhuSWDn9cVR3BkPMq69+SR15WOhCvB13E/hSL6239zOfTvYjzbDUiQDOX3Ra+M8ZkOfq5LkK3AxE0d2c3MkGxWVdoYVEdwZBDUS34qupkAaETIP65a+rdpTTT8O+kMoemrn6qBldm55ItrhGmgRO+je0/qASR9SdyQZlNyqJeQDFSFsVtUErncxtKy1CUMaaTQW1IVSLi7YKg+67X5uohITXMjfmNQO9Sxz8ERKk7pPnXd6jx3FEdwdDJWeX3UaLCAnQJ7BgVFbkuxVLzmjErZyz0/ZN6u34qxE9Ol2LuHJto2uSaQQP0H0VE6BbJaSuUugUBVXfuqI5gPICVoawUmW1FA8JfjZlTV5qef/e93ht+UfdMhMxgqEF9ylbHoB7jluzAaJwN0kO0DFR3DkCAywlE1Z07qgNXQM8vAeKr6mII2C8iJvrH5HLnFBHC56BWNehnORcVGVUMEbpyRFDddO5Zrgbys7H2wujqQArKWUZ1BIONdT8xBnQOyhm2UrqxiwBCgSANCCvlQju2i4CDwzV8BvABmM2qO2+UJ5izatz+0nM1AOLTZyXznxwBjkBLCCBraGg8MbmlbCXTVUcwEhgnqo4+CYwR0QBfOAIcAS8IUIv/5b1Du37uRUyRbFUSzL7bL6gHYJp576giNceNcgQkBBi4WSPkSbtq3FRJMBJQ1u1L5lEr5kNpn28cAW0iIL/X7Hjjqoqh+t3yWwrMgmoJRhqwqi4q4K2YwOqVl2ofCLirXlms6nNEvQRDB4gjOfpd6iqto12+cgQ4AmcgwOjE8HhYtmv1nD1nJKtuV9UEI7VirLMW31bfKD7EgLlUhx53iCOgAAIMWYVzVf4f9wzWv6iAeb9MqptgpFC2md37h8Ytc3j2j6bRctXN80suqnPjXoUjAtRyOVRVOGdo9er8T7QQn/oJ5jSK9sG/24oeTzow2H86iX9xBNoVAoyxDcfqj13hKl5g00rgmiEYCVDrEMM269In+1QX5t8simyLlMY3jkBYI8DA09DoKaoqLuhnS9OPOjSixxEtxaspgjkJ7NrF9Y6S/PUV6fphHo84GoCpepDrpM/8gyMQEAJsPWtgF/881JDtLMrbFZAKhQvJRDChiWrP4LjXrPW/XEJNx02hscitcARCgwATxaetqfqbbcP11tBYlMeKpgnmJCQj+pywjb/uFkdh3m2MwQuA/BGDk7jwD80hwJi43+1mZseq/AG29Dil/9AtKPhpn2AkGL75pqG6pOBNW1rsuKqSvIHA4ICUzDeOgFYQYMBKD6+e169yiH7W6RkimjDSivct+xkeBHNGfM5V87482lh3kcggn2rIfUYW3+UIBAOB4OpgzM5Ez222VP2Q2sJ8TQ3g+gJE2BGMFPThYecdq0iLnVpVlDeAiayIWjSHpHS+cQTUgAAjJ0TGdrFGd96+FbOvsqUb3qSksFzDkmCaaspVXPCFLV2fbd2+6Hyq1LVN6fybI6AoAm42oyJN38821Djt+MtP/6SoLzIbD2uC+RU7s1n0FC/KoNbMM5TWSBtfOQJKILBPBHavbYh+jhLGlbDZPgiGkK0sMh+n1sxjHgaXM8Y2U5IWV+6zBhFgAI0M2Jy62tq+Fan6lzQYQsAutxuCaUJoT1rsD7Y0/fDq/2weISJuIbI53pTHvzkCwUSASOWgKIqFVSsLBtAg7owDNyfWBVO/FnS1O4JpqhTHtNEbKwZ1GXbseF0vxkCVrxts8pV/aw8B6o6vsb23uGdFetxY14t5O7QXQXA8brcE0wSf9GzHoZcLRtFM03tNafybI9AGBBpphmiRbeH0LOl1I23QExZF/SGYsAi4uSCOrcg7bE2LHWQvmnuZWNe4DBhraE6Op3EEWkHgSN3O7U/+8uKT59EM0eOw8bkTrci2myxOMGdUtb143jcVI+MfOs4ak4lkXqbBuTNy+S5H4FwEGIj1osgmWOGLxAMTR82uWbnYfq5U+03hBNNM3e9LT9hvTdPfw9xsVjPZPIkjcBIBGrvzNIqQWZGuXwKpqfyu8ZOo/PaDE8xv8fjNr4oherP0Ho76WvdUOphU97+/v3FW7T8QUc0u+uMbzTx+XlVUkHm4cHbiz+lx/AbOVsDjuMdADQAAEABJREFUBNMKOFKW9B6O/Tcb86tW5F1FXaawuKVb8BBdSsGFcGNMjAihOZlMsVpg4lTb0vsHOIvzSmpXL/xFJkNho5YTjI9V6Xq5wGFLjb2NiWI6Ec1hH4upUqyhEUI+iC0A06kSDF+dYvBl44mGi6xpcfmwdq3H12LtXU5egjGb5dWvQO3Z0uMsBwon93efYE/SdOQngKC5F5HXvjo/5H/LKwKG3GabDw8GNVS9b9oL8x6wPnzTDT8N73qwzTrVpkDmczSoBGDabL8s2VKTl1Lu+ijF4nKl3DjRk1Je00j7tSaLq9JU7lyQvMV5NZSXa7q5XF/y/P7K4frZNB05oLGx4TLGmLUtx03Iywpsb6ht0giMpk5O6kRajjbWJe5OjbvNXlKwAn748GioMQumvd5vOuJMpa7hpjJXIZ2PVabymnqTpcZz+hzdS+fnJvo9udd6pyGYdoNCML23OgaRg59jVMTXAkIuAA4AxFg4tUTQfidEvBBBmCRECp+lQP+DyVuPjIQwWH4akvCdq6hgJAOm2r/vPAdmD/x8TprMCSIw7bzrhMHr9jVzb5Ne+yEzLCFRn1zmekyn11WhDjeigFl0PsYjQAdEaDr/eyLiMESYFxUjHKRGwasJGz/rC0FYmgz4rarLH/4Qf+HGI0/0Ka95P0KnK0PE/n4oScDI6HdMlqOfm8qOLknIyL3Ij7KqE60qyf/R9t7ii+0r5/2Jedz/pqsfDdOozs2TDpFvhx3W7V+c/BHCD+fnn+wgUNTcCjh2zLF3UdWLs3pb02L/5lg+T9N/9GcYM+X6PmXOV0zbjv4kCLgYEXwbA0OIBoDR+uiLdknlDZk5d0HvQR0oLaBVCKjUq99EnVdQaonsED2fDprrAX9lQvB1QQYCIuuPAvtH3NipO00W5zgwa3jMxmwW7S/O/Y9tsPFOt8fTnwG87ysWoZVj/4SPPqoPrU2y9s02moGBl2lPbasHGFssut3nH7zt0sedK7X9fhbT5kPdUiw1K4zZ07YzQbgTGesVCOCI2EEqH5819eXklW8XBqJDKiNIH/5s3Tcf6pSS0HMdQ7jCn3KtyjIWgygsMw2cuDPuvscvbFVWA5k/DTHspBmngSITV6rKXQYnPCfE1Ur55GlsWEItKFEp+83ZZYxNtKbpJ1YMMWq6xSLFZnjVdj1GdtwNCPch0qeUGISNulV3ppS7/l8gqvxrwYye0LFLVMdSQBwaiDFvZQiUK+Lvmbmh90ZHb2+yWsivmL3kIRGYmQ7iOlX4y2BJ5U2GSqV8qRyW8D0CvKmU/TPtUp38wEQ2wpamf/bMdK3uJ1tcI4xdE96ic7Np7DNooVCdkS78P7Ixk3b8Wv0imMSHJy0AoAFckG9BxEt1HXS7k7c53+u28O3b5LMUAs3bzO6KVP0sx8rpPep2bM9hyA6EwGqzJhiDr6zPL/L7AGlWWRsSD5Y89Sj5oshrIsku8Qp+UfPFtgzb9sW/s6XrN7YhFOWLZpk7JC5eP55mhaw03rABAePldIpszOqxcP04f2z4TDCmUkdqR+jyiD/KA5VFgAiBCQNj+6e+Tk2zj5LKXH8IVJcaytlfeq7mwOOj5tkG6XuKIoyl8ZnaUPvlKMmbA2vNDaG2e7a9Y0ULDjlgf97Z6bL8PkMpkUulCJ5+trQuV/8y6c+rabxPVV21M1z1ZRdN5c4HUzIm7Iu5cuCz1Gox+VIoGDIxV90wN3HdgRhfdQm+CCZvtetR0K1GBPRFPrgyOIBGwT9OKrXfG1y9imhjFemxhcdPuO8EFsK7aRm8Zz9me0ORiJsx6llRvBaAhWxGiQGrdKzMH7knzfBlM+5oLinJ4pyHIDwPKG+LBZpZEDGhY6fOi5rJajbJO8GYzQIKQiEgnN+shhAkEquhTqcr6mNxlRq3HJgYn5V7cQjMymZi/3DjhiMr8s6rLi64i3lYicjgmBzGpJaS2+3OdZcsGg4qur1deuzil+I5/RkTXwDGZHkKmUjlkFt0F1QX5w+0zVrcx/5S/rdyYBwanaN1+syp6UmlzoWm8ppvdSgo/a+PD5hKnXf4ErtXgjENnHAvEcytviiTVwZ1DDHdGNn5aUNm7nemrU6lQW5TuNJJ5ijKW2MbrM901f+YTieavU0Kmyl8/FjDo5VDjAWVRWbVvXe4pmjBblta3DiPCM8243rbkhj71LFi7jWV6cZcR1H++0BjYW1TqGhpNFlWrOqalVOq0wmP08X2EkW9IeOIIKAOX0imng14WbwSDCl7zIsOZbJ1QoGp3LX0/NIaWQe2Ag7Oj4LVI6/+5HgD9KGr7v9RSzEYYwONjLGn9o9KKPHDDUVEncvyZpOv7wTDOLXYjpKuTGuafoD9pfn7gqFTSR0ppTV/pGP8E0TMUNKP5m1jF4yIuL/5vP+ltkowCfc+1gMA+4EKF0RiUcCHOujEvYmW/c/qM58I2UAXyLDsG66321L142ms4DpRFJeCKH5NA5N0zvhmjGRFQPZj3a73zYcL83vQ9Ks0Y+Rzed+sBF/KsXaei3y9hXzuS925pTQ2dcgfK0Qox2nbVFfvebLq+adoEFcvkarq424xxkHmiLjMKQOTLY7XmA7+g4DXtCircAYyNtabC60SjBgRdZk3BUrnIwgdY7DL+K5ZM6wmi2t9l4xcTbdoqlfnf1KRHveINT3uCmgUBxNxvN3agCgT2XdESLkN7hMXWAfp+x6YMHLW0ZL8atDYQj7/SN25R6xpsT08zHMlxSzdlNcs2RAm1NiDL6lbudRx3NafCOqmAyMMs13/XmDTWNi/cdd4T+7vTDMnWBOypr1HfZC/4m9yVfgD8Xed7pravTXPWicYpuvZWmG15SHiyG5ZOW/50jdUm+/N+WMbFmexpcX+xfrj7njPiYZrmQjZdHJNZqI4jnk8tzZ4Gi+1pet/R4RUsHdoV8XusWnO97akSbM91lT9BNv2RedLMVJr7nYi0YeppZLJQLyzvrHhd0REV1rT9I/YR1yl4cHb/6HUe4vjSuN9ue/SMayBO9n/53dElNgqR7RKMKSmC22aWqmCrgddxH7TNtfb+pnPp2vK+ZacffDqxj3DEz61pccWEeEssKXHvWAbbHjr58HxYXFytRQ2mM2iFCO15tYSiT5vS9OX2FLj/n1gWML3LZbRUobZLHRb+M4YGmf5TBeh2wEImiIXCWpkQqz03dLWKsFQZlRLBdWcLiB0QoZ/7pp6dylV3ivUognogS81x8h90zYCplLXcNPACd/G9h9UgoBXI31oMSIBxcjW/CYOaTmbmqS+PeLdsgrFc6je7qTR7u97ba4eorgz3AGOACFAY4V/p2nejYjYl35qevXGEa0SDAFQpenoTzuPAB2joiLXJZfVrDVm5YxNuHNy4uks/tUKAnFZOYOMmVMfj8vIedJ41nYyTcojmVZUyJClTZX6zJz+pk2uGdSi/g8KuFibUZzrtSBgqxzRKsF4ABV78vbcUNqcEi0I8Dc6YVbqH5y+L3mz/Z42awxTBb03V12cUu7amZA5tZwIeWFC9lSz8aztZFpWzkJJRpKVyoQpHG0OK7nMWdA1a+rnGI2zEfCPwKDV867NBkOo4ARiqxzRaqACesLybxkQAIUo3UqTxTkZXv1Gk+NMINNivGdyz4jIyE8AkKaKwccFr5TKSGV9LNAuxKTXjqSU16wVBGFKmAbcWHthdKu3RLRKMI4PvvqR+ljW8ASHricozEtJ6HkwcfH62Z2zc7uGZ5y+RyURhPH+aa/C/96n7HthKmMYO+1VSYfvhcJT0pA15fIki2OFroNuN0X4N9rCchUZ+z9ppq+14FolGLBuPMEAnmxNgebzEI0xVw6c0X1M7kHqHz8Hoyd0bDmm8M2RbksncqFpb2rCBxgmCvhH433Tvum91TUgQBWaLhafMe186i5+FJ857Ssd6u5DgAhNB9Sq86z2WGP9jFZFKFOgrdW1oarmTWBMe/9p02pU52Yigg4BH015eNZqKC8P4wMDzlkkcgEd2wyAbb/vCTE2Qgeb2xvJXLjpSA991uT1hGG7IFdqeLzmy78ueCWYfbdfUA/ACqC9LAh/NbH+u5JKne1iWvtklyZY5NJ0jJwmmZO6m9LC9Xv0aF2KxZkbGR31o4Dox7iVhgFhcII1gk8vDfNKMBIM1u1L5qEoLpT228NGrZlLdTphS0qpa118Rs5gGG0Oy4FgiQCoW/QqQBBaLnDWghgbzmMyncdM6haXkZtpenjFx4BCHgB2Bm0vvnnPxHrRUT+qYqheGl/yWsYngpEGcnanxz3BGIb8/3S8RiCngA5HGbKnbjU9PPHnuIwcVT5VHmj4UreIyKVNYy7ebIfrmEyvjb+M7p4980BCdm4RIl7tDYcwy19T8dfupb7G5BvBnNZmx/1hc4PQ6ZB8+kKE7vFZuetNFvuffCqgciGp5QIC2wSAbR9zAS8LnhqTOWnTi6jqs2lszmRx/T2yQ3QJHRM61fsbZAdp3IVVF81f4o9avwjGkXrxK/WN4kMM2F5/jISDLCImIkZ8YCpzfpW4cN39MMisyYFg6USnlsurAU1FB1qRRDJa7i5JrwBJXLJ+Zgr0P0DHwTMIGPA/HQYKoZLliFiAIVicq/L/6CjJ+8ofX/wiGFIs7h8at8wGO5JFBtvpd7tbURAuj+l/4wummRNspnLf3kuqFpBOdotoGhmku0khtIuX7lJonfHRmvHd6li6oCzsnp17MOb3A2dRsa60tbuViWypbVBsuvSuIn+D95dgTulPTXXbS/IygcH+Uwnt75OuZL0QhDWm8pr3E+6d2gNUvkgtl5PdImpNKOYq2ZamsE/6opgTvhlOKNrc39AhcjddUB6nEq0+MUz5YbsyxjZU/HvxpEADDIxgyJqzqKDSuvTJPtVFc0eJIttCSe1yRYDr9WNzPjdtrXrKeO+06wgESqJPFa3SCW0cOy203aKW4ieSUW13KeWmaGNG7t+Sy5yr4i4cUI4I3VoKI6zTGXgaPJ6iquKCfrY0/ShYbg74n0kDJpiTAK9dXO8onrehIl0/TGTi34CxipPp7eyDDsREjIiabrxvyoemclfw35LfBjx/7RYJgd+h2wbzzRZVY3cpcd2BGNPyNeuN2bnSs0PZACEYAAf1LdRieecEE/v+PNiQ7SzK29VWD9tGMGdYr0iLe916/JffAYgbz0jWwm5QfUTpbmCLa3Ov0mrCIqiq/VYmtVwU7xa15DWqZ3Yp2eK6O6Zz5x8QcXBL7raHdCaKT1OL5Za96XFBe7dx0AjmZAWM6HPC+uif/lJVmHebxwPLAcP/EYOTcZ/9gTg0KiLy6+RSx2pD1pTLz84OxW+JXEI+W+RvYEQyinWXRpujDJlTRiaX1ZQJiC+R662+W5byw3JlDPa53czsKJxzrS09LuCxlpbACS7BSFa++abBWVLw5p7BsQ9Wrcgb2G4HghkIgk53r/Tgm8lS8zqMM8dI8IRi+7VbpMBskb/xIXXdQv2AZG6tPbUAABAASURBVFxWTm/TIxN+iM+atl4QIM1fn8NHnm09vDr/qsoh+lnVJfM/lSOu4BPMGV46X5z35dHGur5MZHNpLv34GVntahcRbku6a0JuKIKWWi6q7Ra1BACGtrsUf2/uEurK9m7JnXBKbzYWxmzAPH+xpuqH1hbmH2lWJkiJshKM5KP0xKUtXT+9unhmj2M7t0+jFk2z/3UjyYbzpmMwJcniela6aUuuOCVyUc1skb9BEsnI3V0yZk0eYCqvKUcd3uKve1qXpws8DY+ynbU7tmVbl97f15pmeDsUMclOME1BOIuWOA9OHJVn3b7ofMbEByn9GG3tZ0WM1CGO756V84kc75z5tVtEXY5gg0r9dFH0eB472lDXWdqkfSkt2Hbk7C4ljJ3e15Ax/UMEGATtbGEMfwYmXm1N11916PE/F8HatZ5QQRAygvk1ILNZtKXFLacm2t2U1khb+1oRTYZOHYN6BZXIRbZuEWM1DMShFYMNz0itUWmT9qU0oLygVx61ZKSb8YL9PpnOd0/MpK5q6I/3oAPkn0IGbK+9MH8knXNf+FcyONKKAU5NtHc8DC4nANrdtHZ8Zs5twak+AKlbJCO5nHB7YFhFWlzZ2f5KaVIekcyJs/Oafgf8fZpkTsYWsJLfFtQJuqBh/lvN6vzFABqpbmbX1x672LE6779KeakYwUgB70mL/cGWqh9R/Z/NIxhjm4ls2sVAMGNwS6+tv1wvYdCWTToBpXELWR5cZOxE3RfvZ9EMw8ct+SjlSTJ0IMtCMlJsUowt2fc13VTmXIhh8B9EvsRL59FB8IirqgvzrrWm6Z88cHNiwHfh+mLPm4yiBNPknGPa6I22NP1wYtsL6OT7vCk9XL8RISoyIvplWPZ5wM+4SH8TIk3vogxjLkQYNdQ6GXTgiVFrvNWBJCPJSmW8yfqbL8UmxSjF6m/ZJvlkizMdBUF6nqgpKWy/RcZesW1f3NM6OO4+Z0nBTjUEKqjBiSYfiG2rDr1cMIpmmt5rSgvXbwS8ICnlouGBxhcRFfmKXC0XIoxhUuvEV98kWakMkYwsLZmTsfrqzFlyhPMDZyWF308GDQzEhRULpmeD2SyqKUBVEYwEzLEVeYetabGD7CvyLxWPNy6jg7ZBSvd304K8gCyH/ETa/FrjsnIGAWDw3//qQ7cIWlgkkpGtu0Sxnoq5BeMtJMdvPnAxtRb/0kK29pMZHKnbuf3JX156soctNe4J2Phc8Am+jSipjmCa4rG/lP9txU3xDx1njckA7EXWlBFG34h4XfIWV4q/IQlM6O9vGa/yNCNErRCfukUt6ZKzuxRIzIbITncBYDSE2UKtlXoaa/mHFb9IPDBx1OyalYvtag1RtQTTBNi+9IT91lT9GOZms5rSwumbCez3/sYjMjGoL5hmdMSKwG6TWiH++nK2vKRD0iXpPDuvLb8DiZkhXtEWm2osS7h6Gj2QQWOWz0JqqluNPp7pk+oJpsnZiiF6c9XquVfW17qnUmvmfRqnEZvytPwtCEI/f/0PdqUx0TNRmnb214+W5CVdks6W8gNJDyhmxq4KxJbqyjCRWiziv6uKCjIPF85O/Hlw3Guq87EFhwKqtxZ0yZ7sXDXvy/03G/NtqbED3aL4iOwGQ2MgITRmWrZyzHNiRcu5geXIoTMATxTHNgCfzyrCaqvc9TfZ0uLudBbnldSuXvjLWQKq/qkpgjkTSXtRQRk1FzUF9pn+/7qPLCz/c+nX+BTcoTEu7WPL4D/4wpI2v/hJqWrQFMH0zjJ3MI6ZMizJcvSZrvflfowI2n+lIWOyPs3qy4HVSRd9vy9y/sjIodMf+5IsDYQqjq3kR5s2xKHGh6fu6LWlarJhzNTL2qRLgcKaIRj9yi1XR2RO3GscO22TDtnfETBeAbzkMGn1V2mwB59Q0C2SbkjzyQ8fhCRdkk4fRH0WCShmRL+x9dmhEAoiYnJUZNS8+LE5X5ssrg8T7pycGELzbTKlCYLpbXHc2DVpwDqKNAz61BTFGavI0O/mr4BC7Rkq2ryLCIIA+EYwHjCUdEi6JJ0QxCWgmBnzG9sguiyLKkS8Tj9uxrreG345TxYDQVYqBFlf8NSNGxfZY+H6cSnlNf+NQN02QNAEoP4AQGNIFXueWrzDnzKSrIhi8J+MPfWA4bbEBevvlGwEskllI3RAdYWxEOQlkJhpavs1FmQ/1KAOkV0VERNdmVLu2mJ4+o1RavCpJR9USTBJpa57U+5cuKdT/4HLyPFLaQvLlQ6URbDN7Pe9DM6igm0ALPhXZ8TomP43FEmtEH8Bl8pIZYF0+FvWuzzbdSpm75JnSuxJN2xHYC0+rHmmrPb2pRsIcUj8VYPXmcpdW02b7aocn1EdwSSXu57U6XA1IJx/TqWHV0Kju+7E64GG5G5ovAsYqwm0fIvliCCoFbJZIowWZc7KkGSlMkBlz8pq+0+K8WSsAWqiVuIrARbVTDEEHAyREbsu3Or8q9qcVgXBdMh6rHfvLfa8ZItrJ4FlVhtIwfaHDnoQRXiwcmS3gF8fWjks4Xv7yrmXMpF9FGz/iChiiTB86i7J2S2iVtpHUoxSrIHGaFu6+HkGLOzfOYQIukgdvtJnm2uDoey7R/WXX28AFSyKE4ypzHFrz8xZOyIiI3IFxCtRBaDI7YKA7LOK9NjCttqxvzR/n2PV3NvlaslIXR6pddKSn1KeJEOEJMPzPuyofcXc26UYW7LvU/pac4Oj3n0nIAS/teeTAyEUQoxkDEfEC+c/l/DMho9Mm/x/zi3Y3ipGMJ3HTOpmKq+xoKB7AwBVwbYQoqX+hCfgrtHZLkonoNsDw+QiGWrJbE62ONPPtiulSXmA0ljA2blt/c2OggeHSbG1VZNU3j4ivgZEtl7aV+8WXM8QsS9G4TcmS808GG1W7IZDRQgmcd2BhPOyZ6yj1kpqcGFVvzbGwHP01flrg+mp9IAhiDhcJpKJRRC2JJc6/tF986FO0ibtS2lELkGfLZJicLthqHVwbFC7ftUl89dAe1sQohBhcvLDjxdS6HS60WeIVyGU9oyLXh5uKne927Fzp710cP4hlLbVYAsZfFBVOGeAa1VBRbD9kU5IabxCjjEZOkgFQadb0iUqplbapH0pLdgx0FjJqTGXIfqgz/w4iuaud58QH2YAh4Ptt9r1UZf8bpPFtS/F4lwZl/XElaH0NyQEk1xac1FKuWudsd+ojQh4E20dQhmkOmyxrbvTYm9wrZ4v2ytBpS6FbGMycoNIs0WOYIy5tOwnqxwe97zH6bmYWpGVLYuFZw4iJgIKY+Mzpn+abHHN7Pnq3o6hiFRegrlpfLT0wmVBB/8FQFXfEASyLuxo9ap5E2U1cVq5RDL+j8mcLqzUF5GL5LPku9wuVN5qcDo8tZPktqNW/UgDwQLirOiE2O9N5c475PZTFoIxjJnSy1C46SHTpKc+w1MvXI6UOxA16qcr5VdVRXMzq/+Vd0Eo/zpCGpORq7sUdJxpml3yVfI56LpbUGgfkvi6c/X8ixvdbAbV0f4WxMI6mYimF4KwhrpOpQmZuX/uPmZSJ5BhCTrBJJU674sfO+2n+N7XLSVyuVwGn9WvUnoJsyg+bVu66Bpn8bwSx9p5rlA7LbUGVN9dopaLnabZJV9DjU/Vqjk//DREP+fQCwX9aVymPNT21WKPiCY9Liv37S7ZMw4Y1v98Q7D9ChrB0MxQTIrFNUvQCUuD7aSm9CH7kTWwS23pcZNgrVnRF5ZLJ67U9ZBmZlSHIZGLNPMl+aikb8deyTtsS41N83jE0QDMoaQvitpGjDV20r+ZVFZzczD9aDPBSI+OJy5alx/TpfNBmhmaiQB+doeCGY5CuhhrpBmQjdXi/vFHxo8cYBuuV81rAqSuh9QFkWN2KWC0T3eLpJmvgHUEueCewXGv7St+8ip3ozsfEb6iVk2QLahfHQLG6wR4hxoK1sTF68dDlrnNkzFCwGEPMkeYyl3P6R+cvi+m3405wCA2YF0aLsgY0MWP3W1L1Y9wpF/yf66vP1DdVVBqJaimu0QtF6W6Rd4Os+NFSyorhxqn7h4U+3vG2JPe5MM2H9EUc+XAZ1MyJuxLtjja9Je7ARNM8owJ04jxHkUAWqFdLtRqKUVo/L109VM7ABLJKN5dInIBEYdLvqgdr4o0/WwimUy6cB5Qu6+y+YcYL6Du9Qs3Vt0aqA2/CSZ+TO61KWWudajDmYEa1XY5dqKuoX6pozj/Eluqfog1Lf4brcSjaHdJhd0ib/VmS9OXWNdM6n1kVV66x8Pe9ibfTH5YJEV2jH7RtNW5oEtGrt9vkfSLYAwZU6+IG5v7EQg4Chn4VVbrSEt9crqiFbvrTvQ+MKz7I9VF+d9rMSap9RDy7hK1XNTaLfJah8uXN7pWF1j2DNb/BdyeVGrRfOm1TLgJMBaDEcKkbtk5O433jPdrKMQvkjBkTnkCoZ12idxsBl3RstryigVQySKRTMi6S0QuWukWease6xDDNuv2RVfRheZVb7LhmI+AF3TJmPmgP7H5TDA9tx65W0CQ/c4/f5yXW5Yhq2hobJhSXTz3CtsQ/Ry57YVSf0i6SxrsFnmtA7NZtM2+5R57cd5NoojPAGN2r2XCSCAiOmqSfmxOsq8h+UQwSaX2G6Ijol8ExPY0Bb3W/s+8q34emjDfUTTva18BVZGcV1ekloxs3SVquWi2W+QNuW3b3Paigk0V6V0e+6VkzgBq0fzgrUi45CPDbgn35m6Ed3dH+xKTTwSj0+meRQBaIewXmhk6KLrdN1hTY29X4g7cUAMskUzQu0tELpJOSXeo4wm1vZqiBbttu3dfLjI2kYjmeKjtK2EPES8yRXcf74ttrwSTXOq6BgBD+og3KLQwBr9UVXzy54ohxg8UckERs1J3SSIEau63/a1vp8lF0qlIMEoYffDqRprWXtzQ6M6iY0hUwoWQ20T2gC82vREMosAW+KJIyzLMwzbYi/KG2RZM6+W6b6hsr1NQM0YSIbT1jl/pbmFJh6RLzbHK5dveYfH/PvRyQaKjuCCbWjNfyGVHDXqlVkxy2dGHvPnSKsHoM59IJoa50ZuSZvK1kvSdRxSH2QbrR9mLC7bAxudOaMVxOfyUujQBj8lQy0UqK+mQwzet6Dy2Iu9wdVFekW324gFEuDOoVXhMK77766cgsKe8lRFaE9AJUd1by9dyngjim1b44oo96XFbtBxHsH2XCMLd2Hgt+PW/S2yXVEYqG2x/NKtvm9ltS9fPOc4a+1IM4XrvTELX0ebOFF+La6sEw5i7d4slNZghMtgjejz/rC7OH1kx6y+3Q2qqW4NhyO5y5bCE762p+n5VxXmp9qKCSVWFeWb7WdvJNCmPZCRZqYzsjmnQwL70hP3WnCED7cX545gIbzGAoxoMo0WX3R0aWuWIVgkGmNCzRc0ay2AgPl+RFptcMdjwqKMo/13Yto2Ti5c6dBYVbLMX5z3tLCmYZT9rO5km5ZGMFzVhl+13QJ98UmO9hEVZAAAQAElEQVQvyn/Blh57a82R44k0ELzNbx0qLYA6sVWOaJ1gEJlK4/LDLVYLTJxm+9cDj/pRiItyBGRB4Mjt3WqrVuTdRifWW7IYCLVSD9FlKzZbJRgUPQ2tlFV71r7ane9Pdv1rcQ9rWlwerF3rUbvD3L/2gYDr5QKHLTX21iOr5ifXN1QvAcbqtBo5Aja25nurBMME1N6sCoMaj4eNsabG9jo0ceSCI2vNta0BoLU86c2BMHpCSN4Irypsli0Lu7vIXavn7Nk/LGlCQx3rSdPazwKC5u6hYRG6Vm8ubJ1gRHZQVQeZF2eo2Xn8hKfx9j2D9S+SKP2kTy2vo81RyRbXCFOZc2FKmetbU3lNXUznzsdSHp511GRx/ZRicX2cZHFOvWDLkUQth9mc76bN9suSLTV5KeWujyhOV8pFdzWklNc00n6tyeL6gLa/J29xXg1mc6vHcHO61Zb286g4hy1N/w+3x/O42nzz5o8HPYdak2m1ckQRNfGuE2L/D2i24w77K3PP2zskfnNrAas9r8sf/hBvzMy9L9niXJXyyIT9AuIGlP6ZQcBLEOBUywVBh4i9APFaHQpzoyOj99PJd4ROuo1d57+TBePMMaC1Zdy4yO4LN9xvKne9S3Hsx6iIrwWEXAAcQHE2vSIggvY7Uex/ou0ZIVL4LOWGCd8nl9rzDFnTboY//vEUPqDNpTLdsMRZmN+3qrr6MTqmVf98E42+HHQdtf3UGtqtEkzNiwU26h+q+WnRIzQ79BCxP00D5r3qWB76t/e3Bq6/eSllzqu6zSv9wpiVu0JAIRsAE8D3JYFOuuH6awYVptw1sdJU5rjV96LKSqZYav5sunPB7i79b3gBAW+iOHxvkQnYR9BF5MZnTnknZe6mrclb7Xplo2mb9aqS/B+df0t6prbwqf7UBF9BJ7Fqu00M2BvgZWyzVYIhqCg+tpK+1bcy9qHodvexpcYtI+eoLuhTo6v0nzTU/XmBofAZAlwYhDC6oqB7I3Gz/H+s1VZfjev3jQaEt4lU2h434p+EiAiryeIcR34RlPSp0fXw6oXHbKmxD1C36Wo6uFttJSgVIgPxBW+2vREMOFbOmEOtmF2SIqU3ajZWkS8vVRfl3WudNnxIxRCjS2mf2mI/NuuJPnGv7flH5+wZX9DZcD8ieK0P8GPpGIkvXFhaM1GVXabREzpesLXqYWNMl+f9CMkX0QREYZnJ4tpuzMj9W1zWY3G+FFKrzE9DDDsPTxx5TWNd/WQimm10DjSqwlfGZu9JM3zpzRevB7T9pedq3G4xm5oyijbVaLr9bdvu3YnWNP29juKCl+Cjj+q9BafW/M7ZuV1p8HJLt8wZPybExy9BROl28qC7S3q7ROrgadOdEz8FGjAOuoFAFdLAbMrD5vLoiKh/AaIxUDWtlaPYrzdm566Nz5x90FTmmgM0xtOavJrzane+f+Snkd0XUIsm9fhxdzITxa+V9Je44Cs6D5/0xQevBCMpqRxqkFowBdJ+qDcKRqRt+Z41i++GB69WB3u3AYRe652G8zJz3gLAIRCiBREuje94fGSIzHk1o9/TkErEcq1XwSAIUMuwAwo4zXTHguWkjn7Sp4bX/SPi9zleXDCSAVPmqX8GHuq2ZfkKoU8EIymzbV80QxTFjdJ+KDYC0Hls1wdzpcffbWmxD8Jys2ZvRpLwMs5bPYRaLeuiYnAfMLxOSgvlFpeZMyth7OQuobTZrK3x46PjM6bMbTZPxkQimayU8pqfTZaa5YaMSVecY0pDCfbCuXttqfprqooL+jV4WBHQSR8q9+t2vb9I6rb5as9nggGzWaxaPfcfDKDVG2t8NdyiHGMNDMTpnkp7j4MTRkyXHn9vUVYDGRdudibRAO4bxj/csgUAR9GVW5EpZBSEy/X3THsKFF5Mt86ZLAgYktZLM6H2pNbcA/FjZ3yWYnHm+vrax2b0qCLJWZS36+fB+uwTTOxLrXzZ/1aFbHx14PvPzP4E7zvBkNaaogW7RdEzjAZa2/7mM9J39krkxdwojqOZobmV2UnyEtnZxmX43XND9fDISOE7aperY8pYwHGmzYe6yRCqTyq7bz7UCRH/7pOwnEIMowCFvJQO3b6Nz8q9WE5TodC9Nz3ORq38vzBRfFoue0QuH3pcnhv97Un4RTCS83vSDdsbPeIgkUFwX6TD2KceN7uuMtVQLNnR+IbUasmMjol8FRB8ejlyKOIlouuIUTETQmGrORudIjpKr1lMaC5PkTTEZH1G7rtJpXZNd5masLOlxz3BRDaeGgBBvXeNdO4+UeUaUnmrwdlky9dvwVfBM+WkPlh1cd6NjOErNG3mt9EmXVT2uIjidten742mUelrtf6qRWmMI3HxusmmcudeOpmLaPNtzKMJkFB8IzwC/fuHvpvWv38kCmxSKEL0x4aAkCQIETv7lLs+7bH43XtoKCCgc8IfmzLKMlu6/v+sS8096758j4Yz2A/UKwjcHLIfPW5x4f6Xpw7Zd/sF9YEoChhMV3HBF7a0LnfXHzt2PhGF360OD2P/dh1t6FYxKO7GI1Nufi0Q51VTZpA5gqZCp8fdO+1gzJU3zkMQzge1LgxijZcO/X2o3Yu7fNilqFJckBxjgNd0uvL6F1NunPhNisU1DLS8rF1cf+Cxm5+1peov9jQ0XEK9jU/8DKeRieJ06yB93z1D4p44vvKfP/lZ/lfxgAmmScOBmxPrbGn6LHejpx8T2TPAoMWHnxjlMWDPi8zz1z1p+ruqbukaFm/3Ms187F80S/EUIHZqwkXN30wQk0LtH4qs1RcThdqfVuxdTPW4iS4Y41uR0UyW9KbBijWL0kSRTaBz83XaWjznGGM/0jn897ra2kTqbs0NRpBtJpgmJyqHGnZR8+wxa1ps4qGS/G72ormXHVk15xqaebqyelXB5dK7L2xL7+tJrPpwRZrhDSrHaNPmSs19Q+aUkckW579SLDWViII0tqCZWBgIIR/oRQF6aAYgchQRl5gsrg/P32qfFpeR04+StLsuN9dVpOuX0Ln5N+u4O7o6ivMvqS6ee4U0zX2EztEjRU+l2FdM01NDoS+dw89Ro6EqWMEKECxN/9PDagvzj9iL533jWj3/c+eqeV86Vuf9V3r3hbcHo/6nQsV7yz6PTFpgWRufNW29gMLDgND2Z2hCHK6QlWEIsUlgotg11DbbZA9BIJK5rmNExJyE7Kk7TBZnUK7ooPRi3Xiiuij/e0fRvK+laW7pHHUVL7BJd+zL4VrQWjByOKc2nckW1whTnz5f6xBvUZtv/vhj8HQL/SCvoL2XKZ2JKaIw1WRx/Tt5q73Xmel8v3UEOMG0jg/0zjJ3MI6ZMowOrg10SdtAVzVZnhvy4kZQs0Um0ARXUFV6VYZMcHsVUrkA1f3tGBFhTSp1vGAYM/UylburCvc4wbRSDfqVW66OyJz4s3HstE10cI1oRZRneUOAKdGC8eaU//nEzJE6ne7++LE5X9NF58OEOycn+q+l/ZTgBNNCXfe2OG7smjRgHWVra+yAHOZraBCgi851+nEz1vXe8Mt5obGoPSucYM6ss3HjInssXD8upbzmvxGo2wYI/MA5Ex++fw4CiOyqiJjoypRy1xbD/DdGnSPQzhM4wZw+AJLLXfek3LlwT6f+A5dR0qW08ZUj4CMCGA2AQ+KvGbzOVO7ammKp5scPnFo4wRAONDs0UwB8kVosQbwDlxTztd0hgICDGUR+eeFWx23tLvhmAhaaSWsXSR2yHuvde4s9j8hlJ/WlZ7WLoHmQIUEAEXSROmFNn22uDYay7x7VX359yO87ApUs7ZJgTGWOW3tmztoRERmRKyBeiSqpDO5GGCGAGMkYjogXzn+u6zPv/se0yZUSRtH5HEq7IpjkrfbLTeU1FhR0bwBgu72qAF9CiwDCxRiF35gsNfMS3j7SJbTGZbHms9J2QzC9Nv4yGnURO6m1kuozOlyQIxAsBBCiEGGyvkv0bs0/2+QHJoIfspoTlfq+8du+G08j++9Gdoh+mSpYp7kguMNhhQAdg93js3LfS7E4Vxozc/4KKTfRDFRYhfibYMKWYJJLay7q+tyGjw3s/GdR+rdAwIjfRM5/cAQUQgARuwAKY41ZU19LXr7mnZ6v7tX0X962BmP4EcxN46NNZc6Fgg7+Cwwvai14nqdJBMLKaQFxaHRC7PemcucdYRXY6WDChmAMY6b0MhRuesg06anPUBAep/giaeMrR0D1CCBiLwRhjcniKk3IzP1z9zGTNPHiMvBhCQuCSSp13hc/dtpP8b2vW0rkcrkPcXMRjoDqECCiSY/Lyn27S/aMA4b1P9+gOgcDcEjTBJO47kBMisU1S9AJSwOInRfhCKgTAcRYYyf9m0llNTer00HfvdIkwUiPyCcuWpcf06XzQUCciQCh6g75jiyX5Ai0AQEEjNcJ8A5dQK2Ji9ePhyxzhzaoU6yooJjlAAz3LtzTwVTuek7/4PR9Mf1uzAEGsQGo4UU4AtpBANEUc+XAZ1MyJuxLtmjv+SbNEEznMZO66XrHf0bM/igC0Ap84Qi0HwQQ4wXUvW6y1CyDceM002LXBMHEj8m99rzsGe8Rq1zWfo4oHilH4FwEEGGc6c4F73a56/Gg/0PmudbanqJ6gkkpc42JG5v7ESBe3PZwuQaOgPYRQMTB3cbN3GHaXH2B2qNRNcEkZOReBAKuopYLrWqHkvvHEQgdAgh4AURGbE282RwTOqv+W1I1wXTOeGI2hcRv8ScQ+MoROBsBasn0ZalXP3Z2upp+q5ZgksocAyN0EWF5+7SaDgC1+ML9CAyBmH43TIR3d0cHVlr+UqolGB3qnpU/fG6BI6BtBKirFG+K7j5erVGokmBMZc4HAOH3agWN+8URUBUCyHKM90zuqSqfTjujPoIZPVpHfcuC0/7xL44AR8ALAnS+xBvumz7Di5gi2aojmNhoUxIgGkOJRohtfQfIGkJsk5uTEGAQtrgjsL9KIaptUx3BRETquqkNpGD4w0CsF0U2wQpfXAEingiGTq7DPwQI/+uBsZeZf8W0IY0YnzB2che1Oas6gmHM3VttILXFH5HBHtHj+efhFfOurkjXL4HUVHdb9PGygSPQKDbst6bp76kuzktlIrxFRHM0cG3qK+kRUXXnjuoIBpigysGqQA4narU8X5EWm1wx2PBo7Uv53waig5cJPgLOooJttvTYW2uOHE9kDLZBuCwinHvuKByb+ggGkS4sCqPSZvOsFpg4zfavBx5tsyquQDYEjtzerbZqRd5tdMC9JZuRECqmM0cMoTmfTKmOYGiwqtEnz9UptK925/uTXf9a3MOaFpcHa9d61Okm96oJAdfLBQ5bauytR1bNT65vqF4CjNU15WntGwFVd+6ojmAYsONaq1hgUOPxsDHW1NhehyaOXHBkrblWczG0c4ddq+fs2T8saUJDHevJGHsWEFTXGvBWRaKgvskDFRIMHvIGpJryqXl9/ISn8fY9g/Uv91+M9wAACbdJREFUkl/0kz75egoBDX7+PCrOYUvT/8Pt8TyuNfdFHTuoNp9VRzCim/1XbSCd4w+DWpryLLIXFdxRXTyzx94h8ZvPkeEJmkagMt2w5HBhft+qYzUTRIZbqOuk6tk/Gqw+6Dpq+0ltoKuOYGpeLLBRZdrVBtQZ/hw5sufjVJpyzrYX573qLFriPCOP74YRAkdL8n90juq5pCKtyzAmesbQSazabhMNLbyhxjE/1REMHZ9Uj2wlfattpQFbtkR0u/u47hv6udqc4/7Ii4BtsHGN2+O5mvrA78trKTDtDMQXAispbyk1Egw4Vs6YQ62YXW0KPUiFacCvinx5ybEq/0/WVP2EiiFGV5BUczUaQ+CnIYadNOM0sO7TsluJaLbRsdGoihAYm70nzfClKnw5ywlVEoz9pedq3G4xW2rKnOVvSH96GHvbtnt3ojVNf2/16vxPQmqcG1MtAgem3PoWEU3q8ePuZCaKXyvpKJ0jh+n4fFJJH1qzrUqCkRyuHGrYRVOFH0j7od6o0kTalu9Zs/huePBqdVylQg0Ct+cVgf0j4vc5XlwwkgFTrMssiuLrXh1VUEC1BCNhYt+1MReAhezBQDpQnMd2fTD30MsFiba02AdhuVmzN11J+PFNfgTshXP32lL111QVF/Rr8LAiYEBjdXLbPaWfumjWQxP/kn/qlzo/VU0wjgl3fCgykG7llvfmO8YaGIjTPZX2HgcnjJh+bEXeYXVWF/dKrQg4i/J2/TxYn32CiX2p9fu23H6Sja+OHa+7rv6rbfvkttUW/aomGCmwijT9u6LoGQZMnpYMoyaSG8VxttS4uZXZSfISmRQQ38Iagb3pcTZq/f6FieLTcgXKGP7scXluPDSixxG5bARLr+oJRgp0T7phu0eEf0r7Qd0Y+9TjZtdVphqKg6qXK2v3CNjS455gIhtPF8ag39PlqaufWXmrQRP3X2mCYKSjdc9Dd06tLp57l8jwFep7BgwulT0uorjd9el7o2n0/drKIfqPJf188xUBLucjAsyWrv8/61Jzz7ov3/sHA/YDtZZ9LHqumFTe4xYXVK+ae0PlqG4l50qoM0UzBAPWjSccRfPWVKR1ubv+2LHziSj8anWQvFMU2QTX0YZuFYPibjwy5ebX1Fkl3KuwQmDt4voDj938LA0EX+xpaLiEMVhOROP2OUbpNZ/Sqz9S9RfvGRI32bF6njSzSip81qCooHYI5gyYDtycWGdL02d5mOdKGkJZQpXW7AOSlE7ED19SM3Wp47jtTxXp+iVVt3QNq7eYnQEL31U5ApXDEr630eyku6FhGLn6Gs04HaDvZle6IP5AXay/14uQePLVH81KqT9RkwTTBKt096J0dy1VWuKhkvxu9hX5lx5ZNeeaqtVzr7QXzb3slxdmdbOmxV5pTdM/Yh9x1bdN5fg3R0BJBH4almCxpsZSFz32fEfhvJ7U9b9CmuaWjt0jRU+lOFfPibWl6S+mLtZz+wfHVivpa1tta4xgWgyX1RbmH7G/lP+ta/X8z52r5n1pL573zdFXnq5qsQTP4AioAIHqkrn7qev/tTTNLR27ruIFtqpV84+qwLWguBAuBBMUMLgSjgBHILgIcIIJLp5cG0eAI3AGApxgzgCD73IEFEQgLE1zggnLauVBcQTUgQAnGHXUA/eCIxCWCHCCCctq5UFxBNSBACcYddSD0l5w+xwBWRDgBCMLrFwpR4AjICHACUZCgW8cAY6ALAhwgpEFVq6UI8ARkBBQA8FIfvCNI8ARCEMEOMGEYaXykDgCakGAE4xaaoL7wREIQwQ4wYRhpfKQ1INAe/eEE4wCRwBDpujLxY+7q0P2VzBN8DIUQ26zybb0zRhAff0PYfMaBCkmLWycYJSoJQZBfxG0P2GceGVV6O0jKPviJISjVbdczwnGnwMlCLKcYIIAov8qUOEDXQy9fVGo9R+nIJZgTFn7QQxFS6o4wShRW0zcGwqzLdlgjIXcPhOVjRkBQh5zS/i3p3ROMArUtv249VMFzP5q0g1CyO07Uzp+DYyFvmt2OmrGhE9O7/KvECLACSaEYDeZYmtf/75pX4Hv746W5Id+PMRsFhnABgXiPWnSWZL/w8kd/hFSBDjBhBTuU8bcWPshdVNCfpLTCd7o9nimnvIi9J8O2DdPqbgbkJWFPmJuUTaC4dC2jEBt4XNHGIjjWpaQJ4fGIZ6uHGx4Sx7t3rXa0y79Rqm4jxblK9lq9A5OmEpwglGoYivSDG8AsI9DZp6xOtHtLgiZvRYMnYob9rWQHfxkxqrVEHfwA9OGRk4wCtaTfcXc0UQy60PhQt3O95+uGGJ0hcKWNxv1O96f400mGPkisF1HCucOV0vcwYhJazo4wShYY/aX5u+zpupvZgw+l9MNGvf4z4GPi2fJacMf3fsfH7mMYl7mTxl/ZSnmvRX1vwyQ/szM37Je5bmAzwhwgvEZKvkEqx3V/5RNO2MVonj8Nli71iObjQAU23b/OJ4BKw2gqE9FRLHxeRjRR9HHE3xyNMyFOMGooIKdf00qdhbl30In3Ca6stNkT3CcOlZXt8y6ZvHlewZ3PxwcjUHU8uDVjbZ/3T+8bsf2pyhmMViaGeIOu91+/54pwxYESyfXEzgCnGACxy6YJVlVcf47tlT9TSiK89uqmBjqIBMh++DI8x6C5ea6tuqTrTy1qg48PmomejzpRDJftdWOKMKLtkFd+tv/2nslfPFFY1v18fJtR4ATTNsxDKoG6+C4XBo/yKTt52YVe0lkIG6sr61NsaXHFnkRVU22dYhhm237on5MZIH5zFgNxT294t+TxqomKO7ISQQ4wZyEQVUfzJamL/H8ZO9LJ81CBuD11Q509Rdp+5C2yfWLlvztwM2J6m21tAS12Szanlr8gAfE+4lcNzAf4xYZrKw7dsxkS42bC8uX81ZLS/gqlM4JRiHgvZmtzE46TifNE7ZXJsU6Vs35XVVh3m32wrwH7EUFE6uL83OrC+c+VF08956qVfmDagtnx9rSYq+nbcGBdSruEnkLepvZvSc1bqUtTT9KittemH9ddXHBXXaKu7owL8delP+EFLe9MH90VWHeVVLcFWmx9xOhVnlTzfOVQYATjDK4+26VrsrVq+d/5ywpeNNeUrDCXpy32FGUX+AombfMUTTvZefq/PcOr154zHeFGpGkuO0l+R85ivLWSHE7Sgrm2YvzFzoobkp/jfDYGZZxa6R6fHXTP4LxVSuX4whwBDgChAAnGAKBrxwBjoA8CHCCkQdXrpUjwBEgBDjBEAh85QgAcAzkQIATjByocp0cAY7ASQQ4wZyEgX9wBDgCciDw/wEAAP//FiOeawAAAAZJREFUAwD1ShW3GGdF1gAAAABJRU5ErkJggg==;" vertex="1" parent="g8OfchhErnNZp_5HsY3C-3">
          <mxGeometry x="575" y="130" width="90" height="90" as="geometry" />
        </mxCell>
        <mxCell id="g8OfchhErnNZp_5HsY3C-24" value="" style="shape=image;imageAspect=0;aspect=fixed;verticalLabelPosition=bottom;verticalAlign=top;image=data:image/png,iVBORw0KGgoAAAANSUhEUgAAArwAAAK8CAYAAAANumxDAAAQAElEQVR4Aey9eZRd1X3n+zv3llSakKoQgwdsDXGHR7AB2S8GOc+ASCwnef1sATbuXm81SPTrvPVeEgPuJG1n2a2SHQ+r3bFFP9Zykj8s4XRsJ40RSbdDAraE06ttgRMjSCDx0FExCAczqIRQSTXcu9/5napTunXrDufee4a99/mcdfcdztln79/v8zugr7Z+e++KcEAAAhCAAAQgAAEIQMBjAghej4OLaxCAQC8EqAsBCEAAAr4SQPD6Gln8ggAEIAABCEAAAv0Q8PAeBK+HQcUlCEAAAhCAAAQgAIGzBBC8Z1nwDQIQSE6AmhCAAAQgAAFnCPQkeJ/92Y1XPHvVxp1anrlq47Wdyo+v2rixXXGGDoZCAAIQgAAEIACBjgS46AKBRIL3ua2bb3t266bjMhQ8KkGwT0sQBIc6lVoQHG1XwrZMm3I0PL+4vGPTo+G5Q43l2NbNB469Y/O+xhKK77HG8tzWjbepMI9LeG2RQFfxHgvyo9duHHEhWNgIAQhAAAIQgAAESkfg0UdH5H88sVP+x9+OReU7f3eLfOfRjb1wqHSrHIrK3XUxe8N6eYhCNX5xMXKFiFwrDcWI2WGM2dlYQvG9u7HUJdirwjwu4bVFAl3FeyzIl00Fx5/duqlRhDeK7gWxfaxBaD+zdfPeUERHIjsW1U9v3bgjPBcJ60ZBHdrOq+QEcB8CEIAABCAAgT4IHP7b2+T00FGpmH1SCXZHRWS/yLJ/lO88sVsSHpVO9VTshqJyrFMdT69tDP2Ky4LYNg1COxBzWyiiI5Edi+qKBAfCc5GwbhTUz54V0yqsYzEdCelj8yL6mSYB/XSDeI5HokObeEEAAhCAAARcJoDtEEhGwJggFLT7xEQDmK0GXQMRMybf+bvvJWmw0q7S0fCf+UOxu7Pddc73RUADtkhIxyK6WUBXGsRzPBL97FnhvFg0v2PzvmfmBXOcytE40qyx7MtaboIABCAAAQhAAAJ5E1Cxe/jJL4aCNokO3RKlOXSxsdLuenVKdGRTxZlwWEdA46JFY3St/sUkFsxxKkfjSHNDykY8wjw3utwglDUt4+n5UWUdUS5UJFuHG4MgAAEIQAACEMiNwCNP7hYxScTunEmV4IOieb5zv1q+txW8wVzubMubOOksgXiEeYlQ1rSMyvyoso4oN4hkHU0+K5Cv2jjWOIqsucqIY2efBwyHAAQsJ4B5ECgdgYefGJO62d2j3yMyWd3R6Z5Kp4tcg0BIYPFIchDsbhxF1lzlTuJYR441vQJhHJLkBQEIQAACEIBAewL9iV1tLxAJVK9Iu6Ot4A1HeCfa3cR5mwhYZYs+bGdHj0NxrCPHml7RShgf27r5wDNbN+/VEeOnG9IprPIIYyAAAQhAAAIQyJ5A/2I3kW1tBe/MStkvHBDIhkAkjHXCnuYe64hxpSGd4tm5yXlRKsUxFcXzaRTxSHE2JtEqBCDgPAEcgAAE3CSQsdhVKBV9a1U2PTQ+EQqSO1td4xwEciBwVhSHI8UqiuOR4mfnBLFOwDt0DEGcQyjoAgIQgAAEIJARgRzErlreVvDqxdlhGZNAjog/B574Q0An4F1rxOwIhXCUVxx+HtLUiWdVEM/v0PdMQ8qE5hH74z6eQAACEIAABBwnkJPYVUodBa+O8s4sN9sQvYqK4hSBuVVGrm1MmVgQw1s3RekSsRgmVcKpyGJsagRoCAIQgECBBNIVu0bEjHfypqPg1RsRvUqB4hmBKF0iFsPNI8PHNE0iHBl+en4iHcuueRZ93IEABCAAgWIJpCt2E/nSUfDGLSB6YxJ8ek8gHBmO0iTE3FaZn0g3v+xalDP8TCiEdVUJHRVGCHv/NOAgBCAAAQikTaAAsasuVPQtSVHRe9G3j26pG3N3kvrUgYBnBKKc4cZR4WYh/PT8iLBnfuPOHAHeIQABCEBgUAKPPLFTet9UYtBeo/sTC96odvj2xsPjOxG9IQheEJgjsCCEK/Mjws/OT5o7pqkRV20cYzR4DhTvEIAABCDgA4E+fVCxWzP7+rx74Nsq/bSA6O2HGveUikCcGhEEuzVHuNVoMKtGlOqJwFkIQAAC5SVQsNhV8H0JXr0R0asUKBDoicCi0eD5VSMWcoM1JcIXEdwTFSpDAAIQgIC/BCwQuwq3b8GrNyN6lQIFAgMRaC+Cr9o4piKYyXED8eVmCEAAAkUSKHffeYrdavV4J9gDCV5tWEWvMWaPfqdAAAKpEJgTwUGwuyLBgfl0iKOaExyvEJFKLzQCAQhAAAIQyIrAt49skTxzdmfqJzq5Uul0Mem1NxweH0P0JqVFPQg0EUj2c6Mul1aXYK/mBD+rE+O2bjr0zNbNe5/eunEHo8DJIFILAhCAAARyIKBiV6oHc+gpcRepCF7tDdGrFCgQyJVAtJNcJR4FfsemR4+9Y/O+H//cxlt+fNXGjblaQmcQgAAEUiBAEx4QiMVuEOi/VlrjUCVNSxC9adKkLQj0SEBXhjBmZ60e7K8FwdFwFDhKg1ABzGS4HllSHQIQgAAEeidgqdhVR1IVvNogolcpULIjQMs9EIjSIFQAz68IcZQR4B7oURUCEIAABJITsFjsqhOpC15tFNGrFCgQsI7ARtM8AvyOzfvIAbYuThgEgWQEqAUBWwg8/Ngm0Zxdy9IYGvFkIni1A0SvUqBAwGoCkQCuNOQAP7N1817dGc5qqzEOAhCAAATsIaBit149KEWL3eHKRCcolU4XB72G6B2U4MD30wAEkhMwckUg5rb5VSCOH9u6+YDm/zIBTjggAAEIQKAVgVjsihQ/Ubo2XZzglfBA9IYQeEHAPQIjugya5v9GE+DeselRRn/dCyIWNxLgOwQgkCoBm8RuAscyHeGN+0f0xiT4hICjBJpHf9+xOVr+jPV/HY0nZkMAAhAYhIBjYlddzUXwakcqekXMHfrd1oJdEIBAIgIj8eS3+V3gDpH6kIgblSAAAQi4T8BBsavQcxO82tlF3xnfWzdml36nQAAC3hC4tjH1Qbc/Ju/X+djiAAQgAIGlBBwVu+pIroJXO3zj4fH9iF4lQYGAhwSMXKHbH8d5v4hfD2OMSxCAQDkJ2C52t24Z7xSY/gVvp1a7XEP0dgHEZQj4QADx60MU8QECEICAiO1iN0GMChG8aheiVylQIFASAk3i17ec35JEETchAIEyEvBA7GrYChO82rmKXpk1W8LvHddOC6/zggAEfCEQit+FnN+tm6IJb6z24Etw8QMCEPCKwOOPj4puKpF8nV1r3S9U8CqVi747fiQUvdvC74jeEAIvCJSMQDThTVd7OPaOzfvY5a1k0cddCEDAXgIqdicrB0MDi99UIjRi0FfhglcdQPQqBQoESkKgjZu61Nn8Lm9HVfyy0kMbUJyGAAQgkDWBWOyG/yKXdVcptd910NQKwavOInqVAgUCEAgJbFTxG630MJ/yEJ7jBQEIQMA7AlY65J7YDTEadwRvaK0gepUCBQIQaCAQpTw8u3UTo74NUPgKAQhAIBMCTordZCSsGeGNzVXRWzXRRLbx+ByfECgvATyfJ8Co7zwIPiAAAQhkQsCYQDRn1500hp4wWCd41frXHh4fD0WvTmRD9CoQCgQg0EiAUd9GGnyHQFkI4Gd2BFTsHn7yi+Kp2FVwVgpeNQzRqxQoEIBABwILo746yY0VHjqQ4hIEIACBdgRisStmZ7sq9p8Pug6QWit4FS6iVylQeiBA1ZIS0Elu8QoPuqlFSTHgNgQgAIHeCHghdpO5bLXgVRcQvUqBAgEIJCSwUTe10EluKnxZ2iwhNap5SACXINCFQInErpKwXvCqkYhepUCBAAR6IBAJ31oQHNJ0B4RvD+SoCgEI+E9Axe7DT3xOnE5j6C1MTghedQnRqxTSLbQGgRIQWJTni/AtQcRxEQIQ6E7gkSd3i5HbpUSHM4JXY4LoVQoUCECgHwKa5xuO+LKebz/w/L8HDyFQHgIPPzEmdbPbL4eN25PWWgUD0duKCucgAIGkBBC+SUlRDwIQ8I6Al2I3WZScGuGNXSpE9Mad8wkBCHhBAOHrRRhxAgIQSEqgxGJXETkpeNXwBdEbyBHhgAAEINAnAYRv7+C4AwIQcIyA72LXBCe6RcRZwauOqeidWW62CaJXcVAgAIEBCCB8B4DHrRCAgL0EfBe7St6YogSv9p5P2fTQ+ASiNx/W9AKBMhBoEL67WdWhDBHHRwh4TKAMYjdh+Jwe4Y19RPTGJPiEAATSIhAK37FaEBzSDSwGapObIQABCBRBoDxi14R4tYQf7V9eCF51D9GrFCgQgEDKBKINLOKd21Jum+YgAAEIZEPAUrGbjbNhq4FMSJfDG8GrfqrovejbR7fUjblbf1MgAAEIpEQgEr7s2pYSTZqBAASyI1A2sasky5DDq342lzceHt+J6G2mwm8IuEDAbhuNMTtrQaCbV+w+eu3GEbutxToIQKB0BB55Yqd/m0qkE0WvRngbkSB6G2nwHQIQSJNAKHzHlk0Fj5LfmyZV2oIABBYR6PWHit2a2dfrbV7UD/+n3M0PbwWvOo7oVQoUCEAgIwKkOWQElmYhAIEeCZRZ7CoqU3lKPzoVrwWvOo7oVQoUTwnglgUEwoEFTXN49Ng7Nu+2wBxMgAAEykag7GI3Yby9F7zKQUVv+IfSHv1OgQAEIJABgZHw/zFj0WoOV23cmEH7NAkBCHQkUNKLiN3EgS+F4FUabzg8Phb+gYToVRgUCEAgKwIb40ltWXVAuxCAAAQiAt8+skXKmrMbAejtrTSCV7EgepVCeQueQyAvAuFfrhntzQs2/UCgjARU7Er1YBldb+nz0Ox4y/MNJ0sleNVvRK9SoEAAAjkQYLQ3B8h00RcBbnKZQCx2g4ClEXuIY+kEr7JB9CoFCgQgkAcBRnvzoEwfECgJAcRu34EupeBVWohepdChcAkCEEiTgI72sm5vmkRpCwJlI4DYbR/xrVtIaWhPRwTR24kO1yAAgZQJjNTqwf5j79i8j13aUiabcXM0D4HCCTz82CYJhu4V0hj6DkVpR3hjYojemASfEIBAHgSMMTujXdpYviwP3PQBAfcJqNitRxPUWPJwgGiWXvAqu8FFr7ZCgQAEIJCYgKY4HH1268bbE99BRQhAoHwEELtJYj6RpBKCd54SonceBB8QgECOBILPP7t18+dz7DD7rugBAhBIhwBiNyFHg+BNSGqhmoreujG7Fk7wBQIQgEDmBMztz27ddPTHpDhkTpoOIOAMAcRu6qEqYoQ3dSfSbPCNh8f3I3rTJEpbEIBAAgKa4nDo2Z/deEWCulSBAAR8JoDY7TG6QdcVGrRBBK9SaCqI3iYg/IQABDIisKjZjTIUPHrsHZt3LzrLDwhAoDwEELuZxRrB2wYtorcNGE5DAAKZEjDGjCF6M0VM4xCwk0DZxW7GUUHwdgCM6O0Ah0sQgEBmBCLRu3XzAdbrzQwxDUPALgKI3f7jYcyJJDcjeLtQUtErs2ZLWC3RCZVnfwAAEABJREFULMCwHi8IQCAbAqVq1YjZwXq9pQo5zpaVAGJ3sMgHcjxJAwjeBJQu+u74kVD0bgurInpDCLwgAIHcCEST2VjBITfedASBfAk8/vio9LWpRL5m+tAbgjdhFBG9CUFRDQIQSJtAJHpZwSFtrLQHgYIJqNidrBwMrdgYFl79EqjL00luRfAmoTRfB9E7D4IPJwhgpFcEdAUHli3zKqQ4U2oCsdg1wlKEks+B4O2RM6K3R2BUhwAE0iIwosuW/fjnfuqWtBqkHQiUhIBdbiJ204yHCRvTEn50fiF4O/NpeVVFb9VEE9nGW1bgJAQgAIGMCNTq9f2I3ozg0iwEsiaA2M2AsHkqSaMI3iSUWtR57eHx8VD06kQ2RG8LPs6dwmAIOEQA0etQsDAVAjEBYwLRnF3SGGIi6XwawwhvOiTbt4Lobc+GKxCAQLYEEL3Z8i1z6/ieAQETit3DT35RELvpwzWVp5I0yghvEkod6iB6O8DhEgQgkCkBFb0v/fJlbEWcKWUah8CABGKxK2bngC1x+wAEELwDwItvLZ/ojT3nEwIQKJrA1MnJsVM7r0P0Fh0I+odAKwKI3VZUCjmH4E0JO6I3JZA0AwEI9ESgPluTE//z6bGpX/llRG9P5FKqTDMQaEcAsduOTLrnh2YTzaVC8KaIHdGbIkyaggAEEhNQ0fvyD/4R0ZuYGBUhkDEBFbsPP/E5IY0hY9DJm0fwJmeVqGYL0ZvoPipBAAIQGIRAbWpKVPTOfHDH7kHa4V4IQCAFAo88uVuM3C4c2RNYIROS4EDwJoDUaxVEb6/EqA8BCKRBQEXvK//49Jj5rZssFb1peEkbELCcwMNPjEnd8N9gXmHasgXBmxfrVv0geltR4RwEIJA1gdMvHZeTTz2H6M0aNO1DoBUBxG4rKlacs26E1woqKRmhondm2GyRQI4IBwQgAIGcCLzy9DGZfP5FRG9OvOkGAhEBxG6EId83k2jCmtqE4FUKGZZND41PzCw32xC9GUKmaQj4SWAgr07849NSOz2N6B2IIjdDICEBxG5CUMVVQ/DmwB7RmwNkuoAABBYR0JUbXvjbfxAzU0P0LiLDDwikTACxmzLQVs21OxcwwtsOTVHnEb1FkadfCJSXQDSJ7ennREwQit4PfL68JPAcAhkRQOxmBDb9ZhnhTZ9p2xYRvW3RcAECAxOggdYEXn3un2TyJy+EolduN7/5gX2ta3EWAhDomQBit2dkqd9gzImkbSJ4k5JKqZ6K3ou+fXRL3Zi7U2qSZiAAAQh0JBDl856Z0jo7Eb2KgQKBAQnYLXYHdM6h2wM5ntRaBG9SUinXe+Ph8Z2I3pSh0hwEINCSgObzHv/h0fgaojcmwScE+iGA2O2HWjb3mIAR3mzIptsqojddnrTWAwGqlo7A1IlX5NRz/xT7jeiNSfAJgV4IPPLETjaV6AVYpnWNGJNo0wm1ghFepVBgQfQWCJ+uIVAyAro+b20utUE9D0XvTY+a23eM6A8KBMpKILHfKnZrZl/i+lTMnkAgCF5x6FDRG/415U6HTMZUCEDAQQJNqQ2hB8EVsnzZQURviIIXBDoRQOx2olPcNWNIaSiOfn89v+E747cbY/b0dzd3ZUuA1iHgDwFNbZg6cfKsQ6ayBdF7FgffILCEAGJ3CRJrTlSrTFqzJhg9GPKGw+NjiN4egFEVAhDoi8DxH/yjmNnZs/cies+y4FtnAmW7iti1O+IzdUZ47Y5Qe+sQve3ZcAUCEEiHgG5IcfK55xc3huhdzINfEPj2kS0yW2fDFk+eBCatWRhIx0WvhUQxCQIQaCagKzY0TGCbu6yid9nw98yH/8XGuRO8Q6CkBFTsSvWgBAGTOm1+BIZm2VrY5vgksQ3Rm4QSdSAAgX4J6AS2V5451ur2TVIzBxG9rdD0eo76ThJA7LoTthXCKg3iwYHo9SCIuAABiwlMPv+iLJrAdtZWRO9ZFnwrEwHErlvR3rIFwetKxLrZiejtRojrEIDAIAROPt1ylFebRPQqBUp5CCB2XYt1YrGrjpHDqxQsL4heywOEeRBwmMDUiVfajfKqV3mKXu2PAoFiCDz82CYJhu4lZ7cY/P31GiB4+wNn912IXrvjg3UQcJlAh1FedQvRqxQo/hJQsVuvHgwdZLJmCMGZlzEeC15nopCNoYjebLjSKgTKTqDLKK/iQfQqBYp/BBC77sa0h22F1UlSGpSCQ0VFb92YXQ6ZjKkQgEAGBNJusssor3aH6FUKFH8IIHbdjqUxiTedUEcRvErBsfLGw+P7Eb2OBQ1zIWA5gQSjvOoBolcpUNwngNh1P4aBxNsKJ/IFwZsIk32VEL32xQSLIOA6gcmfvJDEBURvEkrUsZcAYtfe2PRiWV2e7qU6grcXWpbVRfRaFhDMsZcAliUioOvymtnZJHVV9H7P/Ob7r0hSmToQsIYAYteaUAxoiAnv1xJ+JHsheJNxsrYWotfa0GAYBJwkcPK555PaPSpSOYjoTYqLeoUTQOxGIfDnzTzViy8I3l5oWVpXRa/Mmi2heT0t0RHW5wUBCEBgEYFTz/3Tot9dfiB6uwDisiUEELuWBCJFM6pVcnhTxOlMUxd9d/xIKHq3hQYjekMIvAYhwL1lJlCfrXXaiKIVGkRvKyqcs4cAYteeWKRpyUydVRrS5OlSW4hel6KFrRCwl0CCJcqajUf0NhPhtx0EHn98VAbZVMIOL7CiFYHhSk8DfJVWbXDOXQKIXndjh+UQsIWALlGWcPJao8kqer9nfuumWxpP8h0ChRFQsTtZYQe1wgKQcce1aQRvxoitb75B9I5bb6z7BuIBBLwk0MPktUb/AzHBPkRvIxK+F0IgFrtGWElEPD22bulJ4zDC6+lzoKK3aozm9Pb0QHiKA7cgAIEeCegSZT3eEldH9MYkSvdpicOIXUsCYZcZCF674pGqNa89PD6O6E0VKY1BoDQEalNTvU5ea2SD6G2kwff8CCB282NdaE+m58E8BG+hAcu+c9tEb/Ye0wMEIJAWAc3lHaAtRO8A8Li1DwLGBHKqcq+QxtAHPNduCRC8roUsD3sRvXlQpg8I+EdggLSGGEYsenfHJ/hcIMCXNAmo2D385BfDJq8NCy8ILCHACO8SJH6eQPT6GVe8gkCWBAZMa4hNU9G72/zWTYjemAif6RJYELtmZ7oN05q9BAwjvPYGpw/LUr4F0ZsyUJqDQAkIDJjWEBNC9MYk+EyXAGI3XZ6utGaCnjadULcY4VUKJSqI3hIFG1chkAKB6RMnU2glamIg0Ru1wBsEGgkgdhtplOm7EWN6WoNX4SB4lULJCqK3ZAHHXQgMQEBHePvYhKJdj4jedmQ43xsBFbsPP/E5EUMaQ2/kPKltnurVEY8Eb6+ul7s+orfc8cd7CPRC4NRPXuylere6iN5uhLjencAjT+4WI7cLRzkJVKvHe3UcwdsrMY/qI3o9CiauQKCRQMrfZ05NptyiIHrTJlqm9h5+YkzqZneZXMbXJgIzdXJ4m5DwswsBFb0zw2ZL+MfPkS5VuQwBCJSUwJmXeh5MSUIK0ZuEEnUWE0DsLuZR1l9Ds4lXaYgRMcIbkyjx56aHxidmlpttiN4SPwS4DoEOBOqzNZk5dapDjb4vIXr7RlfCGxG7JQx6G5dXCJPWhKMvAojevrBxkxcEcCIJgan0Vmto7g7R20yE30sJIHaXMinzmS1bELxljv+gviN6ByXI/RDwl0CKy5O1gqSid8z8xgd0p6xW1zlXZgKI3fyi70RPpud0BnWLlAalQFkggOhdQMEXCECggcDUiVcafmX0NZBdiN6M2LraLGLX1chlaHeA4M2QbqmaVtF70bePbqkbc3epHMfZJASoU1ICmsc7e2Yqe+8RvdkzdqUHxK4rkXLCTkZ4nQhTMUa+8fD4TkRvMezpFQI2EpjKLo93sbuI3sU8yvjLCbFbxsDY4DMpDTZEwTsbEL3ehRSHINA3gdlsVmpobQ+itzWXMpxF7JYhyv36aKQuPe+ypp0xwqsUKB0JIHo74ul4kYsQ8InAzKnT+bqjove33v89c/uOkXw7prfCCDzyxE42lSiMvhsdB9LzCg0SHgjeEAKv7gRU9Boxd3avSQ0IQMBXAhmtxdsZl6lskeXLDiJ6O2Ny4Gp3E1Xs1sy+7hWpUWoClQqT1kr9AOTg/Bu+M367MWZPDl3RBQQgYCGB3CauNfuO6G0m4t9vxK5/Mc3Koz62FVZTKvpGgUBSAm84PD6WmehNagT1IACBwgjMnpospm9EbzHc8+gVsZsHZX/6GK6Q0uBPNO32BNFrd3ywDgJZEpguSvCqU7Ho/fC/2Kg/fS6l8e3bf3u9kMZQmnCn4uiyaVIaUgFJI4kIIHoTYaISBLwjUJvKYS3eTtRU9NbMQYPo7UTJjWvfPrIlNJTd9UIIvHog0Me2wtp6Rd8oLhIo3mZEb/ExwAII5E1g5tWcV2po7eCmcFQQ0duajRtnI7FbPShBwAocbkTMEitNX6O7ajyCVylQ+iaA6O0bHTdCwEkCtakztth9VvTaYhF2JCOA2E3GiVotCAQI3hZUOJUTAURvTqDpBgIWEChspYbWviN6W3Ox9yxi197YuGCZMSf6NbMsI7z98uG+hAQQvQlBUQ0CHhAwtVmbvED02hSNTrYgdjvR4VoiAozwJsJEpWwJIHqz5UvrEEiHwOCtTNuRx9voCKK3kYaN3x9+bJMEQ/eSs2tjcJyxyYgxfS1Jph4ywqsUKKkRQPSmhpKGIGAtgVrRKzW0JoPobc2l+LMqduvVg6EhLCcXQuA1AAFTTzeHdwBTuBUCoqK3bswuUEAAAn4SsFTwKmxEr1KwqSB2bYqG+7aYylP9OsEIb7/kuK8jgTceHt+P6O2IiItuEMDKFgTMbK3FWWtOIXptCQVi15ZI+GNHn7usKQAEr1KgZEIA0ZsJVhqFQOEEZs9MF25DFwMQvV0AZX4ZsZs54vw7sKDHPndZU8sRvEqBkhkBRG9maGkYAoURqM9atUpDOw4qer9nfvP9V7SrwPmMCCB2MwJb+mYnpM9d1pQcglcpUDIl0CB6+55dmamBNJ4aARoqBwGLc3ibAzAqUjmI6G3GkuFvxG6GcEvetJG+J6xJeCB4Qwi8siegoldmzbawJ0RvCIEXBFwnYNwY5VXMiF6lkEdB7DZS5nvaBAIZSD8geIUjLwIXfXf8CKI3L9r0A4FsCdTsnrjW7Dyit5lI2r8Ru2kTpb0lBMz4klM9nEDw9gCLqoMTQPQ2MOQrBBwmUJuyfuJaM11EbzORtH4jdtMiSTudCNTl6U6Xu11D8HYjxPXUCSB6U0dKgxCAQDICKnq/Z37rpluSVadWVwKPPz4qKWwq0bUfKpSdgBExjPCW/Slw0f8G0TvQA+yi79gMAR8IzJ6ZctWNQEywD9GbQvhU7E5W2EEtBZQ0kYBAPRhILzDCm4AxVbIhoKK3aqKJbAke4mxsoFUIQKCUBBC9g2DUedAAABAASURBVIY9FrtGWPZNOHIhMMCmE2ofglcpUAoj8NrD4+OI3sLw0zEE+iZgak6sxdvJP3dFbyev8riG2M2DMn00Exhg0wltCsGrFCiFEkD0FoqfziHQF4G6W6s0tPNxXvR+4PZ2FTjfRACx2wSEnzkRGGjTCbURwasU/CvOeYTodS5kGAwBXwiEolc+Z37rpt2+OJSZH8YE8mrwRSGNITPENNyGgJGBUx8RvMJhCwFEry2RwA4I+EQgkS+h6A12I3o7sFKxe/jJL0oQ7OhQi0sQyIiAeWrQhhG8gxLk/lQJIHpTxUljEMiMgEPbCydlgOhtRyoWu2J2tqvCeQhkSyBghDcNwLRhFwFEr13xwBoIlIgAorc52IjdZiL8zp+ACbtkhDeEwMtDAoheD4OKSy4QwEYRRK/MH4jdeRB8FE6gEhwd1AZSGgYlyP2ZEUD0ZoaWhiEAgc4EEL0qdh9+4nNCGkPnJ4Wr+RCYqZ8YtKPeBe+gPXI/BHoggOjtARZVIQCBNAmUW/Q+8uRuMcJybcJhBYE1s0cGtQPBOyhB7s+cgIremWGzJfyHxoEf+MyNpYNSEcBZ7wmUU/Q+/MSY1M1u76OLg64QGHgNXnUUwasUKNYT2PTQ+MTMcrMN0Wt9qDAQAr4RKJfoRez69vzm5U92/aSwBq8ah+BVChQnCCB6nQgTRkLARwLlEL2IXR+fXfd9CmRCUjgQvClApIn8CCB682Odek80CAG3CajoHTO/8YEvuu1GG+sRu23AcLpwAkYeS8MGBG8aFGkjVwKx6A0kuC/XjukMAhBYIFAdHl74XqovgezyTvQidnN/hOkwMQET1hx4Dd6wDUHwKgWKcwRU9L7+O/94fd2Yu50zHoMhAAG3CfgkehG7bj+LZbC+ZlKZsI7gLcPD4rGPbzw8vtNP0etx0HANAj4Q8EH0InZ9eBL992G4Qg6v/1HGwyQEEL1JKFEHAhBIncC86DW37xhJve2sG3z4id3OLD0mHKUm8PZLGeEt9QOA84sIIHoX4eAHBDInUNoc3mayoeiV5csOOiV6D//d7aHYHWt2hd8QsJBAKqO76ldF3ygQcJxAZL6KXiPmzugHbxCAAATyImAqW5wRvY88sVOMfD4vNPQDgQEJpDK6qzYgeJUCxRsCb/jO+O3GmD3eOIQjELCUwNCKkq7S0C4e1ojedgaG51Xs1sy+8BsvCDhCwIynZSiCNy2StGMNgTccHh9D9FoTDgyBQHkI2Cx6EbvleQ598rQuT6flDoI3LZIOtVMGUxG9ZYgyPhZJoDLEHx8t+cei98P/YmPL60WcROwWQZ0+BydgpFp5dPBm5lrg/1hzHHj3kACi18Og4pI1BILqkDW2DGBINreq6K2Zg8YG0fvtv71eSGPIJs60mj2BmfqJtDpB8KZFknasJIDotTIsGOUBgepQ1QMvMnVhUyg0ixW93z6yJfTQz62QQ8d4lYDAmlkmreUWZjpyngCi1/kQ4oCFBIIhRngThKU40RuJ3epBCQL31ghOAJYqpSAwIVu2sCxZKUKNk6kRQPSmhpKGSkwgdp01eGMSiT7zF72I3USBoZL1BFIb3VVPSWlQCpRSEED0liLMOJkDgQqju71Szk/0InZ7jQ31rSWQ3pJk6mLKglebpEDAXgKIXntjg2XuEAjI3+0nWNmLXsRuP3HhHlsJpLgkmbqI4FUKlFIRQPSWKtzFOetxz0MrlnvsXaauZSd6H35skwRD95Kzm2n8aDw/AqkuSaZmI3iVAqV0BFT01o3ZVTrHcRgCKRAgh3cgiOmLXhW79erB0Cp71v4NjeEFgZhAX58Veaqv+9rchOBtA4bT/hN44+Hx/Yhe/+OMh+kTqJDSMCjU9EQvYnfQWHC/rQTefimT1myNDXa5RwDRa0vMsMMlAkPDwy6Za6utg4texK6tscWuQQkYSVXsSngwwhtC4FVuAojecscf73snELBKQ+/QWt+hovd75jfff0Xryx3OInY7wHH8EuaLBJLa+rsyfyB450HwUW4CkegVc31IIfX/yMI2eUHAKwLVYSatpRjQUZHKwZ5EL2I3Rfw0ZSUBI4+lbReCN22itOcsgTd+Z/w+mTXbQgdsF72hibwgUByBoRWkNKRMP7noReymjJ7mLCRgQptSnbAWticIXqVAgcA8gYu+O34E0TsPgw8ItCBQJX+3BZVUTnUXvYjdFqA55SWBmiGH18vA4pRVBBC9VoUDYywjUGV0N8uIzIne3/gX1y7pBLG7BAknPCawZhbB63F4cS0jAv00m4boPTZykTyy4Uo5cNmNi4qe+/sLL5FXhtf2Yxr3QKBQAkNsOpE1/1EJzEHzWzfdstARYncBBV9KQWBCtmxJPbWQlIZSPDs42Q+BBtE7nuR+FbBfunKX3Hzzl+Vnf/OI/Pyv/1X4/Svykfd+dlG5+eavyPW/8nV5+28dierdfPOX5a6rb4vEsbaRpC/qQKAoAqQ05EI+EBPsi0Tv44+PiqneG/aaxqYSYTO8IGA9gdRHd9VjBK9SoECgDQEVvVUTTWRrK3p1xFZF69tDAfup7R8LhetVcnJFstFbrffIhqvkrmtui8SxtqFtHbj8Rjm27vVtrOI0BIojsHz1quI6L1fPgTHB/l99/K+/J0Z6X7ZMOCDgKIEMVmhQEghepUA5S4BvSwi89vD4eCvRq6Oxn3r3xyKhqqJ1yY19ntC2PvKez8rPf/C/h21/WVT8al99NsdtEEiVAGvwpoqzY2NBePX/e+wvN+547vvhN14QKAUBE3r5VFhSfyF4U0dKgz4SaBa9Ovp6/a/8N/nS23dl6m4sfnXk9yPv+Q+M+mZKm8aTEFi+emWSal7UscEJFb1f/Js/k42Tqac02uAeNkBgKYEMVmjQThC8SoECgQQEYtH7+OsuH9/xK18XnZSW4LbUqhy4/H0Lo76aRpFawzQEgYQEKkNVCdhlLSGt9KqNzpyRL/71n6XXIC1BwGYCGazQoO4ieJVC34Uby0bgTR87OnLTvz4worm3Rfmuo7433/yVaFKcpjsUZQf9lo/A0OrV5XPaEo+vffEpueWp1DefssQ7zIDAAoFMVmjQ1hG8SoECgQQEVtxvNkogB8KqI2Ep/KUjzB/RXN9f/yv55sXvKtweDPCfQMd0Bv/dL9RDTW3Y/fd/VagNdA6BHAhkskKD2o3gVQoUCHQhoGK3auRQ+IfOxi5Vc7+swvdXb/p9+dWbfo8c39zpl6tDNp0oNt6ax3vtC20XjCnWOHqHQBoEMlqhQU3LU/BqfxQIOEfAZrHbCPObF2+Pcnw/wuS2Rix8T5HAMlIaUqTZe1PhX7jlZtIaegfHHa4QMFIJHsrKWARvVmRp1wsCrojdRtg6uU1zfMnvbaRi23c37akM8UdG0ZHb8eMfFG0C/UMgOwIVyWRJMjWY/3spBQoEWhBwUezGbhwbuUg+Mp/fq0uoxef5hEC/BCpDVWGEt1966d03MnOGJcrSw0lLNhBotOHtl5LD28iD7xDImoDLYreRjQpf3cBCd3JrPM93CPRKgBUaeiWWXf3LJ57PrnFahkBRBIxkJnYlPBjhDSHwgkAjAV/EbqNPd119W7SMmaOjvY2u8L0gAqzQUBD4Ft1uYhOKFlQ45T4Bk1k6g7JB8CoFCgTmCfgoduddizbKYLQ3psFnrwRYoaFXYtnUD8JmNa0h/OBVSgLeOm1Egm9JhgeCN0O4NO0WAZ/FbmMkdLT35pu/zBJmjVD43pUA+btdEVEBAhAYhEBGWwrHJiF4YxJ8lpqAT2I3SSDj3dq+wYYVSXBRJyRASkMIgRcEIJAdgTWz5PBmR5eWISAycsCMVKeNlZtKZBkfndD2azf9vjChLUvKfrSto7vB0JAfzuBFmQjgqzMEzLhs2TKRpbmM8GZJl7atJ6Bid3a5HAqWBRutNzYjAzXFYce/+W+kOGTE14dmh1Ys98ENL3wwoRcTy1aE77wg4BOBIPMtBBG8Pj0v+NITgUjshmJXArlCSn78w2t+Rm6++Svy9xdeUnISuN+KwPJ157Q6zbmCCBxdNVJQz3QLgYwI1M1fZdTyQrMI3gUUfCkTAcTu0mhrisP1v/J1UhyWoin9GU1pKD0EiwCcWDaciTU0CoGCCBipVh7Num8Eb9aEad86AojdziHRFIdPbf9o50pcLRUBJqzZFe4jI6+xyyCsgcCgBMz0Y4M20e1+BG83QlxvIODH19lh2UcaQ+dYfunKW4W83s6MynJVR3eZsGZPtMdXrRNyeO2JB5akQmBCtm4hhzcVlDQCgXkCq+83+8KvO8LCqwuBOK+X3dm6gPL8MhPW2gS4oNOPMbpbEHm6zZBApsuRxXZX4i98QsB3Aip2AyM7hSMxAc3rZTJbYlxeVlzOhDVr4mpCS7513obwnRcEPCKQw4Q1pYXgVQrZFFq1iABit/9gqOjVyWwHLr+x/0a401kCmtLgrPEeGv7Q+QheD8NaZpdymbCmgBG8SoHiNQHEbjrh/ch7PssKDumgdKqV4VRGeJ1y2VpjNX/3yDomrFkbIAzrj0AOE9bUMASvUqB4S2DNn5vPB6QxpBZfXcGBndlSw2l9Q8vXrbXexjIZ+NB5pd0fp0xhLpmvZjyPCWsK1RrBq8ZQIJAmgTX3m91he7eHhVeKBBC9KcK0vCmWI7MnQCY05UsbLgvfeUHAIwJGMl+OLKaF4I1J8OkVgUjsGhkTjkwIqOj9yHv+QyZt06hYg2CYEV5rYqHpDA+dzwivNQHBkDQIhH+PC76VRkNJ2kDwJqFEHacIIHbzCdeBy98nv3rT78krw/yzdz7E8+9lmPzd/KG36ZF0hjZgOO02gZrpsiRZeu4heNNjSUsWEEDs5huEb168XW6++cuI3nyx59Kbrs7AhhO5oO7aiQlrfPxnrg7feUHAMwJrZhG8noUUd3IggNjNAXKLLuY2qChO9LYwiVMpEFi2ZmUKrdBEGgQeOm+DjK8aSaMp2oCAPQSMHJEtWyYkp4MR3pxA0022BBC72fLt1jqitxsh966TzmBHzHR09+4Nl9thDFbYTsAt+wKT2+iugkHwKgWK0wQQu3aED9FrRxzSsmJ4LbnZabEcpB2drIbgHYQg91pKwEglvwlrygDBqxQozhJA7PYYuoyrI3ozBpxT89XhYamuGM6pN7ppR8CEF/Zcck34zgsCHhIIgtyWJFN6CF6lQHGSAGLXzrAheu2MSy9WDY+c00t16mZEQEd3//R1F2fUOs1CoFACE/L2S0lpKDQEdO4EgVV/WtstrLMrth4qen/tA79nq3nY1YUA+btdAOV0+UsbLpeJZSty6o1uIJArgVzFrnpW0TcKBFwisPp+c0tlWSWHTSVcomKfrY9suErYnMK+uCSxiPzdJJSyrXN01TrZHwrebHuhdQgUQsCEA1Z/lnfPlbw7pD8IDEJAxW5gZL9wOEFAN6dA9DoRqgUjdf1d8ncXcBTyJc7dtWopskJI0Km3BHLccCIlUgxIAAAQAElEQVRmiOCNSfBpPQHErvUhammgit67rrmt5TVO2keA9XeLj4nm7rIyQ/FxwIIMCbzzLQ9l2HrLphG8LbFwsg8Cmd6C2M0Ub+aN33X1bYLozRxzKh2sPHc0lXZopD8C8ehuf3dzFwScIJC72FUqCF6lQLGawDl/bnaQxmB1iBIZp6L37it3JapLpeIIDK9jhYbB6fffwpF1rxFGd/vnx50OEDCS63JkMREEb0yCTysJrP66ucKI7LPSOIzqmcCnt39MDlx+Y8/3cUM+BJavWyvB0FA+ndHLEgLh/+vkhq3vX3KeExDwiIBuOMEIr0cB7eoKFboTULEbBHIorDkSFl6eEPhUKHr//sJLPPHGLzeWr17pl0OOeXPnm64UJqo5FjTM7Z3A8PS3er9p8DsY4R2cIS1kQACxmwFUS5o8uWKt/NpNvy/H1r3eEoswIyawYv258dc8P+krJKDLkO255OrwGy8IeEzAyBHZsmVCCjgQvAVAp8vOBBC7nfn4cPXYyEVy881fQfRaFMzKUFWGyd+VIg5NZdhzyTXCJhNF0KfPnAkUMrqrPlb0zfqCgaUhgNgtTahFRe+vhiO9rwyvLY/TFns6vI44FBWe/W+8nIlqRcGn3zwJFJa/q04ieJUCxQoCK+43GyWQA6Ex5OyGEMrw0i2IP/3uj5bB1dR8zKqhFev5zy4rtp3a1VSGj/8MqQydGHHNIwIF5e8qQQSvUqAUTkDFbtXIoUBko3CUigAbU9gRbrYTzj8OJuxSUxmYqBaC4OU/gfTzd3tihuDtCReVsyCA2M2Cqltt6hq9LFdWXMyWrV4t1RXDxRlQ0p5JZShp4MvrdmH5u4ocwasUKIURQOwWht66jjNZrsw6L+00aHjdGjsN89gqTWX40OXbPfYQ1yCwiICRmvnTRWdy/oHgzRk43Z0lgNg9y4JvIixXVtxTwHJk+bLXVIbrrr5ZWJUhX+5l761w/9fMHinShkqRndN3eQkgdssb+06es3JDJzrZXKsOD8swy5FlA7dNqx+/5Go2mGjDhtPeEnioqPV3Y6II3pgEn7kRQOzmhrrHjuyoris33HXNB+0wpgRWDI+cUwIv7XHxwGsvlrFLrrHHICyBQB4E6uav8uimUx8I3k50uJY6AcRu6ki9bPBLV94qd1+5y0vfbHNq5bmjtpnkrT3k7ToUWkxNk4CRujwkBR8I3oIDUKbuEbtlivbgvn56+8fkkQ1XDt4QLXQkQDpDRzypXYzzdlmCLDWkNOQOgQl551sQvO7EC0sHIeCh2B0EB/cmJPCR93xWjq17fcLaVOuVwPJ1ayUYGur1Nur3SEDF7ocuezd5uz1yo7onBIwpdDmymCIjvDEJPjMjMHLAjAzV5UDAphKZMfa14XgSm6/+Fe3X6gvXF21CKfrXSWp73/R2j33FNQi0JWCkGtzX9mqOFxC8OcIuY1cqdmeXyyEJ5ArhgEAfBHQS26e2f7SPO7mlG4HhtWu7VeH6gAQeXXchk9QGZMjtjhOozzDC63gIMb8LgUax26UqlyHQkYBOYmMnto6Ier6o6QzsrtYztp5u0ElqN2y9qad7qAwBvwiYcdm6ZdwGnxjhtSEKHtqA2PUwqAW79KntHyOfN8UYrFw/kmJrNNVM4PiyYdHNJVpMUmuuym8I+Eyg8MlqMVwEb0yCz9QIIHZTQ0lDDQR0J7abb/6KvDLMP8M3YOn7K8uR9Y2u640mrHHDVR9gklrIgVepCRiZlS/ZQgDBa0skGu1w/PvssOwjZ9fxIFpqvk5iY1OKwYOzbPVqIZ1hcI6tWlCxqysyPHT+hlaXOQeBchGwYDmyGDiCNybBZyoEVt9v9oUN7QgLLwhkQoB83sGxrnJodYbBvc23BVZkyJc3vVlNwJp0BqWE4FUKlFQIqNgNjOwUDghkTIB83sEAD69jO+HBCLa+e88lV7MiQ2s0nC0fASMVudsmtz0QvDbhLK8tiN3yxr4IzzWf91dv+v0iuna+z+rwsGhKg/OOWObA/g2XI3YtiwnmFEzAkuXIYgoI3pgEn30TQOz2jY4bByDA+rwt4CU4xeoMCSD1WEXX2t31tvf0eBfVIeAxASNHbFmOTOYPBO88CD76I7D6T2ufD0hj6A8edw1MQPN5H9lw5cDtlKmBVReeVyZ3M/dVxa4uP5Z5R3QAAbcIFL7ZRDMuBG8zEX4nJrDmfrM7WFa5PfENVIRABgQ+8p7PslRZQq5V0hkSkkpWLd5YYmLZimQ3UAsC5SBgpGb+1DZXK7YZhD1uEFCxK0bGhAMCBRPQpcp+7QO/14cV5btlFaO7qQVdxa6O7LKxRGpIacgbAmZcLFqOLMaK4I1J8JmYAGI3MSoq5kTgkQ1Xyd1X7sqpN3e7WX0B6QxpRA+xmwZF2rCKQLrGWLUcWewagjcmwWciAojdRJioVACBu66+TY6te30BPbvRpa7MwGYTg8cKsTs4Q1rwmoCxaXe1RtII3kYafO9IALHbEY/vF633T5cq+8h7P2u9nUUZyGYTg5NH7A7OkBa8JzBhYzqDUkfwKgVKVwKI3a6IqGABAU1tuOua2yywxD4TVp47ap9RDlmE2HUoWJmbSgftCZj72l8r9gqCt1j+TvSO2HUiTBg5T0BTG/7+wkvmf/GhBJavWyukMyiJ/gpitz9u3FU6AkaCinWrM8RRQPDGJPhsSQCx2xJL15NUKJbAr930+yxV1hCC1Reub/jF114IIHZ7oUXdkhOYkKsuRfCW/CFw0n3ErpNhw+iQgC5Vdtc1Hwy/8VICw2vX6gelRwLxphIsPdYjuMXV+VUaAsbadAYNASO8SoGyhMDqvzC3sc7uEiyccIgAu7DNBWvl+lHSGeZQ9PSO2O0JF5UhYGxOZ9DwIHiVAmURgdX3m1uCuuyVvA76gUBGBNiFTWTF+pGM6Prb7P4Nl4tuKsEOav7GGM9SJ2B1OoN6i+BVCpQFApHYNbJfOCDgAYGypzZUhqqy6oLzPYhkfi6o2N31tvdIUWI3P0/pCQJpEjBWpzOopxV9o0BACSB2lQLFNwJlTm1YsZ6lyHp5nvdccrWo2O3lHupCAAJibE9n0BgheJWCUyUbYxG72XClVTsIfGr7x+wwJGcrGN1NDlzF7tgl1yS/gZoQgEBMwPp0BjUUwasUSl5W/fHsjoA0hpI/BX67/w+v+Rm5q2QbUlSHh2V43Tl+BzYF70zYho7qInZDELwg0BcBY306g7qF4FUKJS6rv26uqJxT3VdiBLheEgJ3v32XHFv3+pJ4K7JyPZPVugX7+LJheet1/0Y0b7dbXa5DAAItCRiZlS+1vGLZSd8Fr2W47TJHxW4QyKHQKv5kDCHw8pvAyRVr5SPv/azfTjZ4t+Z1r2n4xddmArqhxFt//lfkyAicmtnwGwLJCZhxeedbHkpev7iaCN7i2BfaM2K3UPx0XhCBRzZcJXdfuaug3vPrdnnLrYTz69/2nlhj1/YIYZ9DBJwQu8oTwasUSlYQuyULOO4uInDX1bd5n9rAVsKLQr7oh6Yv6Bq77J62CAs/INAPASPVyn/q58Yi7lkkeIswgD7zJbBs3/QVpDHky5ze7CKgqQ2ferffqzasPJflyFo9dboSg05QY43dVnQ4B4EeCRg5Im+/9Ig4ciB4HQlUGmauuN9sXH7hsgNhW+TshhB4lZfANy/eLo9suLITAGevrbrwPAmGhpy1PwvDdXKaCl1WYsiCLm2WlEA4uit3uuQ7gtelaA1gq4rdqpFDgchG4YAABMTXbYdZe3fxw62T0657582sxLAYC78g0AOBNlXrM99qc8XK0wheK8OSrlGI3XR50pofBI6NXCRfusqvCWzV4WEZZu3dhQf00HkbRPN1WYlhAQlfIJAOAWP+VLZuGU+nsXxaQfDmw7mwXhC7haEvVceuOuvbBLY1r7/Q1VCkbvfeN10ZiV0mp6WOlgYhYKRS2e8ahoprBmNvcgKI3eSsqFleAj6tzbuSyWqi+bp3XPZuueOy7eV9qPG8SAIl6NuMy1WX/qlrjiJ4XYtYQnsRuwlBUa30BHRt3m9c/C7nOaxcPyrVFcPO+zGIA3G+7t43vX2QZrgXAhDoTMCZtXcb3UDwNtLw5LuLYtfMGqmfqUeldmJWtMy+NC2zP5laUqafOS1xaXVd79P7tdRPzUZtatvWhBdDrCPw6e0fk1eG11pnVy8GrbrgvF6qe1f3wGsvlreyc5p3ccUh6wgYkdmPW2dVAoMQvAkguVTFNrEbCdlQdKoInfnxGZk6OilTPzwlZ/7upEz+zYmonPr2cZl8ZEJOf+9EVM48cVK0TH3/lEz9aHJJmXnmjMSl1XW9T+/Xcvqxk1Gb2rb2o0X7PX3kFVEb1Ba1SQW0iudYJKvdLsUdWwcj4PoENp2stiIc4R2Mgpt3h3/6yh2XvVtu2HqTsL6uezHEYucIPOTaZLWYcCX+wqf7BIoUuzqCqoIxErWhoD0dCkoVsVpUdKoInT56WmZ/HI7YvjAttVdmxUzVo5I3ee23PlmLbJgNbVGbVECreI5FstqtRf2IhHEo1NU3Fe46aowgzjtq2ffn8gS24ZFzsgdkYQ+kMFgYFEzymYCRitztqoMIXlcj12R3nmJXBZ+KWx0ZVUEYCcNwdFYFYyRqQxGpgjIdUdjkaI4/1X71Q8W5imL1TYW7Cnj1WUujGI5Hh3M0ka5SJuDqBLa1b3h9yiTsby5ecuyh8zfYbywWQsALAmZcrnwzgteLWDrqxMgBMzJUlwOBSOqbSqjoq52YiVIRVNypyFPBp+JWRaAKQq0jJTzU70Yx3Dg6rKz0LwQ6KqxCWOuWEJFzLusENtd2YFu+bm2pJquZ8KnSFAZdX7d0S46FvvOCQIEEnJysFvNihDcm4einit3Z5XJIArlCUjpU4M48czrKcVWBe+aJV6NUBBV3CLfukJWRstK/EOiosAph5ai5w1P/8Go04Q4R3J1jUTVc24Ft9YXri0KVe7+kMOSOnA4hEBMI/67p5mS12AEEb0zCwc8WYrcvL1SgRSkKPzwVTR5TgTv9zJkox7WvBrmpJQHNHZ59eSaacNcsghkJbomskJMuTWDTyWqrLji/EE55dxqvwkAKQ97k6Q8CIQHj3s5qodWLXgjeRTjc+TGo2I1Frv7Tu65gEKUovDAtet4dCu5bGovgxpHg00deiVay0L+EaL60+16658Hdb9/lxDJlK0uwMkO8kUTvqzC499xhMQQsJWCkJndaaltisxC8iVHZU3EQsavpCo0iV//pHZFrT2zVEs2L1tUj9C8hmi8dp0LoKDACWAllX06uWCt3XfPB7DsasIc1r/N7K+FH110Yra3LRhIDPijcDoGBCJhxeedbnM7fVfdLLXgVgItlOjD7pIec3fqpWvjP6KcX0hUQuW5FvXEUOBLAj0yI5gIjgLON45euvFVsnsCmo7s+76y2901XRmKXiWnZPue0DoEuBIxUgj1d6jhxGcHrRJjOGrn6UlLV4QAAEABJREFUfrOvsjzYcfZM+28Lo7mPvSKak8tIbntWLl3ROGousKZBNApgUiDSj+Jd19yWfqMptbj6da9JqaWoGWvedGLatnfeLHdctt0amzAEAuUlEI7uOrwUWWPcELyNNCz/rmI3MLJTOhwqhnSFBV0VQCef6Whuh+pc8oCAxlwF8KIUiB+ekmiTjDN1DzwszgVblynTyWrD6/zbbCIe1WViWnHPPD1DoImA86kMsT/JBW98B5+FEOgmdlX0qNDVCWiM5hYSIms6jVIgXpiWaJOM752Ilpebfua06FJo1hjpkCG6TJlt5q7d8DrbTBrInsZR3YllKwZqi5shAIHUCBgRt5ciaySB4G2kYen3TmIXoWtp0CwyS0f5devkaCm0vzlxdgUIRn8TRUmXKbv7yl2L6hb9Y3jt2qJNSK1/lhtLDSUNQSBlAma/bN0ynnKjhTWH4C0MfbKO19xvdgct0hgQusn4UWsxgYXR3x9Niv5rgK7YweS3xYxa/brr6tusWaZs1YXnebGzmi43dv1VNwnLjbV64jgHgcIJmISju4UbmtQABG9SUgXUU7ErRsak4UDoNsDg68AEdPR3YfKbjv4enST1oQVVXabsS1fZMcq79g2vb2GhW6d0VHfzL35Q7nvdxW4ZjrUQKA+Bh3wa3dWwIXiVgoWlldjVSUinWXHBwmj5YVI0+vvjKVmU+vDS9ODOedKCDZtRLF+31unR3ThXl1FdT/6jwA1fCRiZNR/3zTkEr4URbRa7uo6u/tOzTkJSUWKhyZjkGQF9zqLNL75/Klq/eWp+1Qf9FwbPXE3sjo7y3lXwZhSrL1yf2F7bKrICg20RwZ4iCDjRp5EjPmw0IU0HgrcJSNE/G8Wuioto5YVwVFf/6blo2+i/nAT0OVwkfv/hVdE1f/V82YjoZhTH1hWTUlAdHpZVF5zvHPJ4VFfX1WUFBufCh8HlI2CkKs5vI9wqbJVWJzlXDIFGsaubRsTpC8VYQ6/FELC/13jNX13rWXd801Qb+61Oz8KPvPez6TXWQ0vnvP7CHmrbUXXPJddEu6Wxrq4d8cAKCHQnYMbFk40mmn1F8DYTKeh3LHZ11Gz66KTophH6z8oFmUO3EEhEIBK/TWkPiW50uFJRm1GsOHfUGWqHztsgW677NzJ2ydXCqK4zYbPPUCzKm4CRSrAn707z6q+SV0f0055ALHY1V1dHdWd+PNW+MlcgYCEB/YvaQtqDrvbww1Ner/Zw1zW35RqFVY4sRaZLjd1x2bvluqtvliMjr8mVEZ1BAAKDEvB3dFfJIHiVQoElFruzochVscuobk/BoLKFBPQZVvHbuNpD/dSshZb2b1Leo7wuLEW2742Xiy41tvdNb+8fLHdCAAJFEfB6dFehIniVQkFFxa6ZMWPRCgxHJwuygm4hkB2BWPyefuyknD7ySjTZre7JDm95jfLavhTZo+sulG3vvFlu/V/fI6QvZPffUveWqQGBQQj4PbqrZCr6RsmfwOq/MLfVX62NnWYFhvzh02MhBOqTNZlq2OFNV3ooxJCUOs1rlNfWpcji9IW3/vyvCJPSUnqoaAYCxRDwfnRXsSJ4lULOZfX95pbasam9Z544KToCllf39AMBWwjoMnsqfqOVHhzO9816lLdq6VJkpC/Y8l8SdkAgDQL+j+4qJQSvUsixqNidffrM/qmjk6ITfXLsmq4gYB0B/W+gMd9XR31dSnnIepR37YbXWRWzh87b4Ev6glVcMQYCBRIoxeiu8kXwKoWcyup7zS3Tf//q/ulnTufUI91AwB0C+q8dOup7+nsnJFrf9ydurFaS1Sivju4Or11rRQDj9IVtV99M+oIVEcEICKRG4CFf191tJoTgbSYS/075c8V/nr3lzD+8sl/XLU25aZqDgHcE9L8TFb+T80uc1S2e6JbVKO/wyDlSXTFceGz3vulKVl8oPAoYAIFMCBipBh/KpGULG0Xw5hCU6qde2TF99NX9Omknh+7oAgLeENBRX0150FFfXc1EUx5sdO4j7/ls6mYVvRSZbh6x6Rd/Xe64bLuw+kLq4aVBCFhAwOyXt196xAJDcjEBwZsx5mWff/UKM1Xbp39wZ9wVzUPAawILE90sHPU9NnKRHLj8xtT4rypwo4l4mTHdPGJ81UhqPtEQBCBgFQEjMvtxqyzK2JiUBG/GVrra/G8fv2L2pelDpmb4U8PVGGK3dQT0L482jvredfVtqbFa87oLU2sraUMTy4bD0dx3C8uMJSVGPQi4TMDsl61bxl32oFfbEby9EktaPxS7QcUcCqsjdkMIvCCQBQGbRn11lPeRDVeKDOiobjSxbPXqAVtJfrsK3T2XXCObfvGDspdd0pKDoyYEnCUQHC3b6K6GCsGrFNIuiN20idIeBDoSaBz11RUeaieK2co4jRUb8txo4s43XRkJ3bFLrhbydDs+YlyEgC8EjBjzn/Ia3bUJWsUmY7ywZez4RkZ2vYgkTjhKQFd40E1ddIUHneSW5woPg67YUM1powldT1cnpN1+2XZB6Dr6oGM2BPoiYMblHW/e29etjt9Ucdx+u8xXsTtDGoNdQcEauwlkZ52O+urSZrrCw9QPT0lewneQUd6sN5pQobvtnTeLrqfLhLTsnj1ahoClBIxUgj2W2pa5WQjetBDHYjeQjcIBAQhYRSDPSW7No7zfr66Uby4flT9ecb7sW/mahfJfh9eLXotBZTm62yh0Hzp/Q9wlnxCAgE0EMrfF7C/LJhOtUCJ4W1Hp9Rxit1di1IdAIQQaJ7llme7we1f9X6KC9va1/0x+d80b5Y9XXiDfHD5XvrN83UL5ryvOi679yrqLIxF8+rWvTZ3J+Kp1cv1VN0Ujugjd1PHSIARcImCkZMuQNQcHwdtMpNffY8dHghlzQBjZ7ZUc9XsnwB0pEcgq3WFo6pRsePiPRA59QVTQTgbJ/herQvjXjg/L5589Lc9P1wf2UoXuzre9J5qQdt/rLh64PRqAAAQcJ1A3Hy/jRLXGqCX7v3HjHXxfRCCYNftCsXvFopP8gAAEnCHQmO4wyOoOK155Xt765V8NBe9/FhW+/QD4xvFp+cjRU3L4lZl+bhddYuyOy94dCd27N1zeVxvcBAE3CGBlcgLmqPzcW8aS1/ezZsVPt/LxqvLR47vDnnaEhRcEIOA4AU13aFzdoRd3VOxe9rV/JytOPt/LbS3r6gjvJ56alD96fqrl9VYnVeiylm4rMpyDQOkJmJDArWEp/QvB2+cjoGLXiBnr83Zuy4EAXUCgHwJxuoMuazbzzOmuqzukKXYb7f3yT87IN453HultFLqspdtIj+8QgMAcAbNftr7lobnv5X5H8PYT/4+8uMMgdvshxz0QcIaACt/pZ85It2XN0hrZbQXmD358umVOL0K3FS3OdSDApVISKOeOau1CjeBtR6bdeV2RoVrZ1+4y5yEAAf8IxHm+up5vY56vTlBLI42hHbFTNRNNZIuv62Q03SxCtwFmRDemwicEINCCgJGK2VP2iWqNXBC8jTS6fVex6+vGEt185zoEICAqfDXP98zfnZRlTz0rrz9yIHMqf3tqVv6rWSPxqgt3vulKYXe0zLHTAQQcJ2BKveZuq+BVWp3kXGsCwaz5vLD8WGs4nIVAiQjoBLeR7/33vldj6BXVJ19dIay60Cu1/utzJwTcJkAqQ6v4IXhbUWlxrsKKDC2ocAoC5SWw8fn7c3N+/fj/lKEzp3Prj44gAAFnCZDK0CZ0CN42YBadXjJJbdFVfkAAAiUjsHLqBVk5/UKuXl905K9z7Y/OIAABFwmQytAuagjedmTi85q3W6l8Pv7JJwQgAIG1p5/KHcLaf3ou9z4TdUglCEDAEgKkMnQKBIK3E53wWjBjDpC3G4LgBQEILBA4ZzJ/wbvyxMsL/fMFAhCAQBMBI1K/lVUZmqg0/MxD8DZ059bXKG83kCuEAwIQgEADgWW1yYZf+XxdNYHgzYc0vUDAQQJ183E2mOgcNwRvOz4fPX4tm0u0g8N5CECgPwL93zW9YmX/N3MnBCDgMQFzVH7uLWMeO5iKawjeVhg1b9cYNpdoxYZzEICAzFRX5U5hFsGbO3M6hID1BIw5LjJ7nfV2tjIw53MI3hbAKzO1MfJ2W4DhFAQgEBE4PXx+9Jnn28wwI7x58qYvCDhAwEg1uIO83WSRQvA2c/rtF3eaoHJL82l+QwACuROwtsOXz7kkd9te3vhTufdJhxCAgMUENG/3yjffbbGFVpmG4G0Mh6YyBJXdjaf4DgEIQKCZwOnl58tszmkNz/8vlzabwW8IQKA0BJY4+ih5u0uYdDyB4G3AE8yafaQyNADhKwQg0JbA0Qt/qe21tC+ceM3r5PTIuWk3S3sQgICTBHS93ZkbnDS9QKMRvPPwKx89flv49dqw8IKAkwQwOkcCq1+Sp3/plMyuDHLp9Mfb3i2VajWXvugEAhCwmoCR+vQN5O32HiMErzIbO77RiBnTrxQIQAACbQmEQrdy1R9K9b3/XmqXPixPXb1Csj6m1p8nx699l6y78EJZPTIi1aGhrLukfQi4TsBX+40Y+ZD83JYjvjqYpV8I3pButCqDyIhwQAACEGhF4IIfSOXn90ZCN9h8eKHGU1cPy+nRbP83+sS//dhCf8tXrZK1F1wg56xfL/p94QJfIAAB/wnoJLV3vHmv/45m42G2/6fOxuZ0W2VVhnR5utIadkIgCYFY6P7CnRJc+MMld2hKw1//6jmZpTaM3/SvZGr90iXQhoaHo9FeHfVF+C4JCycg4COBQ0xSGyyslcFud/zuseMbA1ZlcDyImA+BDAh0EbqNPZ4+tyLf/X/TF73P/B83yo9/vvPEuEq1uiB8V61dS55vY2D4npgAFW0nYI7KCiapDRqlUgveKJUhkI3CAQEIQEAJaI6upi60GdHVKq3KyddX5Tv/dm0q6Q2zq1aJjuw++89vbNVVy3OValWG16xZyPOtVKvCAQEI+EBAV2SYvU62bJnwwZsifSiv4A1Hd9lgIumjRz0IeE5Ahe78ZLRWqQtJvNeRXk1veO5nlyep3rLOiZ++RB7/6Ke7juy2vHn+pKY4aKoDeb7zQPiAgKsEjDkuMn0dKzKkE8DSCt5gxhxKByGtQAACzhJYNinxqguNk9H69UdF79/9y9XyV7+xWp79aSMzy02ipl56rZHH/59/JU/+24+1zNlN1EhTpaHh4YV0BxXBlSqjvk2I+vvJXRDIh4CRQFh+LEXWlRTbcqapaM1dUhmciReGQiB1AqHQDd7ydanu2C1pCN1m+07JtDx+jZEHbzFy+J/X5YdvNfL8BiMqbLXo96NvNvLYNXV54Oa6PPzPjfzTyu82N5PK70q1GgnfteefH31WqgjfVMDSCASyI2BE6rfK1rc8lF0X5Wu5fIJXUxmMuT3DUNM0BCBgK4EGoVt5y5+LhL/TNtXM1MScmFpo9uXXivzwbUb+ZruJhK2KW/3+91uNHPtpkdnhuSWDas0AABAASURBVKqzJ5+UmbDM/Ur/PahUREd643SHZStWpN8JLUIAAoMT0OXHtl62f/CGaKGRQKXxRxm+M1GtDFHGRwgsJRBcfCga0c1K6MY91l84HX/t+fPMc/f0fE8/NwwND8uac8+NJrmpCK5Usxr17cc67oFAiQnUzR6WH8sm/uUSvDq6G1RuyQYlrUIAAjYSCC56LNowovK2UEwum8zUxObR3V47y3qUt9meSnUu3UFHfVePjLCLWzMgfkMgTwKI3UxpFy54M/WuqfFg1uxrOsVPCEDAVwLza+lWrv4DkdUv5eKlefnMwP3kNcrbbKiO9K5lF7dmLPyGQD4EELuZcy6P4P3tF3eGNK8NCy8IQMBnAqG4jbYB7nEt3TSQ1E9OD9JMdG/eo7xRpw1vQ8PD0eS2eNS3Uq02XOUrBCCQOgHEbupIWzVYaXXSx3NBUNnto1/4BAEIzBNYNinB2+6J0hf6XUt3vqW+PuoTUyIz9b7ubb6pqFHeRjsq1aroqK8KX9b0FQ4IZEMAsduGa/qnyyF4dXQ3EHZUEw4I+EkgXmKscnFxy2vXX5xMDW7Ro7zNjgwNDzPq2wyF3xAYkEBlqMoEtQEZ9nJ7pZfKTtYdO76R0V0nI4fREOhIILp4wQ+iEd2sV16I+urwlubobtyNDaO8sS3xZ6VaZdRXOCAwGIGgEoT/Ha3cU//ZS8YGa4m7eyFQ6aWyi3Urs3KLMLrrYuiwGQLtCTTk6eY1Ia29MbJo3d1O9Xq5Ztsob7PtQ8PDi0Z9q0NDzVX4DQEINBGoVKuyamTd/unLfypNsdvUCz9bEai0OunNuXB01xijk9W8cQlHIFBqAssmJUpfeO+/lyLydFuxj5Yim5xpdWngczaO8jY7ValWRXN9115wgehubvq9UmWim3BAoIlApVrVvyTuP3XxRbuaLvEzBwJeC142mcjhCaILNwh4YGWw+fDZjSMs8meQjSa6uWH7KG+z/dVly/QP9GhDi9UjIzK0fLlwQAACIvoXwTXr1+8/+dOvRewW9ED4K3h1dJdNJgp6rOgWAikSuOAHosuMVa76Q8liK+BBLI1Gdxu2ER6krXb3ujDK28p2/QP+nPPOWxC/lWq1VTXOQSB3Anl3uOKcc2TN2nX7X/mpCxC7ecNv6K/S8N2rr9Horlce4QwESkZg2aREy4wVsJ5uUtJpbDTRrS/XRnmb/alUq6LiV5c3I+VBOEpEoFKtii7pt2r1mv0vb1qP2C049n4KXkZ3C36sXO8e+4smsJC+UOAyY0kYpLHRRJJ+XB3lbfatMeVhzehoJISb6/AbAj4Q0HQe/ReOoeHhRxG7dkTUS8HL6K4dDxdWQKBnAvOrL9iYvtDsSxZLkTX3Ef/WUd6pF78V//Tic9nKlVG+78hrXhN9qkDwwjHfnMCfngmsWrdOVOxWqtVHTT24rucGuCETAv4JXkZ3M3lQaBQCmRJYNinR6gu//BlrVl/o5m+aG01060uv+zLKq740lqBSEU15UIGgaQ+rmezWiIfvDhEIBW60Usnw6tVqdSR2JzaNTugPSvEEvBO8jO7m/lDRIQQGI3DBD6QaCt2iN4/oxQmjy5DN1Hu5ZeC69ekX5Mzz9w/cjs0NqGBA/NocIWxrR0BFruaoa9pOWAexG0Kw7eWX4GV017bnC3sg0J7AsnBU9233SPUX7hQbNo9ob+jSK1E6w9LTmZ/RUV5TO5V5PzZ00Cx+V61dK/ZvbmEDOWzIk4Cm4qjQ1TQG/deKsG/EbgjBxpdXgpfRXRsfMWyCwFICwUWPzY3qWj4pbanlInksRdaqXz2nYtf3UV71s7mo+B1es0bWXnDBwjJnKjSa6/EbAnkRCCqBqMjVVJz5UV3t+qipBzeQxqAo7Cv+CF4d3ZXKNfYhXmwRvyBQagLLJqVy9R9ExbVR3ThuWW40EffR6XPq+ftFhW+nOj5fU/FL2oPPEbbfN01fWHfBhaKfDdaq2L0uFLvjDef4ahEBfwTvTH2HBLJROCAAASsJBOFobnXHbtHRXSsNTGhUlL+bsG4W1VTsejLKOzCeVuJ32YoVoqNvAzdOAxBoIqD/qhCtq7tuXfiMLZJPiN0mVjb+XBQxGw1MalMgwW1J61IPAhDIkUC81Njb7hHbdkrrlUKUu5vzZLVWNuoob33qhVaXSnsuFr9rzj1XRl7z2mjBfx0J1vOlhYLjqRCIha6mLwwNDze3idhtJmLp74qlds2ZlfT9t1/cyehuUljUg0B+BKJR3V92Z6mxbmTMy6e7Vcnluo7yTj5zdy59udrJ0PBwtL6vLnUWTSpau1ZUuLjqD3bnT0CfFx3RbSN01SDErlJwpFQcsbOjmUFQ2d2xAhchAIF8CcS5uh6M6sbgNJXBTNXin7l/Nnc4M/HXMnPyyebT/G5BQCcV6aQ3FS4qgHWtX0Z/W4DiVEQggdDVeohdpeBQcV/wfvRFcncdeuAw1X8CmqPrQ65uc6SidIbmkwX/1mXKCjbBue41xUHFropeFb+M/joXwswMTih0tX/ErlIorvTVs/OCN5AKubvCAQELCISjukE4oqurMLieq9tMs8ilyJptafw9G47wMsrbSKT3742jvyOveU2U+6uz71nzt3eWLt6hExw13voXH/0XgKHhJTm6zW4hdpuJOPLbbcE7dlxXZbjWEdaYCQF/CcS7pV18yA4fU7bCnJpNucX0mps8+oVSL1OWHkmJZt4PDQ9H66uunV/zd83oqOiIMAJYvDp0NFc3M9HlxXQ9Xf2LTwIHEbsJINlapWKrYUnsYqOJJJSoA4FsCeiorou7pfVCpf7iZC/Vc61bhi2HcwXa0JmmPyxbuTKa/La2QQDriCACuAGUI1/j0dx4Iprmdc/vjpbEA2fFbhLnylDHXcEbju6aoHJLGYKEjxCwksDql6T6S5+WiqejujFznawmFixFFtvT6lOXKdOVG1pd41x6BGIBrCOCKoDjFIgV55wTrQChgiq93mgpDQIaE/0Liorckde8Nhq9HxrumrbQ3PVxUw/YVKKZimO/3RW80zVSGRx72DDXVgK92xUvNyajz/Z+s2N32DhZrRmhit3Tx+5pPs3vjAno6ODQ8LCsDAWv5n+qoNJc0NUjI0IaRMbwOzSvfzFJQeTGPSB2YxKOfzoreFmKzPEnD/PdJLBsUoKtfyiVt4XiKvzuphPJrbZ1slorD6Z+cj/LlLUCk/M5zQVVsauid+0FF8jI/EQ4zRfVXeBIhUg/IDqKezYn9wLR1Td0FH5ouOeRXJHF5sVi98ji0/xykYCbgpelyFx81rDZdQLhaG71lz8jlU2HXfcksf3mxFTiujZUZJkyG6Kw2IZ4FFjzRXUXOBXBo697XbQahIpgHYlUsaaibfGd/GpHQFkps2hkff160YlnOsKujCtDQ+1u6/U8YrdXYpbXd1LwBkLurnAURaCU/UYpDL/0aZHVL5XKfxfSGRoDosuUTU98t/EU3y0lMDQ8LCrQdCRSxdrIa167aDQYIXw2cDoqvnzlStG/IGjKiLJSZlHudMhR/1JxtnYq3xC7qWC0qxH3BO9YtBTZDrswYg0EPCWwbFJ0Xd0ohcFTF9u5ZU5Oi+2T1VrZfvrpL7FMWSswDpxT4TY03FoIq9DTJdJU5Kn40xFOFYLFupVu75p7q2kfKvZXjYyI+qyj4WsvuEBWj45Gf0HQlJF0e13SmpmfoEYawxI0bp+ouGY+S5G5FjHsdZbAfAqD7pzmrA8DGF5XwTvA/UXdyjJlRZHPrl8Vwir0dIk0/Wd8FX86wqlCUAXhulAQ6ioEKoh1FLRZFKuQzM66ZC1rGoLaoYJWBbvauCoUtWqz2h/5ceGFomkfOuo9vGqVqM/JWk+tVih267dObBpF7KaG1J6GKvaYkswSI5VrktWklg0EsMFNAlEKwy/cWboUhjhaLk1Wi21u/NRlyupTLzSe4rvHBDRvdWh4WFQQa5pEsyjWSVwqKLWouFx7/vlRDrGK5FWh6NSiArSxqCjtVnQktvEebUeLilhtW/vSov1qGoLaoYJWBbvaqKJWbVb7LQjPvNg9b78FtmBCBgQqGbSZXZNMVsuOLS1DQAksmxTdSCJKYQi/66kyFpt3VksSD12m7NT4F5JUpU5+BKzoScWljpwODQ/L0PCwqOjUogK0sago7VZ0JLbxHm1Hi4rYoeFh0b60WOF4ZyMQu535eHHVKcEbMFlNOCCQGYHVL4numOb7RhJJ+Nm8s1oS+7WOTmCbOfmkfqVAAALtCSB227Px6oo7grcMk9W8erRwxikCF/xAdMmxMmwk0S0uLuys1s2H+Prk0S8wgS2GwScElhIIxa750MQm0hiWovHvjDuCl53V/Hv68MgKAgv5uiVOYWgMhGtLkTXa3vzd5Qlszb7wGwJpEwjq5uMTm9bvTbtd2rOTgDOCl53V7HyAsMphAqHAXdg1zWE30jTd9clqrVjoZhRMYGtFhnNlJhCK3T0vb1o/VmYGZfPdDcH70ePXSiAbZdHBDwhAoG8Ccb5uiXZNS8LK9clq7XxkAls7MpwvIwHEbhmjLuKE4K2Y2s5yhgevIZABAV1fV5ccCz8zaN3pJl3bSngBdpcvOoHtzPP3d6nFZQj4TwCx63+M23nohOBl7d124eM8BHojEIQjuroSQ9m2CE5CKUpnmJxJUtXJOpraoMuVOWk8RkMgBQKI3RQgOtBEOxPtF7y//eJO0hnahY/zEEhOIHjLn0tl6x+KLJtMflOJatZfOO21typ2J5/+ktc+4hwE2hFA7LYjU57zFdtdDSqV99puI/ZBwHYC0eS0t3zddjNzsq91N9FyZK0veXN2+qVvCWvzehNOHElIALGbEJTn1ewWvKy96/njh3uZEwhHcys/v1cqmw5n3pXLHURid6busguJbWdt3sSoqOgBAcRulyCW6LLdgpe1d0v0KOJq6gR0JYZf/owEF/4w9aZ9a9CntXe7xUbX5j197J5u1bgOAecJIHadD2GqDlgteINK5ZZUvaUxCJSFgIpdXYkh/BzQZe9vjyarnZjy3s9GB6d+cj+pDY1A+O4dAcSudyEd2CF7Be9cOsO1A3tIAxAoG4HRZ+e2CUbsJoq8r2vvdnNeUxu61eE6BFwkEIrd/dlsKuEiDWyOCdgreElniGPEJwQSE4iWHfulTwsrMSRGJr6uvduNQJTa8BypDd04cd0tAvNid5dbVmNtHgQqeXTSTx+kM/RDjXuKJlBk/8HFh+aWHSvSCMf6jtIZPF57t1s4dG3e2uR4t2pch4ATBBC7ToSpMCPtFLykMxT2QNCxmwSiNXbfxmhdr9EzJ/3daCIpi1PjX0halXoQ6IVArnURu7nidrIzOwUv6QxOPkwYXQyBSOyyxm5f8Osv+73ZRBIotcmn5DSpDUlQUcdSAohdSwNjmVlWCl7SGSx7SrIyh3YHJoDY7R+hmZoVKcnau90okdrQjRDXLSbw6MsTT99hsX2YZgkB+wQv6QyWPBrsEuBAAAAQAElEQVSYYTsBxO5gEaq/dGawBjy7+9Uf/a7o9sOeueWMOxjaF4FHTT24TrZsmejrbm4qFQH7BC/pDKV6AHG2PwLB1j+UCmkM/cGbvyvaXW3+Ox8i0aoNbEjBo+AOgUjsTmwaRey6E7NCLbVO8JLO0O554DwE5ghEYnfT4bkfvPdFIBK7pDMsYceGFEuQcMJOAohdO+NitVV2CV7SGax+WDCueAKI3XRiUKathHslNnn09+xPbejVKer7RACx61M0c/TFLsFLOkOOoacr1wggdtOLWDTCm15zXrVUn/6JnCa1wauYeuTMUVMPbiCNwaOI5uiKVYI3qFTem5LvNAMBrwhEE9RIY0glppHYJZ2hI0tNbZie+G7HOlyEQM4EVOxeF4pddkrJGbwv3VkleEOoO8LCCwIQaCAQiV0mqDUQGexr+dIZ+uOlqQ31qRf6u5m7IJAuAcRuujxL2Zo9gvejLyJ2S/kI4nQnAojdTnT6uxaN8PZ3a6nu0iXK2IWtVCG31VnErq2RccyuSPDaYHPFCIJXOCBwlgBi9yyLtL5FYpd0hsQ4Z08+KWeevz9xfSpCIGUCiN2UgZa5OWsEr5HKNWUOBL5DoJFAcPEh1tltBJLS9wTpDCn15E8zp5+5W2ZC4euPR3jiCAHEriOBcsVMOwTv2PErJJCNwgEBCEhw0WNSeds9kMiAQDTCm0G7vjep+bya4uC7n/hnDQHErhWh8MsIOwTvbJ10Br+eK7zpl8Dos1LZ+p/7vZv7OhCIxC7pDB0Itb+kS5WdOvqF9hW4AoH0CCB202NJSw0ErBC8gQSkMzQEha8lJbD6Jale/QciyyadAeCSoaQzDBatmYm/Jp93MITc3Z0AYrc7I2r0SaDS533p3cbuaumxpCV3CajY/YU7RcJPd52w2/JohNduE6237sxz90htkmVQrQ+Umwa6LnbdpF4iq4sXvOyuVqLHDVfbEYhGdhG77fAMfD4Su6QzDM6xdkpe/dHnhHzegVHSwGICx009YFOJxUz4lTKBwgVvJZBrhQMCZSDQxsdAJ6iNPtvmKqfTIEA6QxoU59ogn3eOA++pEUDspoaShjoRKFzwGpYj6xQfrnlOIFpr9+JDnntZvHvRCG/xZnhjAfm83oSyMEfmO47F7pH533xAIDMCxQrejx6/luXIMostDVtOIFp+7C1ft9xK980zU7MipDOkHkjW500dadkaROyWLeIF+1us4DX1Kwr2n+6tJeC5Yatfksrbvua5k3a4Z16ZtsMQD62YPPoFqU+94KFnuJQxAcRuxoBpfimBQgVvEATvXWoSZyDgOYFlk1JlRYbcgmxOInizgl2ffkFe/Z+/m1XztBsT8OvTmHrtholNo6Qx+BVX670pTvCOHR8J6VwbFl4QKBWB4LI/Z/mxnCJuZmpipmo59VbObnSZssmn7y6n83jdK4FQ7NZvndh0/kO93kh9CAxKoDjBO1tD7A4avbP3880RAsHFh6QSFkfMdd5Mc2rWeR9ccGDqJ/ezKYULgSrWxnmxe97+Ys2g97ISKE7wSoDgLetTV1a/o7zde8rqfSF+mxNThfRbxk51EpuO9hbvOxZYSACxa2FQymZSYYI3kOCassHG3xITiPN2S4wgd9drRliOLF/qr/7od5nEli9yF3pD7LoQpRLYWIzgHTu+MWRb2AoNYd+8IJArAfJ2c8UddYbYjTDk+jY3ie0/shNbrtSt7iwUu+ZDE5tIY7A6SiUxrhjBO1tD7JbkAcNNkWDzYfJ2Jf+jzuoMSaCnXqc2+ZRMPv2l1NulQfcIBHXz8YlN6/e6ZzkW+0igEMFbMbJDOCBQBgKat/uWPy+Dp9b5yAhvcSGZfulbcvo58tWLi0DxPYdid8/Lm9aPFW8JFkBgjkB3wTtXL9V3E1QuT7VBGoOApQQqKnZD0Wuped6aZdhdrfDYngkF7/SL3yrcDgzInwBiN3/m9NidQP6Cl/zd7lGhhhcENJVBixfOOOZEVsuROYahcHNPjX9BapPjhduBAfkRQOzmx5qeeiOQv+Alf7e3CFHbTQLhqG40uuum9c5bze5q9oTw5Pc/wcoN9oQjU0sQu5nita1x5+zJXfBWyN917iHB4N4JRGI3FL2938kdAxNgObKBEabZgKmdkpPf/ziiN02oFraF2LUwKJi0iEDugpf83UX8+eEhAU1j0OKha725VFBtJqsVBL5DtyxX1gGOB5cQux4EsQQu5Ct4yd8twSOFi9HoLhgKI8ByZIWh79hxjeXKOvJx9SJiN1nkqFU8gXwFL/m7xUccCzIlELAqQ6Z8EzV+ZjZRNSrlT0CXK5t8+u78O6bHTAggdjPBSqMZEchX8EpwbUZ+0CwEiiew+iWpvOXrfdrBbWkQMDM1MVO1NJqijYwITP3kftbozYhtns0idvOkTV9pEMhV8AYSXJOG0bQBARsJkMpQfFRYjqz4GCSxQNfoZWOKJKTsrBOK3f2Zbiphp9tY5TiB/ATv2PGRkNUVYeEFAf8IhKO7TFQrPqxMWCs+BkktUNHLxhRJadlTb17s7rLHIiyBQDIC+QneWUHsCkdKBKxrhtFdO0KC4LUjDkmt0I0pEL1JaRVfD7FbfAywoH8C+QleqZO/23+cuNNmAhf+UBjdLT5Ahu2Eiw9CHxao6J05+WQfd3LLHIF83hG7+XCml+wI5CZ4yd/NLoi0XCyBypuZqFZsBOZ6N6eZrDZHwr33Uz/6XbYgtjhsJggOvLxpPWkMFscI07oTyE3whqaQ0hBCKOJFnxkS0NzdcIQ3wx5oOiEB8+p0wppUs43A3G5sn0D02haYOXselZrcOveVdwi4SyAfwTt2XMWuTlpzlxSWQ6AFAXJ3W0Ap6JRh/d2CyKfTbU6iNx1jy9PKo6YeXDexaXSiPC7jqa8E8hG80zUVvL4yxK+yEtDR3c2Hy+q9VX6Tv2tVOPo2BtHbN7osbkTsZkGVNgsjkIvgrQTizoQ14YBAMgKM7ibjlEct8nfzoJxPH4jefDh36QWx2wUQl90jkIvgNUHlcvfQYDEEOhMIyN3tDCjHqyxHlg3solpF9BZFPuoXsRth4M03AtkLXjac8O2ZwZ+QQLQM2eqXwm+8bCCA4LUhCunaEIve6YnvptswrXUicNTUgxvI2e2EiGuuEhhQ8CZwmw0nEkCiimsEgtc/5prJ3tprZmoiM3Vv/SuzYyp6dckyNqfI5SlQsasT1MZz6Y1OIJAzgewFLxtO5BxSusucQDiyG7zh8cy7oYOEBM6Egjdh1Uyr0XhmBHRzijPP359Z+zQsiF0eAu8JZC54AwnI3/X+MSqXg+Tu2hVv0hnsikdW1px+5m45/dw9WTVf5nYRu2WOfka+29hs5oI3dJoVGkIIvPwhQDqDXbE0jPDaFZAMrTkTCl5Eb6qAEbup4qQxmwlkK3jHjm8MnWfDiRACL38IMMKbRizTa4MR3vRYutCSit7Jp+92wVTbbRw3c5tKkLNre6SwLxUC2Qre2RobTqQSJhqxhoAuRbb8tDXmlN0QxG45n4Cpn9wvrzz570QntZWTwMBe68jutolNo4jdgVGm0ABN5EIgW8ErAYI3lzDSSV4EgpFn8+qKfhIQIJ0hASRPq9Qmn5JXnviw1Kde8NTDzNxSsctqDJnhpWFbCWQqeAMJrrHVceyCQD8Eggt+0M9tg97D/W0IMMLbBkxJTtenX5CT3/+41CYZqEwYcsRuQlBU849ApoI3xMUIbwiBlz8EgjUv++OMD55M13zwAh8GIKCi95UnPywsW9YVoidit6ufVIBASwLZCV4mrLUEzknHCYyS0mBNBGtGzBSC15p4FGwIy5Z1DMBxJqh15MPFEhDITvAyYa0Ej4+dLmZmFfm7maHtp2EzNdvPbdzjMQFdwUFTHMjrXRRkxO4iHPwoK4HsBC8T1sr6TPnr9zCrM9gUXCas2RQNe2yZPflklNeL6I1iEovdI9Ev3iBQYgKZCd6AHdZK/Fj56Xqw+iU/HXPUKyasORq4HMzWvN4Tf/vrZc/rRezm8KzRhTsEMhO8YoQJa+LAgYkQcJUAE9ZcjVxudmte76mjXyjjer2I3dyeMjpyhUA2gnfs+IgEorusCQcEIACB1AkwYS11pL42OP3StxKv1+sJA2Pq9VsnNo2SxuBJQHEjHQLZCN5ZYXRXOCAAgawIMGEtK7J+thunOJx+7h4/HTzr1bzYPe++s6f4BgEIKIFsBK+peyp4FRmltASmV5XWddscZ8KabRFxwx5dxeHE47/u6+5ssdjd70Y0sBIC+RLIRPAGATus5RtGesuDgDn++jy6oY8kBGZYfzcJpkzrONq4p6O9iF1Hn0fMzo9AJoI3NJ/83RACL88InFovMr3SM6fcdIcRXjfjZpPVHo32InZterCwxVoCWQleTWmw1mkMg0C/BMzxi/q9lftSJGDOsOlEijhL25QHo72h2DUfmth0HmkMpX2KcTwpgfQF79hxxG5S+tRzjoD5yU87Z7N3BteMSD0sTjmGsTYTiEd7p178ls1mLrEtqJuPT2xav3fJBU5AAAJLCKQveGdrpDMswcwJbwj85J9544qrjrBCg6uRs9tuHe2dHP+CM7u0hWJ3z8ub1o/ZTRXrINCCQEGn0he8EjDCW1Aw6TZ7Aub5fyZasu+JHtoRMGdq7S5xHgIDE5g9+aToLm26YUV96oWB28uiAcRuFlRp03cCqQveQFihwfeHpuz+mb/738uOIGv/O7fPCg2d+XA1FQK6YYWNwhexm0p4aaSEBFIXvCHDkbDwgoC3BHSEV4u3DlruGCO8lgfIM/NsEr5TP/6z4y8f+T+ZoObZM9bZHa6mRSBdwTt2XMUuKQ1pRYd2rCVQP/yvWKKsqOjU6kX1TL8lJhAL31d/9B9l5uSTuZOYfOZLMnnsy6NSrx+UA7/IXJncI0CHrhNIV/CypbDrzwP2JyVwar3U//v/nbR2pvXK1riZIoe3bDG3yd+Zib+WV7//cdEd2848/+eZ79qmecQnw/6mwr7mOWxC9M6T4AMCPRBIV/BKTUd4e+ieqhBwl4CmNdQf+ZcT7nrgnuVmivV33Yuanxbrqg6nw1FXzfM9qYL0xW+lKn7N7Ck5/dw98sqTHxadSNdEEdHbBGT+Jx8QaEsgZcEbXNu2Jy5AwD8CE/UfvHObMWaXf65Z6pGuwWupaZhVXgIqSHVJMxW/rzz570RXeJie+K7MTo73BEVFrt736o9+V0787QdF1wc2tVPt2kD0tiPDeQi0IJCq4A0kuLxFH5yCgD0E0rNkwtSDbfKp0SO1S7+6H9GbHthOLTFhrRMdrtlAoDb5lGi+76lQtJ4MR2cnHv3X0dq+r/7oP8rk03dHo7Y6chsXPacCWcXyxJF/LXrfTCiWOwjdRjdV9H5P/uRdzJ1ppMJ3CLQgUGlxbpBTpDQMQo97nSEQi93Y4AXRawJSHGIoWXyyJFkWVGkzQwIqXHUEWHN/p35yfzRqqyO3cdFzM2jH3gAAEABJREFUKpA1V7dPM0alGhzsR/T22R+3QcBJAukJXlZocPIBwOjeCZigvktHdpvvVNEbiGwTRG8zmtR+mxlWaEgNJg35RADR61M08SUTAukJXlZoyCRAxTZK780EIrH7ifParoM5c+mXjyB6m6ml+Hu6lmJjNAUBrwgger0KJ86kTSA9wcsKDWnHhvYsI9BN7MbmInpjEul/MsKbPlNaTEjAjWpzove//AITyN2IF1bmSCBFwRuQNJ9j4OgqXwJJxW5sFaI3JpHyZ92k3CDNQcA7AqNSqRyUe7ff4p1nOASBAQikJngDVmgYIAzcajMBY8wd0iGNoZ3tsegNJVpvaxO1a7Dk51mDt+QPAO73QiAQI/sQvb0go67vBFITvCGojWHhBQGvCBgxe+ST6/f265SK3lpgtiF6+yXYcB9r8DbAsP0r9llAANFrQRAwwR4CaQreK+xxC0sgMDiBSOz+zvqxgVu65KvjiN6BKYogeFOASBMlIxAII70lCznutiOQjuAdO96z2G1nEOchYAMBoyO7aYjd2BlEb0yi708mrPWNjhvLTWBO9H7t3beXGwPel51AOoJ3VkaEAwKeEEhd7MZcEL0xif4+/d10oj8e3AWB5AQCEfM5ObB9d/JbqAkBvwikI3hNnRFev56L0nqTmdiNiSJ6YxI9fxpSGnpmxg0QaCAQSF12I3obiPDVQgLZmZSO4A2ECWvC4TqBzMVuDAjRG5Po7ZNd1nrjRW0ILCWA6F3KhDMlIZCK4A1Ykqwkj4u/buYmdmOEiN6YRM+f3AABCAxEANE7ED5udpVAKoI3dJ4c3hACLzcJ5C52Y0yI3phEsk9yeJNxohYEuhNQ0TtGekN3UJbXwLweCKQleMnh7QE6Ve0hUJjYjREgemMSXT/J4e2KiAoQ6I0AOb298aK20wQGF7wsSeb0A1Bm4wsXuzH8LEVv3IcPn3Xjgxf4AAGbCOhILxPZbIoItmRGYHDBy5JkmQWHhrMjYIy5W9JcZ3dQU1X0Tg1vESNHhGMpAVZoWMqEMxBIh0BpRG86uGjFVQKDC16WJHM19qW1OxK7n1y/0zoAW/ZPzE4Pb0P0Lo2MYXR3KRTOQCA9Aoje9FjSkqUEBhe8LElmaWgxqxWBzmK31R05n0P0tgZer7c+z1kIQCAtAojetEjSjpUEBha8LElmZVwxqgUB68VubDOiNyZx9pOUhrMs+AaB7Aio6B2Tr73ri5JdH7QMgUIIDCx4Q6tZkiyEwMtuAs6I3RhjLHrFPBSf4hMCEIBAPgSCXYjefEjTS34E0hC8LEmWX7xs6skdW3Qi2KnK7e4YPG+pit6f+eo2U5e758+U94MR3vLGHs8LIoDoLQg83WZEoDJQux8+zpbCAwHk5swJhGLXnAq2yd7Ricz7yqiD2pu/srP0ordGDm9GjxfNpkLA10YCRnp9DW0J/RpM8A4Jglc4rCXggdiN2SJ6YxJ8QgAC+RJQ0bv9Xtl3LemL+YKnt5QJDCZ46zUEb8KAUC1nAkaOuD6y20wM0dtMhN8QgEBOBK6Xc4YPInpzok03mRAYTPBWAgRvJmGh0YEIeCh2Yx4qesXInfFvPiHgIAFMdpFAYLYgel0MHDbHBAYSvIEEl8cN8QkBKwgYGTe14HqXc3a7cZy99Cu3izF7utXjOgQgAIFUCSB6U8VJY/kSGEjwhqZmk9MTNswLAj0TmBO72+Qzo+M93+vYDbOXfnWsTKLXzDBpzbFHFHN9JYDo9TWy3vs1mOA1QkqDcFhBoERiN+ZdNtEb+122T/yFgHUEYtF74BfRANYFB4PaERhM8AbCwy4chRMoodiNmSN6YxJ8QgACuRJQ0VuvHxREb67YS97ZQO73L3jHjrPhxEDouTkVAiUWuzG/Uojeav//q4o58QkBCKROYJMgelOHSoPZEOj/T5FZIX9XOAolgNhdwO+76A2S/p9qgQhfIACBnAggenMCTTeDEej/jxHW4B2MPHcPRgCxu4Sf76J3icOcgAAEbCGA6LUlEg128HUxgf4FL2vwLibJr/wIIHbbskb0tkXDBQhAIFsCiN5s+dL6gAT6F7xGmLAmHLkTQOx2RZ5c9HZtigoQgAAEeiGA6O2FFnVzJdC34A2CYEOultIZBBC7iZ8BRG9iVFSEAATSJeCm6E2XAa1ZSKBvwRv6wqS1EAKv3AhMmFpQik0l0iKqotcYsyut9gptZ3m10O7pHAIQ6IkAorcnXFTOg8AggpdlyfKIEH0ogQlTL1zsqh3OldqlX93vjeh1jj4GQ6DUBBC9pQ6/fc73J3jHjjO6a18sfbVoTux+avSIrw5m7ZcXorcaZI2J9iEAgcQEEldE9CZGRcWsCfQneGeF0V3hyIEAYjclyM6L3kp//6tKCR/NQAAC/RNQ0fs9+ZN3oRv6Z8idKRDo80+RGiO8KcD3uYkUfEPspgCxsYlI9M7K9WKCicbzLnwPKoELZmIjBCDQmsCoVIODiN7WcDibD4H+BK8JWJIsn/iUthdTq+8S0hhSj3/tsq/cF4hsc070ktKQ+rNAg7kRoKM5AojeOQ68F0SgP8EbyIhwQCAjAiYIxe6nz7svo+ZL3+zMpV8+4qLoDZb197+r0gccABCwh8AoI732BKNslvT1J0ggweVlA5WpvzS+QCASu584b//CCb5kQsBV0ZsJDBqFAATyJDAneu/ZviPPTukLAn0J3hDbSFh4QSBVAojdVHF2bcw50buMtXi7BtWDCrhQCgKjEsi9cu/2W0rhLU5aQaA/wWtko3BAIEUCiN0UYfbQVCx6jci42H6Q0mB7hLAPAr0QCMTIPkRvL8ioOwiB/gRvIAUKXuHwjIAx5g4hjaGwqKrorQVmm+2iN2DiWmHPCB1DICMCiN6MwNLsUgK9C142nVhKkTN9EzBi9sgn1+/tuwFuTIfAJV8dt170ktKwNNacgYD7BBC97sfQCQ96F7wijO4KRxoEIrH7O+vH0miLNlIgYLnoDfr5v1UKWGgCAhDInMCc6P3au2/PvCc68JZAN8d6/yNkVkaEAwIDEjA6sovYHZBiBrfbLHpXDmXgME1CAAKWEAhEzOfkwPbdltiDGZ4R6F3w1muM8Hr2EOTtDmI3b+I99mer6B14e+EeOVAdAhDIm0AgddmN6M0bezn6613wVgIEbzmejUy8ROxmgjX9Ri0UvdHGE2wxnH6saRECdhFA9OYRjxL20bvgFSGlQTj6IYDY7YdagffYKnoLRELXEIBALgQQvblgLlcnPQveQIIN5UKEt2kQQOymQTHXNuY6s030riCPdy4wvEPAewKIXu9DnK+DPQve0DxGeEMIvJITQOwmZ2VlTYtEL2vxWvmEYBQEsiJgiejNyj3azZNA74KXXdbyjI/zfSF2nQ/hnAPzoleMHJECj2C4WmDvdA0BCBRAANFbAHQfu+xd8LLLmo/PQSY+lUnsZgLQtkZD0Ts7PbytUNHL0mS2PRXYA4E8CCB686DseR+9CV52WfP8cUjPPWPM3cI6u+kBtaWlLfsnihS9wRAjvLY8CtgBgTYEsjqN6M2KbEna7U3wirAkmXB0IxCJ3U+u39mtHtcdJVCk6K0GEi1P5ig6zIYABAYioKJ3TO7Z/rmBWuHmUhLoTfCyy1opH5JenE4kdntpkLp2EihS9K5aZicTrIIABPIhEMgd8rV3fTGfzujFFwK9CV6pjfjiOH6kTwCxmz5Tq1uMRa/IfZLjEbA0WY606SprArTfL4FgF6K3X3blvK83wWsCUhrK+Zx09dpIcJ+QxtCVk3cVVPT+zFeuN3W5Oy/fghXk8ebFmn4gYDcBRK/d8bHLut4EbyCM8ErehwP96VJVr8ouByzFxIwI1N78lZ15id5gmM0nMgojzULAQQKIXgeDVojJvQle1uAtJEhWdxqKXXMq2CZ7RyesthPjMieQm+jViWusx5t5PK3sAKMg0JJAsEu+tv1e2Xctg3It+XBSCfQkeIMg2KA3USAQETByBLEbkeBtnkBeojdYzcS1eeR8QAACcwSul3OGDyJ652DwvpRAT4J36e3WncGgvAggdvMi7Vw/KnrFyJ1ZGh6wUkOWeGkbAm4SCMwWRK+bocvD6t4ELykNecTE/j4Qu/bHqGALZy/9yu1izJ6szEDwJiFLHQiUkACit4RBT+Zyb4I3EFZpkJIfRsZNLbienN2SPwcJ3J+99KtjmYle8ngTRIAqECgpAURvSQPfwe3wUnLBO3acZPAQWKlfc2J3m3xmdLzUHHA+MYEsRS95vInDQEUIlI9ALHoP/CIDdeWLfkuPkwveM4LglRIfiN0SB38w17MSvcE5ywczbPHd/IIABHwjoKK3Xj8oiF7fItuXP8kF75DwtyQp6YHYLWng03M7C9EbrcdbCdIzkpYgAAEfCWwSRG+PcfWzenLB66f/eNWNAGK3GyGuJySQuujVPN4VbEKRED/VIFBmAojeMkd/3vfkgrdeY4R3HlppPhC7pQl1r472Wz9t0UtaQ7+R4D4IlI4Aord0IV/scHLBWwkQvIvZ+f0Lset3fAv0Lk3RW1k3XKAndA0BCDhGIAvR6xiC8pqbXPCWl1H5PEfsli/mOXucmujVtAY2ocg5enQHAacJIHqdDl//xicXvEYY4ZUSHIjd9INMiy0JqOit1+t3tLzYw0nSGnqARVUIQEAJIHqVQslKYsEbBMGGkrEpn7uI3fLFvGCP62/+473GmF2DmFEhrWEQfNwLgVwJWNQZoteiYORhSmLBm4cx9FEogQljguvZVKLQGJSy89qlX90/kOglraGUzw1OQyAFAojeFCC60kRywUtKgysx7cfOCVMPtsmnRo/0c3O699BaGQkMKnpJayjjU4PPEEiFwJzo/ZN3XZFKazRiLYFKYssCYac18fJA7HoZVvecGkT0RmkNbELhXtCxuDMBruZFYJNUg4OC6M2LdyH9JBe8Ighe8e5A7HoXUrcdikTvrFwvJpjoyZNqIJURligTDghAoF8Co4jeftG5cV8ywTt2fMQNd0pn5SAOI3YHoce9mRGoXfaV+wKRbb2KXtIaMgsJDUOgLARGEb3+hjqZ4D0jI8LhFQFTq+8iZ9erkHrlzMylXz7Sq+gNVi0TLV6BwJkeCFAVAqkQGEX0psLRukaSCd4h2Sgc3hAwQSh2P33efd44hCNeEuhL9J6z3EsWOAUBCORKYE703rN9R6690lmmBJIJ3kxNyK9xepLwX4lDsfuJ8/bDAgIuEOhV9DJ5zYWoYiMEnCAwKoHcK/duv8UJazGyK4FkgrdeY4S3K0r7K0Qju4hd+wOFhYsIxKLXiIxLt0Mnr61f0a0W10VgAAEIdCcQiJF9iN7uoFyokUzwBsGIC85gY3sCiN32bLhiPwEVvbXAbEsieiujK+13CAshAAFXCCB6XYlUFzvbC97GGwNB8Iq7hzHmDmFk190AYvkcgUu+Op5I9IajvME6liibg8Y7BCCQAgFEbwoQi24imeAVQfebA9IAABAASURBVPCKm4cRs0c+uX6vm9ZjNQSaCCQUvZX1K5tuHOwnd0MAAqUnMCd6v/bu20tPwlEAyQSvEQSvuHdEYvd31o+5ZzkWQ6ADgQSiNxiuskRZB4RcggAE+iIQiJjPyYHtu/u624+bnPUikeANgmCDsx6W1HCjI7uI3ZJGvwRuJxC9lfMZ5S3Bk4CLEMibQCB12Y3ozRv74P0lEryDd0MLeRJA7OZJm76WEMjrRBfRq5tQkMubVzDoBwKlIoDodTDcSQUvKQ2OBBex60igMDMdAl1Eb+X8Ven0QysQgAAEFhNIJHoX38KvIgkkE7zk8BYZo8R9I3YTo6KiTwQ6iN5gWUUq567wyVt8gQAE7CGA6LUnFl0tSSZ4A2HjCbH7QOzaHZ/21nElFQIdRG/lvHCUtxKk0g2NQAACEGgigOhtAmLrz2SC11brsSsigNiNMPBWdgLzoleMHJHGoxpIhd3XhAMC1hNw10BErwOx6y54P3yc0V2LA4nYtTg4mJY/gVD0zk4Pb2sWvdEo77Lu/7vL32B6hAAEPCGA6LU8kPwJYHmAOpln6uZOKdfSY51wcA0CcwS27J9oJXqrr1szd513CEAAAtkQQPRmwzWVVrsL3iFhhFfsO4wxd8un1rPji32hwSIbCLQQvSxTZkNgsCE9ArRkKQEVvWNyz/bPWWpfac3qLnhLi8ZexyOx+8n1O+21EMsgYAGBFqK3euFqESawWRAcTICA5wQCuUO+9q4veu6lU+4lELw11uC1KKS9iF2LzMYUCBRDIBa9IveJHjqB7YJV+o0CAQhAIGMCwS5Eb8aIe2i+u+CtC4JX7DgQu3bEASscI6Ci92e+cr2py91qeWV0hWh6g36nlIYAjkKgIAKI3oLAL+m2u+ANAgTvEmz5nzAS3CekMeQPnh69IVB781d2xqK3etE5QmqDN6HFEQhYTgDRa0OAEgheKYfgFYsPXVf0VdllsYWYBgEnCCyI3mogrNogHBCAQG4EVPRuv1f2XYumyo354o66C14RgiMFHkaOmFPBNtk7OlGgFXQNAW8IxKI3OGe5sO1w67ByFgIQyITA9XLO8EFEbyZsuzbaXfAaQfBKQQdityDwdOs7ARW9Yswe3ZAiGB7y3V38gwAEbCEQmC2I3mKC0VXwBkGwbqlpnMmcAGI3c8R0UG4Cs5d+dUwqsqfyBvJ5y/0k4D0EciaA6M0Z+Fx3XQVvWI0R3hBCri/Ebq646ay8BFT0BkPBnoHyecuLD88hAIF+CSB6+yXX931JBG/fjXNjHwSMjJtacD05u32w4xYI9EEgEr1rlu2pnL+yj7u5BQIQgECfBFT0rl3+PTnwi97saNsniVxuSyJ4GeHNJRRhJ3Nid5t8ZnQ8/MULAhDIiYCK3sr6lXsq64Zz6pFuIAABCEQENkm9fhDRG7HI9K274GXSWqYBWGgcsbuAgi8+E7DXt1j0MonN3hhhGQQ8JYDozSGw3QVvIIzwSsYHYjdjwDQPgWQEZrf8yVhw4ao9sqz7/xqTtUgtCEAAAm0ILD6N6F3MI/VfSf6vjuBNHXtDg4jdBhh8hUDxBOo/e89Y5bVr9kglKN4YLIAABMpEANGbYbSTCN4Muy9504jdkj8AXd2nQkEEItF7wUpEb0H86RYCJSYwJ3r/bPumEjPIxPXOgvfDx5k5mAn2sFHEbgiBFwTsJVD/ufvGKiuqe0ILTVh4QQAChRIoVeebZEa+KYjeVIPeWfCm2hWNLRBA7C6g4AsEbCZQ/6U/H5NlwYdCGxG9IQReEIBAbgQQvSmj7ix4Vwj5u5LygdhNGejZ5vgGgUwIvOcv94qYW8O2Eb0hBF4QgEBuBBC9KaLuLHhnBcErKR6I3RRh0hQEciRw44P7Eb058qarQQlwvz8EEL0pxbKz4E2pE5qJCBw3JrieTSUiFrxBwD0CiF73YobFEPCDwJzovecXtvjhTjFedBG8NUZ404nLcVMPrpNPjR5Jp7kUWqEJCECgdwIqeivmreFo7/Heb+YOCEAAAn0T2CRB5ZuC6O0bYGfBWxcErwx8IHYHRkgDELCIwPUPHpGKXBdadDQsvDwggAsQcITAKKK3/0h1Frz9t8udcwQQu3MceIeAXwQi0VtB9PoVVbyBgAsEEL19Rqmz4K0ErMMbge3rDbHbFzZugoAjBK7/i3GpIHodiRZmQsAnAojePqLZWfD20SC3RASMqdVvJWc3YsEbBPwlEIne6beKqR/y18kmz/gJAQjYQGBe9G7fYYMxLtiA4E0/SsYEodj99Hn3pd80LUIAAtYRuP6hCXnfN66TuuwVDghAAAL5EQhFr9wr926/Jb8u3e2ps+A10k9Kg5T4mBO7nzhvf4kZ4DoEykng/Q/cIXXZEzrPBhUhBF4QgEAuBAIxsg/R2511Z8Hb/X5qnCWA2D3Lgm8QKCeB9z8wJqZ2Q+j8/AoO4TdeEIAABLIlgOhNwLej4A2CYF2CNqgSEojSGBjZDUnwgkDJCbzvm/cxma3kzwDuQyB/AvaL3vyZLOqxo+ANa7IObwih28uI2SOI3W6YuA6B8hBYmMwWkN5UnqjjKQSKJjAneg9s3120ITb2303w2mizVTZFYvd31o9ZZRTGQMBNAn5ZHU1m+8td5PX6FVa8gYDlBILw/zm7BdG7JEwI3iVIkp8wOrKL2E0OjJoQKCMBzeuNtiMW8nrLGH98hkBfBAa6CdHbAl9nwcsqDS2QzZ1C7M5x4B0CEEhAIN6ZzUQpDibBHVSBAAQgMAgBRG8Tvc6Ct6kyP+cIIHbnOPBeLAF6d4yA5vW+7y93idQ/FFqO6A0h8IIABDIlgOhtwIvgbYCR5CtiNwkl6kAAAm0J3PiNvVKpbA6vk+IQQuAFgRQI0ER7AojeeTadBW8gbDwhZw/E7lkWfIMABAYgoKO9Nz6wWdioYgCI3AoBCCQkgOgNQXUWvGEFXnMEELtzHJx9x3AI2EiACW02RgWbIOAjgdKLXgRvgscasZsAElUgAIH+CEQT2qbfGo727g0bILc3hMArWwK0XloCpRa97QXv2HE2nQj/m0DshhB4QQAC2RLQNXvf/8AdwvJl2XKmdQhA4KzoNRKUCUd7wXtGSi94Tc3slVKusyscEIBAEQR0tJfc3iLI0ycEykRARe+Y3Lv9c2LKI3rbC94yhb6Fr8aY/fLp9Xe0uMQpCEAAAtkS0NzeZfJTYSe6koMJP3kVRYB+IeAvgdvl3nd9sSyit73gXSGlHeGNxO4n1+8SDghAAAJFEXjPA0dFR3vF3BqaoMI3/OAFAQhAIE0Cwc6yiN72gndWSil4+xC7wgEBCEAgMwI3PrhfKpXrwlGYu8M+GO0NIfCCAATSJFAO0dte8KbJ0pG2ELuOBAozIVA2Arpu7/se2CnWpzmULTD4CwFfCPgvehG888+qCYIDQhrDPA0+IAABKwmQ5mBlWDAKAn4QCEXvgXcdlD/630b98GexF7kL3sXdW/LLyKNyUm61xBrMgAAEINCZgKY5aH5vtFObOd65MlchAAEIJCRggmtlePU3fRS97QVvvVaObYVDsWtOBdfJ3tGJhI8D1SAAAQikQWDwNnQ1h0r1rWKE/N7BadICBCCgBAKzxUfR217wqtO+F8Su7xHGPwj4TyDO761UNiN8/Q83HkIgFwK5i97svSqv4EXsZv900QMEIJAfgUXC1zwUdmzCwgsCEIBAfwQ8E73tBW8Q+LssmZGjpDH09/xzFwSKIkC/CQlEwvfBbVKvXyfGIHwTYqMaBCDQgoCK3hWr/kb+bPumFledOtVB8IqfglfFbo2cXeGAAAT8JvD+bzwk70P4+h1kvCspgbzd3iQz8k3XRW97wZs3zjz6i8XuZ0bH8+iOPiAAAQgUTgDhW3gIMAACHhBwXvSWR/Aidj347w0XEhOgIgSaCSwSvqzq0IyH3xCAQFcCTovecghexG7Xp5gKEIBASQhEwveBncKqDiUJOG5CIFUCzore9oLXiB/r8CJ2hQMCEIDAEgLR5LZG4RttYGGW1OMEBCAAgcUEnBS97QXvYufc/IXYdTNuuVtNhxAoMYEF4Vt9q4jRHSePhjQQviEEXhCAQFsCzolefwUvYrftU8oFCEAAAksIqPCNtyxW4Wvqh8I6CN8QQqleOAuB5AScEr1+Cl7EbvLHlZoQgAAEmgmo8H3fN66Timncthjx28yJ3xCAgDOit63gDYJgnZNxROxmHTbahwAEykLg+gePyPvm83x11FeEdIeyxB4/IZCcgBOit63gDf10b+MJxG4YNl4QgAAEUibQmO4Q7eC2sKxZyUd9U+ZMcxBwl8Cc6L3nF7bY6kInwWurze3sOm5McIOwqUQ7PpyHAAQgMDiBxmXNGPUdnCctQMAfApskqHxTLBW9vgje46YeXCefGj1i23ODPRCAAAS8JMCor5dhxSkIDEhg1FbR64PgRewO+HRyOwQgAIGBCCyM+k6fGy1tdnaFh8aUh4G64GYIQMAZAlaK3k6C14UcXsSuM88/hkIAAt4TuP6hCVlY4aGyWSrmjtBnJrqFEHhBoGQErBO97QWvkfwFr/R0IHZ7wkVlCEAAAjkS0JSH6x+8U258YLOcneiG+M0xBHQFgYIJzInee7ffUrAdUfftBW902do3Y2r1W8nZtTY+GAYBCAxIwKvb45QHxK9XYcUZCCQgMCpG9okFotdFwWtMEIrdT593XwLQVIEABCAAAZsIIH5tiga2QCAPAoEYGUT0pmKja4J3Tux+4rz9qXhPIxCAAAQgUBwBxG9x7OkZAvkSKFz0uiR4Ebv5Ppz0BgF3CGCp+wSWiF9zZ+hUnPPLag8hDF4QcJxAoaK3veANZKNYdERpDIzsWhQRTIEABCCQEYFI/D54ezThrWLeGq32wFJnGcGmWd8IWO7PnOg9sH133na2F7x5W9KhPyNmjyB2OxDiEgQgAAFPCVz/4BHR1R7e943rpFLZLHO7ux0IP4+HHjPyG0LgBQHHCARSl92Ss+i1XvBGYvd31o85FkzMhYDFBDANAo4S0KXOdJ3fGx+4QW588Ny55c7MnWLMo6FHKn61hF95QQAClhPIXfRaLXiNjuwidi1/ZjEPAhCAQEEE4tSH9z341sWjv0Lub0Ehca5bDC6SQK6i11rBi9gt8hmkbwhAAAKOEVg0+vuA7vIWimBzh5D761ggMbdkBHITvVYKXsRuyR53u93FOghAwEUCjbm/Nz5QOZv+UD8UuqOpD1rCr7wgAIGCCeQielsL3g8fL2yFBsRuwY8d3UMAAhDwkcBC+oNOfptuyP9FACcPNzUhkBmBzEVva8GbmT+dG0bsdubDVQhAAAIQSIHA9Q9NSCsBXJc9cykQ5njYi44Aawm/8oIABHIgkKnotUbwInZzeJRy6IIuIAABCDhHIBbA739gTHT5s3gFiIq5I/TlQFiYBBdC4AWBHAhkJnqtELyI3RweIbqAAAQgAIHkBHQEWNf/jZZAe2BztAqEqd3h4+0PAAAG1ElEQVQgxtwpiyfCtRsFTt4XNSEAgUYCZ0WvkaDxwiDfCxe8iN1Bwse9EIAABCCQCwFdBeJ937xP3vfg7XOjwA/MTYSLR4FZCziXMNBJaQio6B2Te7d/TlISvYUKXlMze6XM6+yW5rnFUQhAAAIeEmgcBY7WAp6fDKe5wCKkQngYclzKncDtcu+7vihm8JHe1oJ3hYxIxocxZr98er3mR2XcE81DAAIQgIDtBLywrzEXeCEVokkELx4JNl74jRMQyJRAsDMN0dta8M5KpoI3ErufXL9LOCAAAQhAAAI+E2gWwY0jwZoOYYL95AT7/ADgWzoEgoFFb2vBm451LVvpX+y2bI6TEIAABCAAAbcIxCJYJ8W97y93LeQEV8xbRSfGxSkRjAa7FVeszZjAYKI3V8GL2M34WaB5CECgHATw0k8CujucTozT5dE0JaJxNFiFcLxCBELYz/jjVQICoej92rv/Rv7ofxtNUHlRldwErzFySEhjWASfHxCAAAQgAIGOBOLRYBXC8QoRzUK4/YgwOcId4XLRSQKB2SLDq78Zi96kPuQjeI08KqeCG5IaRT0IQAACEIAABDoQaBTCjSPCNz5QEU2NqNevCz/vkHhUWMzxsDUVwHEJf/KCgKME+hC92QveUOyaU8F1snd0wlGsmA0BCDhNAOMhUDICmhoRL5kWjwrr7nGV6XNDEXw2T3hBDMvRkFAshOPP8BQvCFhMIBa9+65NtNBCtoIXsWvxk4JpEIAABCBQKgI6KqxiWNMjdFR4QQw/sFlajQzrWsJRvvCS0WEVxaVC542zvjmionftss8ncSs7wYvYTcKfOhCAAAQgAAE7CKgYbhwZjifONY8OR8upmTtDow+IqR+SpekSCOIQDq+8CAS3yH/5hWu79dZa8NZrG7vd2PG6kaOkMXQkxEUI2EoAuyAAAQgsJdA4Ohwtp/bg7eGo8A1zS6o9eG74/WzucM3cKjqRLk6ZaD9KjDBeSpozvRMIJAh2dLutteDtdlen6yp2a+TsdkLENQhAAAIQgIB3BOIR4pse3C+NKRO6qoSOEkdpE9ObRSfU6TJrzSPF1glj7yLksUPBhm7OtRa8y6tHut3Y8nosdj8zOt7yOichAAEIQAACECgvgesfGhdNm9A84uaR4lgYR5PrmoSxjhiL2SeaQqFFWk600xFjLeXlW1bPg/q6bq63Frxjoyp4e1tVAbHbjTXXPSSASxCAAAQgkDKBKH2iSRjriPGND94apVC87xvXyY3xRLvpc6UyPTdqrCPHcTpFXfbKEoFsmpdmU3EcF+FwmEC98lg361sL3vAuI1FCevgtwcvIUaNpDIzsJoBFFQhAAAIQgIB3BIpxqFEc68hxnE7x/gfukCUC+cH5XONQIMdrFWtqxVmRvCcSydHqFPVDsjCS3FEoI5iLiXxjr6FkNfc1nmj1va3gld9ZPxbe8GhYOr8Qu535cBUCEIAABCAAAXsIaFpFnG+sqRVnRfJYJJKj1SnCUeSFkeQFoXzuotHkWCxrLrKmXMSjyksEc8f0CxOCaSzhT149EajLfXLTg9+SLkd7wRveaIaC60xg9urXsDS/jDFyiJHdZiz8bkuACxCAAAQgAAFXCTSPJsdiWXORNeUiHlVeIpjn0y/mJu3NiebGNIw4FaNxpFkFtKZkREUOiI42x2Uuf/loOBrdKUXDhJg7lfCyF69/lKHKh5J40lHwytjohHxi/R1mNthsxOyJBG5gDpia2Wukdp188tzr5DOj48IBAQhAAAIQgEBiAlQsKYFYNOsos6ZgxEVHmbXMCeexaJULTcmIygNzy7/piLOWufzlzeFo9FyKhgppLSqi46IiurGomI7L2RHpPdHycQsj02ZfKKL3LRLXS0S2hEJbixlEbHcS4s3Xmh+UxusHwhH3t8n1fzHeXKnV786CN75DRa2mOKjA/cT6G+TT6++Q3zn/ofgynxCAAAQgAAEIQAACBRJQER2XWEjHnyqm43J2RHpOWC+MTD94ayiiz04MVHEdlwWR/UAotLU8uFhsq+DWEgvuRZ/mrdFSdI0CPP4ep4XEYrz5U0e6m8us7AqFrvZ/g+hfIBIiTyZ4EzZGtTQJ0BYEIAABCEAAAhBwiEAsuBd9PngkWoouFt+Nn3FaSCzGmz8bR7znvu+RDzxwdy9CN6aH4I1J8AkBCEAAAnYSwCoIQAACAxJA8A4IkNshAAEIQAACEIAABOwm4IvgtZsy1kEAAhCAAAQgAAEIFEYAwVsYejqGAAQgkAUB2oQABCAAgWYCCN5mIvyGAAQgAAEIQAACEHCfQIMHCN4GGHyFAAQgAAEIQAACEPCPwP8PAAD//860VQ4AAAAGSURBVAMA06kElMckia8AAAAASUVORK5CYII=;" vertex="1" parent="g8OfchhErnNZp_5HsY3C-3">
          <mxGeometry x="332.5" y="261" width="90" height="90" as="geometry" />
        </mxCell>
        <mxCell id="g8OfchhErnNZp_5HsY3C-25" value="" style="shape=image;imageAspect=0;aspect=fixed;verticalLabelPosition=bottom;verticalAlign=top;image=data:image/png,iVBORw0KGgoAAAANSUhEUgAAASwAAAEsCAYAAAB5fY51AAAQAElEQVR4AeydW5LjRpJFA6m19Nj0WC9Af6r6VFkvpKVNZNYmWlqITPqs1J8WMDY9Nr0WJcdvEMgC3wDijThpDBIE4uF+HHHpAT7yyfEHAQhAoBECCFYjgcJMCEDAOQSLswACEGiGAILVTKjCDaUHCLROAMFqPYLYD4GOCCBYHQUbVyHQOgEEq/UIYj8ErhHY6T4Ea6eBxS0I7JEAgrXHqOITBHZKAMHaaWBxCwJ7JIBgXYsq+yAAgSoJIFhVhgWjIACBawQQrGtU2AcBCFRJAMGqMiwYlY8AI7VEAMFqKVrYCoHOCSBYnZ8AuA+BlgggWC1FC1sh0DmBQMHqnB7uQwACWQkgWFlxMxgEIBBCAMEKoUdbCEAgKwEEKyvupgfDeAgUJ4BgFQ8BBkAAAksJIFhLSVEPAhAoTgDBKh4CDIBAfQRqtQjBqjUy2AUBCFwQQLAukLADAhColQCCVWtksAsCELgggGBdIAnfQQ8QgEAaAghWGq70CgEIJCCAYCWASpcQgEAaAghWGq702gsB/MxKAMHKipvBIACBEAIIVgg92kIAAlkJIFhZcTMYBCAQQqCsYIVYTlsIQKA7AghWdyHHYQi0SwDBajd2WA6B7gggWN2FvJTDjAuBcAIIVjhDeoAABDIRQLAygWYYCEAgnACCFc6QHiAAgVMCyZ4hWMnQ0jEEIBCbAIIVmyj9QQACyQggWMnQ0jEEIBCbAIIVm2h4f/QAAQjcIIBg3QDDbghAoD4CCFZ9McEiCEDgBgEE6wYYdkMgBwHGWEcAwVrHi9oQgEBBAghWQfgMDQEIrCOAYK3jRW0IQKAggaYFqyA3hoYABAoQQLAKQGdICEBgGwEEaxs3WkEAAgUIIFgFoDPkBgI0gYARQLAMAjcIQKANAghWG3HCSghAwAggWAaBGwQgUBOB27YgWLfZcAQCEKiMAIJVWUAwBwIQuE0AwbrNhiMQgEBlBBCsygISbg49QGC/BBCs/cYWzyCwOwII1u5CikMQ2C8BBGu/scWz/RPozkMEq7uQ4zAE2iWAYLUbOyyHQHcEEKzuQo7DEGiXQM+C1W7UsBwCnRJAsDoNPG5DoEUCCFaLUcNmCHRKAMHqNPC9uY2/+yCAYO0jjngBgS4IIFhdhBknIbAPAgjWPuKIFxDogsAiweqCBE5CAALVE0Cwqg8RBkIAAhMBBGsiwSMEIFA9AQSr+hBlNpDhIFAxAQSr4uBgGgQgcEoAwTrlwTMIQKBiAghWxcHBNAikJdBe7whWezHDYgh0SwDB6jb0OA6B9gggWO3FDIsh0C0BBGtz6GkIAQjkJoBg5SbOeBCAwGYCCNZmdDSEAARyE0CwchNnvBYJYHMlBBCsSgKBGRCAwGMCCNZjRtSAAAQqIYBgVRIIzIAABB4TyCFYj62gBgQgAIEFBBCsBZCoAgEI1EFgs2Ad/vH3D4cfvv9yLJ8Ohx+s/Pjp5WClDtfasQKW7cQKS8sSWCVYXyfWp4Mb3r44N3w4Fnf8O7hnZ2USL8ffXQITz4cs9cLQyAvBXYc5CIFAAosFy2dO7yK1YFSE6yakS6G6WXU8YC8M4olojTx46JXAIsHSsk+Z0yZI40TTJN3UfmeNVgv/3H+xVLZly/H5brYh0AuBu4IlkfFi5Zd+AUhsomnZ4ydrQDctNz2ytKW0WAQ5YtmWZbo9swzCR+N4BAr0dFew3PDnswsVKzf7s8na2/Wto1B9/0WCPSMRvimWLBHDOdJDUwRuCtbxFdxezVO4o8k2vquYovsa+jwVqoQcWR7WEG5syETgqmB5sTJRSW6DjeHHSj5Q3gG8T7ZsczGzU3fjz2fBN46xGwI7I3BVsDZfYN8CR6K1k2zrPasynx6iiFZh+OAFMlp/dASBeglcCFaxk98meavXt96FKldWdX4+GbvzXTyHwB4JXAiWOxy+K+qoTT69M1lMOFc4X1yoZrbKltlTNiGwSwKXgpXjustDlHaRWsJV8btgXlBLZVTX+HEt6xqVSvZhRiwCJ4LlJ2GsnmP0I9Gq7PqWMhllgFmv8y1iaSK/qB6VINAugRPBqtaNCoTrXahqyqrOAiYbz3bxFAK7InAqWKWvXz1CK+EqsEz0mWfFQvUIG8chsBcCp4JVpVdnRkm0Mi0TlbHUufw7YzI+HX7+5XXc5AECuyRwKliHbz434+XBPaf6GMS7UDWVVR1em4kdhkJgI4ETwWryFfpgwhVxmegzqqaEaoz8MPw+bvGwksB//u3bD3/567df9Liy6erqGkNjrW5IA0/gRLD8HtfgK7VEK9YysdGJP/zz15dj/Jq+z2b8JBwSj7c392UY3AeX6G8a6z/+69tD6rESuVBNt5eC1dKy8BxjBOHyE39w7SyNxaA1e2VzgTIJx1ykUgnVNBYiFTfQF4Lll4WtTwAJly0TdS1qC67WRMvbu8XRDtpMwoFI7SPYF4Ilt3YxAUy09BtU/iMJcmpl8QxaEO4WbFzJPrQ6IhVKME/7LaNcFSzf0eHpo39s/c6Ea+u7iV60ar6mN7jPRxtbD1Ic+2359WLl/TpRquWerLVxTsbSPkp6AjcFyy8Na56sa9l44fr+y+qMq+VremsZNV7/cHDZvrifc6zGwxLV/JuC5UfZ3WQdPjgJl13f8v4tuPPCXWO2SXa1IHpUKU1gWp5bRnqwEvxO9l3B8pN1T1nWFD2J1oqPQdTIgaXgFEweayIggVLRmxwmUO/L81g23hUsP8jusizv1fFujXDVxMGyq6MD3EOgPAEJlIpESp8zU0l1/fChYPnsYu8TRML1YJnoOZQ/N7wFZFceA3cFCUigVHKI1NzNh4Klyl1MEInWw2ViBd8C2PuLh044yimBip6VEKm5+4sEyzeo8cKzNyzy3T3hKr0sNLHq4sUjckjpLg4BiVXK5d4SKxcL1nFJVEGGscSrGHUkXA+WiTGGoQ8IQGA5gcWC5bssnWF4IzLeSbRmy8SjaGccfz4U2dWcBtudElglWMcJ21iWFSOwJ8JVxn+WgjECSR+tE1glWN7Z3rIs7/R4Z8I1buV9sOwq74CMBoE6CawWLJ9ldT2BhmS/m3TrFCG7ukWG/b0RWC1YAnScQGWWRhq/q9L1i8PaSFN/7wQ2CZaH0vPS0APIcGdidXxxyDAWQ0CgAQKbBcsvDff4PcOKgoZYVRQMTKmCwGbB8taTZXkMSe4su0rSL51CoGECM8Fa7wVZ1npmS1uQXS0l1V89feJcpT/PnQsSLAEbfvrtox4pEQkMrq1/grHCdU00fWFWRT8/cq3omIod0696Bv+G0grzqqt6jZe+HqNifPQbU770witYsHyEdzzBvH8574zl3rKradJpgmmi6adHVG5h1TEVO/6sonZWuhGvtbyMkWuE17PF0Qvs0kcJsfybShTBOk4wPuYwQQ15PLIM6WFR2yyVpok3iVTgoCfiFdhXlc1T8NKEN3HYTZYaRbB89LkA7zEE3Vl2FdS+osaaJJGE6ppXeqXezSSUg6l4TZmX9X+QIGqslks0weICfPhpsJfsyiaHxEQZUTiU2z1ItHYxCZUFmZupeTm9gIyxseHavEUTLO8+WZbHsOluJ9lVrsk3MdYkbDlzkICMWdDkUvTHsw4l9HpBOdvdxtOogkWWtT3oe8iuJFaZJ58H/uefLnl24geKfCexsi5L2N6saEUVLIPvHFmWx7DqbgfZlU2+QwmxEmeNK7HUdivFeCnLeS5ob5OiFV2wqs2yJApTKXiWXBu69exqnHzXXMu2T6Klkm3A8IFKitVk/XNry+noguVJ1JZlHZ4+ShSm4iRc3tDHd8lr1GTLBmdHsaph8m2wniatLaeTCNYxy6rkZJBY/fzL69waCVdVojU3rr1txKq9mL1brKx0fNF531fzRhLBOjpcwQdJr4jV0TbnahEtb4dr8y/1iX44uJMXGtfZn/yfl4TuN7M0TChYCfEu6fqOWE3NvVg0viSbfMn9OIpVtOxKE/PpyX1U+b//+WNQ+fe//vioRxXtNx8/q549prlV0qt8lL/yf17EQUXHzNSo3zfNsTSUX2vLMLjfzdf3WzrBGoaTgd5HzLGxQKwmM8qKVgVZ6ASi7ONnTcz//e8/XlWumaL9NllfVM+OR52s1l8VN01m83GQj/L3llE6ZvVerAxWJwqLYXAfUl+AtzF+l29rivmod1PNzeMtnWC9PZVJ51eI1RGBOy4P+TFCt/IvOLuaJuj5SfnIDtW3Mqj9o7oNHfeivdZe46AJHUW01o5dov5TiUGTjWnLu80X/Eu8s1kyCw0IwrgcDOjBOYmNXmlDOlF79RPSRyVtP4/Cs8mcsW2waOVYFm5ycNYonmDNOi22eTh8t3nsp7fs/w3HZu12ezc7WkdDiU0MS775xgVP1Bh2BPQRJFbTuDFEy5ZsyZeFk71bH/clWG74cPjH3/MLz1b67bZ7DjQ9msjoeo7ZEq0/6yvrbRSaKGOqr8PO31lNJ1glMhaFfXj7sla0Dj9+enEHFzoJNfruS4zloCZWTFCx+4tp24O+ogttaMZZ+7IwnWA9iFTSwytEq6xYDY1mg0HRiz5JZU2LmUUKoR0zTiHZVLQs3NQwU6N0ghVyPSmG8wtEq6xYHZ1cmw0eW5W7N2EIuu6WYpKKRmhmoT4ylyTCLR8sRq963FpSf7xhq11ql06w7HqSBiha7ohWDWJVlM3GwWt9BQ7NLDbiqLKZxajcZyATE0kiWF4MEhu+uPsrouXtO1RyzWr4s5trZ6Gv/I9inrr/R+OvOf705F5dor/IfSeyclu3SQRrmykJW0m07MK6ll+HH77/4g6uIpHo553NPb/yrz17a84I395ctddW0whWVYLgjn+yyYTL1bBUdWd/jWRZNV/bEFEEURScq1kMjxZuv48uWH65td2eTlt2+W5hp7Gu321bWge9sZLSw+iC5ZTJpLS4rb4XW9uD0Ke+tpK6/8XBfFDRBOH1QRUO3yAQVbB6mHQ3OIbvPrhnXWML74geILBfAtEEy082m3T7RZXBs0auZWUgsWmImi8Wzx2ya23VXtSe21njdjTBcqW+ilMj1c027fsdw1YEZWv49tLOBLXaz3FFESy/FCS7inO+Vpxl7fndpzjBo5fUBKIIFhfaY4bJsqwfP+lH2WJ2WkVfdrE56btPqfuPCTHlR0RS9h2TwZa+ggXLZ1dbRqbNbQJkq7fZ3DliSxmuDRmf0KV3ze+2BgtWrOzKOHObEfCfyJ89r2XTspjXrbYgKF/J1f4zLl8trWsrSLDIrlIG05aGO/wxwlTLlRi/05Uympn7DvrqWaprlfZiF3xJYLNgebE6uCAwmYPY3nAVXoAP/RkXMovjaahsM4V4hwq3icrr0cLL+1RCdjnS7T2bBcsdHGJ1m2ukI/VlWaEnrZ+of/s2xbWm5s7HGsXb4pPsIw3Wd3DcNwmWz64iTUm6eUDAf2H7QZ3Mh++9Ci8xJfZEDc0qlticoo4mcMwsa+QQJNypUndg2AAACyNJREFUfmBx4hfq7ybBcmRXE/8sj7W9QIQuCzVRx8kVzG/sJ2iSBhsR0EFk8Q7isOSFaEmdezhC/V0tWMUmz+Hpoxtcsp+VvQe5+DF7gfBffSpuyNGA0GXhsRf3PIrN+HT9w9g+aJKuHzVuC4n3X/767ZfQXmP0YbYkWA6eemZjfBjjdnpg4bNVguUnjU2ehX1Hrzb889cX16toVXYBPvSVdjw5NovWeNI3LVYjA6dJvFVwtMRSW/Ux9bf1cclyMDS7Hm17ls1jDMddyx5WCVYN3xeUaA0//Tq47oSrrgvwkU5cnaUSrcPSk3eaoNZwF2JlfvibBMcYrOJg9V/e3twXtfWdhN1lXb2MNr8Ll3xRbFW0LUFT0fbcrcWC5ZeCBbMrd5ZhdClcZwzmgcy9rWVhpCxrMv1duHSS6sSdip7r5FWJOEGncWt79Bzkq/xWmXPQcx0TBzM8mmgv/XS74m7jRrtNwmUdPssnFW1rv4qdYyef3VosWK6kWJkH7sZPG0u49pttubM/y7Iq+p5hxCxr7qcm4fvJe34CzyvueVuT1fw7YTE9H4/Z02i3zyuFKGs2NvdykWD57GreqtC2v4Z2ZWyJVjfLxOIvHF8DMJ7kxU7er5awtZWAZTCvS65dzftfW3/eNnR7kWCVz65GNx8siXoRrlpeQBQVnbw66bVNaY+AZWub3hksFfOHglXT5HC2LLyVZbnZn4Rr18tEy7KWcJghSbqZaGm42uZSk2itoaOd55np2m5i1P+sF5wtHZWK+V3B8mJlk2OLQ8naPMiypnElWrteJi7kMPFI+VjJ0vBzqUm0ha2EYhSuLc1jtNksVhpcMbcL9R+1nbPcFaychiwfyy48r/gVg/0K1zoOy/luq6kJWOIEHq0NmnxjH9kfCgpsFF4SLYOWNVO8KVhVZldGx982ZBcSruMy8fDq+9jD3QYOKd3WCZxbtJSlSCxT+pWq7xK8zJcoYmX9+NvIPpto3RSsai60eyznd5Zd6F/Of929aEuiNfz028ejcC1qUnkl41DRxxwES5PQTuJBQqLnicvnf//rj4+Jx0ja/cTLBkk+6fViYrF5sbGi3sY+k9svo68Kls+udLTqsn2yHoVrJ5+WPzh9Vqe6SI1CkuQklhimmnylQKac9BMviWMq/1LaP7f5qmC5SifB3HC/bXaGiKuEy+3gS9UhDDzHRHc6ia0M1n0U4dLEU18Sw5STz8YocjNWL1ai8TIntPwbcvEy22Pbby6c3i4Eq9aT/9Ts2bNQ0fr5l1cvXIOLMqlmluXbNAb5Bls/UuiJLKFSRqWJp77uWaC6W8u9fs+P6fNLW8dR2/P+5s/lo5VJuFadl7JJrNTeSvTl39zOW9sa18om+6c+5YdtX7zzeyFYzWRX5s377XD4LvRzSRKtoeEvVYf6/84y4YadxP4V2B7nJ/NnnZxTseE1QT9r0qmoroRqSUalOqq7tai9jb/oZna9bB1HbZcMonpjGexxEA8Va3vCSPt0XEU2rfHD+kp2M3sUb5V3+20wb/u1R/mhYu18VmiPL+e+nAhWc9mVs3f8bEk32IX0wTIlgxB8a1a4KnvH8FEgdDJORZNsKtM+nagqj/rp6bh4qJwz0r4WOMjOyfZrjzqucs+XE8G6V7G6Y7aEiylU5/5JuJyNcb6/3udD8O9l1+sblnVL4MzxU8GypdXZ8QqfjlmVfswvsXUSraGhZWILy8LEIaP7nRM4FayqnR2FKuLyb6m7rQhXrGXxUi7Ug0BuAqeCNQybvrmd3Ghbmg0FhOrcLwnXHj4Gce4XzyHQCoFTwXp7eq3L8DGryrD8W+q3shgvXCaiS9tkqXfNniwDMwgE8hF4mg+lyTh/Xm57FKoKsqpbDCRaQ0PXt275wX4ItETgRLCOhptYHDfK3FumMFQsVOdQahEu2XFuG88hsDcCl4J1+EYf7Crg5+F1sIyl1Yknu2V/kY9CmMgXCBhDVkWgD2MuBMsvC7NOgMOrLmQPllXtAbmEy4tWLoY2jh9zD/DwAQIPCFwIluofJ4AJiZ4kK9Z/5E+pJzN1Zcfip+KFa2XbtdX9OGsbUR8CjRK4Kljy5ZjxmKjoSeyirMAyKp/Nxe67ov4kJoMtc5MJlwl+Re5iCgSSE7gpWH7k2NezvFD9Omgi+/6ruUtriPyNLlwmVnsX/LRRofcWCdwVLE0IP9H0JeMg7yxT0wSr6PNUQe5sbBxHuEaWkb7svdEVmkGgCIG7gjVZNNjybduyZpxc1l7iN/XX+6OEy/O0jHMVC6uvWMByFTUq74jAIsGSv36SWZbkJ5p23C0I1V08dlA8VTxPEyLbdec28uw8Q70DaM0h6jZMYLFgyUe9smuSDe8Xkm0i6YAv2rZiojaQUXkiS+48TxOiYWLqxcs46tGztGt+8FyCkjodEFglWHMefqJpItlE02Qb/PZvHyVq83psLyfgmXrxMo565DrVcnjU7ILAZsHqgg5OQgACVRFYK1hVGY8xEIBAXwQQrL7ijbcQaJoAgtV0+DAeAn0RQLD6ivcqb6kMgdoIIFi1RQR7IACBmwQQrJtoOAABCNRGAMGqLSLYA4ESBBoZE8FqJFCYCQEIOIdgcRZAAALNEECwmgkVhkIAAghWjHOAPiAAgSwEEKwsmBkEAhCIQQDBikGRPiAAgSwEEKwsmBlkPwTwpCQBBKskfcaGAARWEUCwVuGiMgQgUJIAglWSPmNDAAKrCGQWrFW2URkCEIDACQEE6wQHTyAAgZoJIFg1RwfbIACBEwII1gkOnkQkQFcQiE4AwYqOlA4hAIFUBBCsVGTpFwIQiE4AwYqOlA4h0B+BXB4jWLlIMw4EIBBMAMEKRkgHEIBALgIIVi7SjAMBCAQTQLCCEYZ3QA8QgMAyAgjWMk7UggAEKiCAYFUQBEyAAASWEUCwlnGiFgTiEKCXIAIIVhA+GkMAAjkJIFg5aTMWBCAQRADBCsJHYwhAICeBtgQrJxnGggAEqiOAYFUXEgyCAARuEUCwbpFhPwQgUB0BBKu6kGDQkQD3ELgkgGBdMmEPBCBQKQEEq9LAYBYEIHBJAMG6ZMIeCEAgL4HFoyFYi1FREQIQKE0AwSodAcaHAAQWE0CwFqOiIgQgUJoAglU6AuHj0wMEuiGAYHUTahyFQPsEEKz2Y4gHEOiGAILVTahxdA8EevcBwer9DMB/CDREAMFqKFiYCoHeCSBYvZ8B+A+Bhgh0JVgNxQVTIQCBKwQQrCtQ2AUBCNRJAMGqMy5YBQEIXCGAYF2Bwq4dEMCFXRJAsHYZVpyCwD4JIFj7jCteQWCXBBCsXYYVpyCwTwLXBWufvuIVBCDQOAEEq/EAYj4EeiKAYPUUbXyFQOMEEKzGAxhuPj1AoB0CCFY7scJSCHRPAMHq/hQAAATaIYBgtRMrLIVAKIHm2yNYzYcQByDQDwEEq59Y4ykEmieAYDUfQhyAQD8EEKzlsaYmBCBQmACCVTgADA8BCCwngGAtZ0VNCECgMAEEq3AAGL5OAlhVJwEEq864YBUEIHCFAIJ1BQq7IACBOgkgWHXGBasgAIErBJII1pVx2AUBCEAgmACCFYyQDiAAgVwEEKxcpBkHAhAIJoBgBSPsvAPch0BGAghWRtgMBQEIhBFAsML40RoCEMhIAMHKCJuhINA2gfLWI1jlY4AFEIDAQgII1kJQVIMABMoTQLDKxwALIACBhQQQrIWgwqvRAwQgEEoAwQolSHsIQCAbAQQrG2oGggAEQgkgWKEEaQ+BSwLsSUQAwUoElm4hAIH4BBCs+EzpEQIQSEQAwUoElm4hAIH4BP4fAAD//3NRt0QAAAAGSURBVAMA/dmR4Ihm8ogAAAAASUVORK5CYII=;" vertex="1" parent="g8OfchhErnNZp_5HsY3C-3">
          <mxGeometry x="777.5" y="220" width="145" height="145" as="geometry" />
        </mxCell>
      </root>
    </mxGraphModel>
  </diagram>
</mxfile>
